<svg width="18" height="18" viewBox="0 0 18 18" fill="none" xmlns="http://www.w3.org/2000/svg">
<path d="M17.1 13.0501V4.9501C17.1 4.2031 16.497 3.6001 15.75 3.6001H3.14102C2.39402 3.6001 1.79102 4.2031 1.79102 4.9501V13.0501C1.79102 13.7971 2.39402 14.4001 3.14102 14.4001H15.75C16.497 14.4001 17.1 13.7971 17.1 13.0501ZM15.921 4.8511C16.218 5.1481 16.056 5.4541 15.894 5.6071L12.24 8.9551L15.75 12.6091C15.858 12.7351 15.93 12.9331 15.804 13.0681C15.687 13.2121 15.417 13.2031 15.3 13.1131L11.367 9.7561L9.44102 11.5111L7.52402 9.7561L3.59102 13.1131C3.47402 13.2031 3.20402 13.2121 3.08702 13.0681C2.96102 12.9331 3.03302 12.7351 3.14102 12.6091L6.65102 8.9551L2.99702 5.6071C2.83502 5.4541 2.67302 5.1481 2.97002 4.8511C3.26702 4.5541 3.57302 4.6981 3.82502 4.9141L9.44102 9.4501L15.066 4.9141C15.318 4.6981 15.624 4.5541 15.921 4.8511Z" fill="white"/>
</svg>
