<svg width="24" height="20" viewBox="0 0 24 20" fill="none" xmlns="http://www.w3.org/2000/svg">
<g clip-path="url(#clip0_4_286)">
<path opacity="0.6" d="M10.9109 11.8182V17.2727C10.9109 18.0303 10.6458 18.6742 10.1155 19.2045C9.58517 19.7348 8.94123 20 8.18365 20H2.7291C1.97153 20 1.32759 19.7348 0.797286 19.2045C0.266983 18.6742 0.00183105 18.0303 0.00183105 17.2727V7.27273C0.00183105 6.28788 0.193592 5.34801 0.577115 4.45312C0.960638 3.55824 1.4791 2.78409 2.13251 2.13068C2.78592 1.47727 3.56007 0.958807 4.45496 0.575284C5.34984 0.191761 6.28971 0 7.27456 0H8.18365C8.42986 0 8.64293 0.0899621 8.82285 0.269886C9.00278 0.449811 9.09274 0.662879 9.09274 0.909091V2.72727C9.09274 2.97348 9.00278 3.18655 8.82285 3.36648C8.64293 3.5464 8.42986 3.63636 8.18365 3.63636H7.27456C6.27077 3.63636 5.41376 3.99148 4.70354 4.7017C3.99331 5.41193 3.63819 6.26894 3.63819 7.27273V7.72727C3.63819 8.10606 3.77077 8.42803 4.03592 8.69318C4.30107 8.95833 4.62304 9.09091 5.00183 9.09091H8.18365C8.94123 9.09091 9.58517 9.35606 10.1155 9.88636C10.6458 10.4167 10.9109 11.0606 10.9109 11.8182ZM23.6382 11.8182V17.2727C23.6382 18.0303 23.373 18.6742 22.8427 19.2045C22.3124 19.7348 21.6685 20 20.9109 20H15.4564C14.6988 20 14.0549 19.7348 13.5246 19.2045C12.9943 18.6742 12.7291 18.0303 12.7291 17.2727V7.27273C12.7291 6.28788 12.9209 5.34801 13.3044 4.45312C13.6879 3.55824 14.2064 2.78409 14.8598 2.13068C15.5132 1.47727 16.2873 0.958807 17.1822 0.575284C18.0771 0.191761 19.017 0 20.0018 0H20.9109C21.1571 0 21.3702 0.0899621 21.5501 0.269886C21.7301 0.449811 21.82 0.662879 21.82 0.909091V2.72727C21.82 2.97348 21.7301 3.18655 21.5501 3.36648C21.3702 3.5464 21.1571 3.63636 20.9109 3.63636H20.0018C18.998 3.63636 18.141 3.99148 17.4308 4.7017C16.7206 5.41193 16.3655 6.26894 16.3655 7.27273V7.72727C16.3655 8.10606 16.498 8.42803 16.7632 8.69318C17.0283 8.95833 17.3503 9.09091 17.7291 9.09091H20.9109C21.6685 9.09091 22.3124 9.35606 22.8427 9.88636C23.373 10.4167 23.6382 11.0606 23.6382 11.8182Z" fill="#1C1C1C"/>
</g>
<defs>
<clipPath id="clip0_4_286">
<rect width="23.64" height="20" fill="white"/>
</clipPath>
</defs>
</svg>
