<svg width="107" height="92" viewBox="0 0 107 92" fill="none" xmlns="http://www.w3.org/2000/svg">
<g opacity="0.3">
<path d="M32.7404 16.9144L29.952 10.3018C25.9753 11.9822 21.9079 8.27958 23.2776 4.10484C24.3979 0.692837 28.9731 -0.256606 31.4369 2.28875C33.147 4.05552 33.2848 7.30371 31.5224 9.07753L40.022 16.8739L66.5135 16.9267L67.2098 16.7488L75.2365 9.33647C75.3848 9.02997 74.5961 7.95722 74.4355 7.49747C71.9333 0.340539 83.1288 -1.69574 83.8651 5.02434C84.3206 9.18146 80.6335 11.5419 76.9063 10.418L74.0935 16.9162H80.8115C83.4254 16.9162 87.8802 19.4562 89.7997 21.2301C94.2143 25.3079 95.7289 30.6945 95.2072 36.6449H97.9118C101.006 36.6449 104.93 40.2665 106.057 43.0426C107.385 46.3119 107.347 55.4576 105.71 58.6089C103.668 62.537 99.5399 64.5328 95.2072 64.3003C95.017 68.0047 95.633 71.9909 94.8076 75.6108C93.2215 82.5599 86.6204 87.9976 79.5988 88.4415C72.8354 88.8678 65.6393 88.1033 58.8306 88.438C56.6739 90.5905 54.299 91.8975 51.1721 90.7015C44.161 88.0205 47.6473 76.8033 55.3861 79.2254C56.9199 79.7045 57.7784 80.6892 58.8254 81.7425L79.4138 81.739C85.0744 81.119 88.894 76.2414 88.7597 70.5641C88.2711 58.6652 89.3791 46.2802 88.7597 34.4377C88.4246 28.0382 84.8406 23.8582 78.3686 23.4372H28.4671C24.11 23.136 18.2575 28.0558 18.2575 32.5071V64.302H9.79455C5.83879 64.302 1.63351 60.6117 0.544672 56.9055C-0.142831 54.5663 -0.169005 46.8175 0.406823 44.4324C1.25486 40.9235 5.36766 36.6466 9.09658 36.6466H11.6267C10.9916 29.6394 13.7451 22.9264 19.7738 19.2413C21.1035 18.4275 24.5375 16.9179 26.0224 16.9179H32.7404V16.9144ZM83.4306 64.2985L83.6924 64.0343V60.159L83.4306 59.8948H23.3178V64.2985C27.2421 64.2562 31.1769 64.3513 35.103 64.3055C35.8516 64.2967 36.499 63.9127 37.3243 64.339C37.6035 64.4835 38.729 66.1745 39.1059 66.592C47.752 76.1304 62.4985 74.8393 69.644 64.3003H83.4289L83.4306 64.2985ZM69.2566 35.7183C64.8593 35.7183 61.2927 39.317 61.2927 43.7578C61.2927 48.1985 64.8576 51.7972 69.2566 51.7972C73.6555 51.7972 77.2204 48.1985 77.2204 43.7578C77.2204 39.317 73.6555 35.7183 69.2566 35.7183ZM69.2601 47.3565C67.2883 47.3565 65.6899 45.743 65.6899 43.7525C65.6899 41.762 67.2883 40.1485 69.2601 40.1485C71.2318 40.1485 72.8302 41.762 72.8302 43.7525C72.8302 45.743 71.2318 47.3565 69.2601 47.3565ZM37.6995 35.7218C33.3023 35.7218 29.7391 39.3206 29.7391 43.7578C29.7391 48.195 33.304 51.7937 37.6995 51.7937C42.095 51.7937 45.6599 48.195 45.6599 43.7578C45.6599 39.3206 42.095 35.7218 37.6995 35.7218ZM37.703 47.367C35.7295 47.367 34.1294 45.7518 34.1294 43.7595C34.1294 41.7673 35.7295 40.152 37.703 40.152C39.6765 40.152 41.2766 41.7673 41.2766 43.7595C41.2766 45.7518 39.6765 47.367 37.703 47.367Z" fill="#6B7280"/>
</g>
</svg>
