<svg width="96" height="96" viewBox="0 0 96 96" fill="none" xmlns="http://www.w3.org/2000/svg">
<g opacity="0.3">
<path d="M83.8886 44.9469C84.4866 45.5331 84.5081 46.9027 84.5781 47.7287C85.3 56.2821 85.5047 75.0729 84.4973 83.3971C83.7486 89.5897 78.2324 94.9029 71.9191 95.4678C53.1082 97.1625 31.7225 94.1515 12.6369 95.4465C5.93031 94.4233 1.08216 89.0301 0.500383 82.4059C-1.08873 64.2226 1.72319 43.7958 0.527317 25.3727C2.01408 16.4623 7.67026 12.8864 16.3916 12.2895C24.3425 11.7459 37.6426 11.6393 45.5236 12.2895C47.6352 12.4654 49.8277 12.6625 49.8277 15.2419C49.8277 17.5814 48.0284 17.9651 46.0353 18.1729C35.8111 19.2228 22.4625 16.7127 12.6746 18.2102C8.79611 18.8018 6.21043 22.7614 5.88183 26.4119C4.29272 44.2274 7.11542 64.3292 5.90338 82.3899C6.28585 85.694 8.68299 88.6304 11.8127 89.8668L71.3804 90.1439C75.8784 89.8455 78.728 86.0404 79.159 81.8517C80.3064 70.6017 78.3025 57.6091 79.1805 46.1673C79.3314 43.9876 82.682 43.7585 83.8832 44.9469H83.8886ZM63.047 0.895636C62.045 2.31854 60.7252 10.9732 59.497 13.9042C57.0191 19.8197 53.286 23.4382 47.3766 25.895C43.2719 27.6003 38.2944 27.8774 34.6906 29.3323C28.0487 32.0076 41.3111 33.9048 43.0779 34.4377C51.0397 36.8305 56.2865 40.124 59.5024 48.0325C61.1346 52.0507 61.3716 56.5699 62.7345 60.2844C63.0092 61.0358 63.3755 61.8991 64.3506 61.9044C65.2986 61.7978 65.7727 61.2276 66.1013 60.4069C67.0117 58.1527 67.2541 53.9586 68.1214 51.214C71.1541 41.6055 76.0131 37.3368 85.6393 34.4377C87.1315 33.99 99.1603 32.3433 95.2064 29.4868C89.3401 28.2931 82.515 27.1313 77.3813 23.9498C69.1502 18.8497 67.6204 8.77754 65.6596 0.106913C64.5553 -0.122243 63.7095 -0.0369756 63.047 0.900965V0.895636ZM37.3894 55.5094C35.9781 52.7648 36.2528 49.5833 34.1843 47.4996C31.4047 54.2997 31.7871 58.4671 23.9708 61.3662C22.7965 61.8032 17.9537 62.2721 18.2985 63.7377C23.5884 66.333 28.3611 65.6669 31.3185 71.6462C32.0619 73.1491 33.22 79.7786 34.7176 79.4642C35.3155 79.3416 36.6461 73.1864 37.2925 71.8807C39.7704 66.8819 44.764 65.2405 50.0108 64.4838L50.0754 62.4214C44.9149 62.2295 39.8135 60.2151 37.3894 55.5094ZM84.7775 10.1365C83.7324 11.7033 82.1379 12.6465 80.2471 12.8544C82.8705 14.7356 85.5208 15.3058 85.6393 19.2441C87.1315 18.2635 86.8406 16.5475 88.3004 15.2206C89.534 14.1014 90.94 14.16 92.0982 13.1155C89.0384 11.9911 86.7059 11.3515 86.7059 7.51984C85.106 7.1468 85.4885 9.0813 84.7775 10.1418V10.1365Z" fill="#6B7280"/>
</g>
</svg>
