<svg width="120" height="24" viewBox="0 0 120 24" fill="none" xmlns="http://www.w3.org/2000/svg">
<path d="M12 17.27L16.15 19.78C16.91 20.24 17.84 19.56 17.64 18.7L16.54 13.98L20.21 10.8C20.88 10.22 20.52 9.12001 19.64 9.05001L14.81 8.64001L12.92 4.18001C12.58 3.37001 11.42 3.37001 11.08 4.18001L9.19001 8.63001L4.36001 9.04001C3.48001 9.11001 3.12001 10.21 3.79001 10.79L7.46001 13.97L6.36001 18.69C6.16001 19.55 7.09001 20.23 7.85001 19.77L12 17.27Z" fill="#F3F4F6"/>
<path d="M36 17.27L40.15 19.78C40.91 20.24 41.84 19.56 41.64 18.7L40.54 13.98L44.21 10.8C44.88 10.22 44.52 9.12001 43.64 9.05001L38.81 8.64001L36.92 4.18001C36.58 3.37001 35.42 3.37001 35.08 4.18001L33.19 8.63001L28.36 9.04001C27.48 9.11001 27.12 10.21 27.79 10.79L31.46 13.97L30.36 18.69C30.16 19.55 31.09 20.23 31.85 19.77L36 17.27Z" fill="#F3F4F6"/>
<path d="M60 17.27L64.15 19.78C64.91 20.24 65.84 19.56 65.64 18.7L64.54 13.98L68.21 10.8C68.88 10.22 68.52 9.12001 67.64 9.05001L62.81 8.64001L60.92 4.18001C60.58 3.37001 59.42 3.37001 59.08 4.18001L57.19 8.63001L52.36 9.04001C51.48 9.11001 51.12 10.21 51.79 10.79L55.46 13.97L54.36 18.69C54.16 19.55 55.09 20.23 55.85 19.77L60 17.27Z" fill="#F3F4F6"/>
<path d="M84 17.27L88.15 19.78C88.91 20.24 89.84 19.56 89.64 18.7L88.54 13.98L92.21 10.8C92.88 10.22 92.52 9.12001 91.64 9.05001L86.81 8.64001L84.92 4.18001C84.58 3.37001 83.42 3.37001 83.08 4.18001L81.19 8.63001L76.36 9.04001C75.48 9.11001 75.12 10.21 75.79 10.79L79.46 13.97L78.36 18.69C78.16 19.55 79.09 20.23 79.85 19.77L84 17.27Z" fill="#F3F4F6"/>
<path d="M108 17.27L112.15 19.78C112.91 20.24 113.84 19.56 113.64 18.7L112.54 13.98L116.21 10.8C116.88 10.22 116.52 9.12001 115.64 9.05001L110.81 8.64001L108.92 4.18001C108.58 3.37001 107.42 3.37001 107.08 4.18001L105.19 8.63001L100.36 9.04001C99.48 9.11001 99.12 10.21 99.79 10.79L103.46 13.97L102.36 18.69C102.16 19.55 103.09 20.23 103.85 19.77L108 17.27Z" fill="#F3F4F6"/>
</svg>
