<svg width="31" height="30" viewBox="0 0 31 30" fill="none" xmlns="http://www.w3.org/2000/svg">
<path d="M22.7689 6.16343L21.1757 5.06953L21.1207 1.74136L20.941 1.61964L1.87539 1.6156C1.7488 1.6156 1.62721 1.72065 1.60419 1.84691L1.60069 25.079C1.57117 25.4027 1.73629 25.4825 2.0255 25.5087L20.9956 25.4592C21.0406 25.4466 21.1672 25.3587 21.1672 25.3294V23.0821L21.3178 23.1573L22.7214 24.4679C22.9946 25.6628 22.3471 26.9072 21.0861 27.0652L1.77632 27.0733C0.699018 26.9531 0.0775575 26.1941 0 25.129L0.00250186 1.9469C0.0845627 0.844921 0.724537 0.122218 1.82635 0L20.9916 0.00252517C21.7802 0.00252517 22.7689 0.892899 22.7689 1.69338V6.16292V6.16343ZM16.7159 5.25285C12.1485 5.25285 8.44526 8.9901 8.44526 13.6006C8.44526 18.211 12.148 21.9482 16.7159 21.9482C21.2838 21.9482 24.9865 18.211 24.9865 13.6006C24.9865 8.9901 21.2838 5.25285 16.7159 5.25285ZM16.7164 19.7175C13.3689 19.7175 10.6549 16.9782 10.6549 13.5995C10.6549 10.2209 13.3689 7.48157 16.7164 7.48157C20.0639 7.48157 22.7779 10.2209 22.7779 13.5995C22.7779 16.9782 20.0639 19.7175 16.7164 19.7175ZM4.63094 30H23.8437C25.3138 29.8758 25.8227 28.5612 25.595 27.2238L24.0699 25.7582V28.1571C24.0699 28.2182 23.8957 28.4223 23.7972 28.3869L4.60542 28.3591C4.4523 28.2415 4.44179 28.0612 4.4553 27.8794H2.90415C2.79057 28.9707 3.56214 29.8864 4.63144 29.9995L4.63094 30ZM21.9913 22.0735C23.6445 23.5487 25.1932 25.1411 26.8209 26.643C27.9452 27.6804 28.8539 28.5778 30.2254 27.1486C30.984 26.3582 31.3117 25.5128 30.6232 24.5224L24.8414 19.0433C24.7704 19.0241 24.7609 19.0887 24.7273 19.1246C24.4441 19.4281 24.1549 19.9554 23.8452 20.3044C23.3038 20.9144 22.6248 21.5185 21.9183 21.9205L21.9913 22.073V22.0735ZM25.621 4.52207C25.621 4.40995 25.3883 3.89078 25.3128 3.7726C24.9485 3.20444 24.236 2.88223 23.5695 2.93121V4.54732C23.8232 4.52308 24.0193 4.53419 24.0669 4.82812C24.1929 5.60638 23.9698 6.68008 24.0804 7.49116L24.979 8.80627L25.621 10.1027V4.52207ZM4.15508 5.30487V6.16343H10.6849L11.8608 5.30487H4.15508ZM4.15508 20.9104V21.769H11.5856C11.5971 21.769 11.6526 21.8649 11.6611 21.7937V21.7195L10.5348 20.9104H4.15508ZM4.15508 10.5572V11.4158H7.45753L7.65768 10.5572H4.15508ZM7.38248 15.7086H4.15508V16.5671H7.65768C7.51758 16.3 7.54109 15.954 7.38248 15.7086Z" fill="white" fill-opacity="0.8"/>
</svg>
