<svg width="53" height="53" viewBox="0 0 53 53" fill="none" xmlns="http://www.w3.org/2000/svg">
<path d="M41.4463 14.6995C42.8915 19.5668 42.8179 24.9382 40.8686 29.6559C40.1115 31.4878 38.9194 33.0504 38.0288 34.804C38.0679 35.0111 40.795 37.7405 40.9883 37.8256C42.0469 38.2951 43.0526 37.7842 44.5508 38.8658C45.5012 39.5516 50.7207 44.778 51.3029 45.6916C53.9655 49.8662 49.2386 54.363 45.1215 51.1826C43.9225 50.2574 39.5339 45.9102 38.6847 44.7319C37.6031 43.2315 38.114 42.2281 37.6445 41.1695C37.5593 40.9762 34.8138 38.2514 34.609 38.1984L34.0889 38.2859C23.8687 46.4671 7.74323 42.6101 2.32129 30.8135C3.16588 30.6409 3.91842 29.9804 4.82284 30.1461C10.1711 40.631 24.3059 43.2913 33.2788 35.6486C39.0115 30.7651 41.2069 22.9728 38.9378 15.7535C39.0046 15.4981 41.2668 14.5453 41.4417 14.6995H41.4463Z" fill="white"/>
<path d="M23.7283 38.1732H19.0106C16.0212 38.1732 10.8293 35.1309 8.88242 32.8825C7.54994 31.3429 7.29449 31.0437 7.97109 28.9725C10.1274 22.3677 19.961 21.7555 22.8538 28.1164C23.0149 28.4685 23.7306 30.4799 23.7306 30.6916V38.1709L23.7283 38.1732Z" fill="white"/>
<path d="M39.2414 10.235C39.5153 10.6516 40.4519 11.4801 40.0377 12.1405C39.941 12.2947 37.8629 13.022 37.5637 12.8332C37.4118 12.7366 36.1737 10.3639 35.6881 9.76096C27.9994 0.194316 13.3261 0.666089 6.14361 10.5779C2.50981 15.5948 2.02192 21.4494 3.47867 27.357C2.76525 27.0394 1.4696 28.4248 1.06227 27.8172C0.898871 27.571 0.358057 25.1661 0.282113 24.6851C-3.1952 2.32305 26.3769 -9.33781 39.2414 10.235Z" fill="white"/>
<path d="M25.3386 37.713V30.0036C25.3386 28.991 23.2029 25.6218 23.3663 25.2904C26.892 21.9742 32.7489 23.1456 34.491 27.7552C35.1008 29.3661 35.3954 30.6479 34.3069 32.0679C32.2656 34.7282 28.6203 37.0249 25.3386 37.713Z" fill="white"/>
<path d="M15.5933 21.3461C18.2332 21.3461 20.3732 19.2061 20.3732 16.5662C20.3732 13.9264 18.2332 11.7863 15.5933 11.7863C12.9535 11.7863 10.8135 13.9264 10.8135 16.5662C10.8135 19.2061 12.9535 21.3461 15.5933 21.3461Z" fill="white"/>
<path d="M28.1007 21.6336C30.2931 21.6336 32.0705 19.8563 32.0705 17.6638C32.0705 15.4713 30.2931 13.694 28.1007 13.694C25.9082 13.694 24.1309 15.4713 24.1309 17.6638C24.1309 19.8563 25.9082 21.6336 28.1007 21.6336Z" fill="white"/>
</svg>
