<svg width="103" height="100" viewBox="0 0 103 100" fill="none" xmlns="http://www.w3.org/2000/svg">
<g opacity="0.3">
<path d="M75.6515 20.4785L70.358 16.8439L70.1751 5.78579L69.5783 5.38139L6.23114 5.36797C5.81052 5.36797 5.40653 5.717 5.33005 6.1365L5.31841 83.3268C5.22032 84.4025 5.76896 84.6676 6.7299 84.7548L69.7595 84.5904C69.9091 84.5484 70.3297 84.2565 70.3297 84.1591V76.692L70.8302 76.942L75.4935 81.2964C76.4013 85.2666 74.25 89.4013 70.0604 89.9265L5.90196 89.9533C2.32255 89.554 0.257691 87.0319 0 83.493L0.00831262 6.46875C0.280966 2.80732 2.40733 0.40608 6.06821 0L69.7462 0.00839007C72.3663 0.00839007 75.6515 2.96673 75.6515 5.62638V20.4768V20.4785ZM55.5399 17.453C40.3644 17.453 28.0601 29.8703 28.0601 45.1889C28.0601 60.5075 40.3627 72.9248 55.5399 72.9248C70.7171 72.9248 83.0198 60.5075 83.0198 45.1889C83.0198 29.8703 70.7171 17.453 55.5399 17.453ZM55.5416 65.513C44.4193 65.513 35.4018 56.4115 35.4018 45.1856C35.4018 33.9597 44.4193 24.8581 55.5416 24.8581C66.6639 24.8581 75.6814 33.9597 75.6814 45.1856C75.6814 56.4115 66.6639 65.513 55.5416 65.513ZM15.3867 99.6774H79.2226C84.1071 99.2646 85.7979 94.8968 85.0414 90.4534L79.974 85.5838V93.5544C79.974 93.7574 79.3955 94.4353 79.068 94.3178L15.3019 94.2256C14.7931 93.8346 14.7582 93.2355 14.8031 92.6314H9.64929C9.27189 96.2576 11.8355 99.2999 15.3883 99.6757L15.3867 99.6774ZM73.0679 73.341C78.5609 78.2425 83.7064 83.5332 89.1146 88.5237C92.8503 91.9703 95.8694 94.9521 100.426 90.2033C102.947 87.5773 104.036 84.7683 101.748 81.4777L82.5376 63.2729C82.3016 63.2091 82.27 63.4239 82.1586 63.5431C81.2176 64.5515 80.2567 66.3034 79.2276 67.4629C77.4287 69.4899 75.1727 71.4968 72.8252 72.8325L73.0679 73.3393V73.341ZM85.1279 15.0249C85.1279 14.6524 84.3548 12.9274 84.1037 12.5348C82.8934 10.647 80.526 9.57643 78.3115 9.7392V15.1088C79.1544 15.0283 79.8061 15.0652 79.9641 16.0418C80.383 18.6276 79.6415 22.1951 80.0089 24.89L82.9948 29.2595L85.1279 33.567V15.0249ZM13.8056 17.6259V20.4785H35.5015L39.4085 17.6259H13.8056ZM13.8056 69.4765V72.3291H38.4941C38.5323 72.3291 38.7169 72.648 38.7451 72.4114V72.1647L35.0028 69.4765H13.8056ZM13.8056 35.0772V37.9298H24.7782L25.4433 35.0772H13.8056ZM24.5289 52.193H13.8056V55.0456H25.4433C24.9778 54.1579 25.0559 53.0085 24.5289 52.193Z" fill="#6B7280"/>
</g>
</svg>
