<svg width="18" height="18" viewBox="0 0 18 18" fill="none" xmlns="http://www.w3.org/2000/svg">
<path d="M14.4028 11.4375L12.4978 11.22C12.2738 11.1937 12.0467 11.2185 11.8337 11.2925C11.6206 11.3666 11.4272 11.4879 11.2678 11.6475L9.88776 13.0275C7.75865 11.9447 6.02809 10.2141 4.94526 8.085L6.33276 6.6975C6.65526 6.375 6.81276 5.925 6.76025 5.4675L6.54276 3.5775C6.50023 3.21163 6.32465 2.87418 6.04943 2.62939C5.77421 2.38459 5.41859 2.24956 5.05026 2.25H3.75276C2.90526 2.25 2.20026 2.955 2.25276 3.8025C2.65026 10.2075 7.77276 15.3225 14.1703 15.72C15.0178 15.7725 15.7228 15.0675 15.7228 14.22V12.9225C15.7303 12.165 15.1603 11.5275 14.4028 11.4375Z" fill="white"/>
</svg>
