<svg width="131" height="32" viewBox="0 0 131 32" fill="none" xmlns="http://www.w3.org/2000/svg">
<path d="M115.168 31.0829V8.74913H118.89V10.2132C119.469 9.63421 120.148 9.17927 120.925 8.8484C121.719 8.51753 122.588 8.35209 123.531 8.35209C124.573 8.35209 125.541 8.55888 126.434 8.97247C127.344 9.36952 128.138 9.932 128.816 10.6599C129.495 11.3713 130.024 12.2067 130.405 13.1663C130.802 14.1092 131 15.1184 131 16.1937C131 17.2691 130.802 18.2865 130.405 19.246C130.024 20.189 129.495 21.0244 128.816 21.7524C128.138 22.4637 127.344 23.0262 126.434 23.4398C125.541 23.8368 124.573 24.0354 123.531 24.0354C122.737 24.0354 122 23.9113 121.322 23.6631C120.644 23.4315 120.032 23.1089 119.486 22.6953V31.0829H115.168ZM123.034 20.2386C123.762 20.2386 124.424 20.0566 125.02 19.6927C125.615 19.3287 126.087 18.8407 126.434 18.2286C126.798 17.6165 126.98 16.9382 126.98 16.1937C126.98 15.4493 126.798 14.771 126.434 14.1589C126.087 13.5468 125.615 13.0587 125.02 12.6948C124.424 12.3308 123.762 12.1488 123.034 12.1488C122.307 12.1488 121.645 12.3308 121.049 12.6948C120.454 13.0587 119.974 13.5468 119.61 14.1589C119.263 14.771 119.089 15.4493 119.089 16.1937C119.089 16.9382 119.263 17.6165 119.61 18.2286C119.974 18.8407 120.454 19.3287 121.049 19.6927C121.645 20.0566 122.307 20.2386 123.034 20.2386Z" fill="white"/>
<path d="M105.751 24.1346C104.494 24.1346 103.344 23.9361 102.302 23.539C101.276 23.142 100.383 22.5878 99.6217 21.8764C98.8772 21.1485 98.2982 20.2882 97.8846 19.2956C97.4876 18.303 97.2891 17.2194 97.2891 16.0448C97.2891 14.9199 97.4876 13.8859 97.8846 12.9429C98.2817 11.9834 98.8359 11.1562 99.5473 10.4614C100.259 9.76654 101.086 9.22888 102.029 8.84838C102.972 8.45133 103.989 8.25281 105.081 8.25281C106.553 8.25281 107.869 8.59195 109.027 9.27023C110.185 9.93198 111.095 10.8419 111.756 11.9999C112.435 13.158 112.774 14.4732 112.774 15.9456V17.4593H103.691C103.278 17.4593 102.881 17.4345 102.5 17.3848C102.12 17.3352 101.739 17.2773 101.359 17.2111C101.491 17.8729 101.756 18.4602 102.153 18.973C102.55 19.4693 103.063 19.8581 103.691 20.1393C104.32 20.4206 105.04 20.5612 105.85 20.5612C106.793 20.5612 107.637 20.371 108.382 19.9904C109.143 19.6099 109.763 19.1385 110.243 18.576L111.186 22.4472C110.441 23.0096 109.597 23.4315 108.654 23.7127C107.728 23.994 106.76 24.1346 105.751 24.1346ZM101.26 14.6055C101.657 14.5228 102.054 14.4566 102.451 14.407C102.864 14.3574 103.278 14.3326 103.691 14.3326H106.322C106.785 14.3326 107.223 14.3491 107.637 14.3822C108.051 14.4153 108.439 14.4732 108.803 14.5559C108.638 13.9603 108.382 13.4475 108.034 13.0173C107.687 12.5872 107.257 12.2563 106.744 12.0247C106.247 11.7931 105.677 11.6773 105.031 11.6773C104.419 11.6773 103.857 11.8014 103.344 12.0495C102.848 12.2812 102.418 12.612 102.054 13.0422C101.706 13.4723 101.441 13.9934 101.26 14.6055Z" fill="white"/>
<path d="M89.3369 23.6383V12.1736H86.5576V8.74912H89.4114V3.78606H93.5804V8.74912H96.5334V12.1736H93.6548V23.6383H89.3369Z" fill="white"/>
<path d="M77.7101 24.1345C76.8002 24.1345 75.9151 24.0187 75.0549 23.7871C74.2112 23.5555 73.4336 23.2494 72.7222 22.8689C72.0274 22.4719 71.4319 22.0335 70.9355 21.5537L72.1515 16.5907C72.5485 17.269 73.0531 17.8728 73.6652 18.4022C74.2773 18.9316 74.9474 19.3534 75.6753 19.6678C76.4032 19.9656 77.1311 20.1144 77.859 20.1144C78.4711 20.1144 78.9922 20.0069 79.4224 19.7919C79.8525 19.5602 80.1834 19.2542 80.415 18.8737C80.6631 18.4766 80.7872 18.0382 80.7872 17.5585C80.7872 16.9795 80.6466 16.4997 80.3654 16.1192C80.1007 15.7387 79.7781 15.4244 79.3976 15.1762C79.0336 14.9281 78.711 14.7378 78.4298 14.6055L75.7993 13.2902C75.0383 12.9097 74.3104 12.4631 73.6156 11.9502C72.9208 11.4208 72.35 10.7674 71.9033 9.98981C71.4732 9.21226 71.2581 8.25273 71.2581 7.11123C71.2581 6.16825 71.4153 5.31626 71.7296 4.55525C72.0605 3.77771 72.532 3.11597 73.1441 2.57003C73.7562 2.00755 74.4841 1.57742 75.3279 1.27963C76.1881 0.965308 77.1476 0.808144 78.2064 0.808144C79.5299 0.808144 80.7045 1.02321 81.7302 1.45334C82.7724 1.86693 83.6162 2.31361 84.2614 2.79337L83.1199 7.63235C82.6732 7.05333 82.1686 6.55702 81.6061 6.14343C81.0436 5.7133 80.4564 5.38243 79.8442 5.15082C79.2321 4.90267 78.62 4.77859 78.0079 4.77859C77.462 4.77859 76.9988 4.87785 76.6183 5.07638C76.2543 5.25835 75.973 5.51478 75.7745 5.84565C75.576 6.15998 75.4767 6.52394 75.4767 6.93752C75.4767 7.31803 75.5595 7.65717 75.7249 7.95495C75.9069 8.25274 76.1633 8.51743 76.4942 8.74904C76.825 8.98065 77.2138 9.21226 77.6605 9.44387L80.3157 10.7591C80.7624 10.9741 81.2504 11.2554 81.7798 11.6028C82.3092 11.9337 82.8221 12.3555 83.3184 12.8684C83.8147 13.3812 84.22 14.0016 84.5343 14.7295C84.8487 15.4409 85.0058 16.2929 85.0058 17.2855C85.0058 18.5759 84.708 19.7422 84.1125 20.7845C83.5169 21.8102 82.6732 22.6291 81.5813 23.2412C80.506 23.8367 79.2156 24.1345 77.7101 24.1345Z" fill="white"/>
<path d="M61.8037 23.6383V12.1736H59.0244V8.74912H61.8782V3.78606H66.0471V8.74912H69.0002V12.1736H66.1216V23.6383H61.8037Z" fill="white"/>
<path d="M37.709 23.6383L45.228 10.8088L39.4957 1.30457H44.558L46.5184 4.45612C46.8162 4.91934 47.114 5.43219 47.4118 5.99467C47.7096 6.5406 48.0404 7.1858 48.4044 7.93026C48.7518 7.16926 49.0744 6.51579 49.3722 5.96985C49.67 5.42391 49.9677 4.91106 50.2655 4.4313L52.2259 1.30457H57.0897L51.407 10.6848L59.0005 23.6383H53.8389L49.9429 16.9382C49.6782 16.475 49.4135 15.9952 49.1488 15.4989C48.8841 15.0026 48.5946 14.465 48.2803 13.8859C47.966 14.465 47.6765 15.0026 47.4118 15.4989C47.1636 15.9952 46.8989 16.475 46.6177 16.9382L42.7217 23.6383H37.709Z" fill="white"/>
<path d="M29.7814 24.1346C28.524 24.1346 27.3743 23.9361 26.332 23.539C25.3063 23.142 24.413 22.5878 23.652 21.8764C22.9075 21.1485 22.3285 20.2882 21.9149 19.2956C21.5179 18.303 21.3193 17.2194 21.3193 16.0448C21.3193 14.9199 21.5179 13.8859 21.9149 12.9429C22.3119 11.9834 22.8662 11.1562 23.5775 10.4614C24.2889 9.76654 25.1161 9.22888 26.0591 8.84838C27.002 8.45133 28.0195 8.25281 29.1113 8.25281C30.5837 8.25281 31.8989 8.59195 33.057 9.27023C34.215 9.93198 35.1249 10.8419 35.7867 11.9999C36.4649 13.158 36.8041 14.4732 36.8041 15.9456V17.4593H27.7217C27.3081 17.4593 26.9111 17.4345 26.5306 17.3848C26.15 17.3352 25.7695 17.2773 25.389 17.2111C25.5214 17.8729 25.7861 18.4602 26.1831 18.973C26.5802 19.4693 27.093 19.8581 27.7217 20.1393C28.3503 20.4206 29.07 20.5612 29.8806 20.5612C30.8236 20.5612 31.6673 20.371 32.4118 19.9904C33.1728 19.6099 33.7932 19.1385 34.2729 18.576L35.2159 22.4472C34.4714 23.0096 33.6277 23.4315 32.6847 23.7127C31.7583 23.994 30.7905 24.1346 29.7814 24.1346ZM25.2898 14.6055C25.6868 14.5228 26.0839 14.4566 26.4809 14.407C26.8945 14.3574 27.3081 14.3326 27.7217 14.3326H30.3521C30.8153 14.3326 31.2537 14.3491 31.6673 14.3822C32.0809 14.4153 32.4697 14.4732 32.8336 14.5559C32.6682 13.9603 32.4118 13.4475 32.0644 13.0173C31.7169 12.5872 31.2868 12.2563 30.774 12.0247C30.2777 11.7931 29.7069 11.6773 29.0617 11.6773C28.4496 11.6773 27.8871 11.8014 27.3743 12.0495C26.878 12.2812 26.4478 12.612 26.0839 13.0422C25.7365 13.4723 25.4718 13.9934 25.2898 14.6055Z" fill="white"/>
<path d="M17.9942 24.3829L4.64358 11.0074V23.6384H0.474609V0.560196H0.52424L13.8749 13.9108V1.30466H18.0438V24.3829H17.9942Z" fill="white"/>
</svg>
