<svg width="213" height="65" viewBox="0 0 213 65" fill="none" xmlns="http://www.w3.org/2000/svg">
<path d="M6.00528 47.832H9.56121C12.1562 47.832 14.1428 47.1576 15.5212 45.8056C16.8996 44.4536 17.5887 42.5505 17.5887 40.0929C17.5887 37.6354 16.8996 35.7322 15.5212 34.3802C14.1428 33.0283 12.1562 32.3539 9.56121 32.3539H0V55.5061H6.00528V47.8287V47.832ZM6.00528 37.2074H7.99841C10.2051 37.2074 11.3084 38.1703 11.3084 40.0929C11.3084 42.0155 10.2051 42.9785 7.99841 42.9785H6.00528V37.2042V37.2074Z" fill="white"/>
<path d="M32.0228 41.3217C30.735 39.9503 29.1107 39.2629 27.15 39.2629C25.9851 39.2629 24.9239 39.4834 23.9629 39.9243C23.0019 40.3653 22.1736 40.9651 21.4812 41.7205C20.7855 42.4792 20.2452 43.3643 19.8569 44.3758C19.4686 45.3874 19.2745 46.4605 19.2745 47.5856C19.2745 48.7949 19.4751 49.9102 19.8731 50.9315C20.2711 51.956 20.8276 52.8476 21.5427 53.603C22.2577 54.3617 23.0957 54.9485 24.0567 55.37C25.0177 55.7882 26.0693 55.999 27.2147 55.999C29.2369 55.999 30.8418 55.2533 32.026 53.7586V55.5094H37.6042V39.7557H32.026V41.3217H32.0228ZM31.916 49.0283C31.7219 49.4595 31.4663 49.8389 31.1492 50.1631C30.8321 50.4905 30.4535 50.7467 30.0167 50.9315C29.5767 51.1163 29.114 51.2071 28.6222 51.2071C28.1303 51.2071 27.6353 51.1163 27.1985 50.9315C26.7584 50.7467 26.3799 50.4905 26.066 50.1631C25.7489 49.8356 25.4998 49.453 25.3154 49.0121C25.1309 48.5712 25.0403 48.0946 25.0403 47.5856C25.0403 47.0765 25.1309 46.6389 25.3154 46.2174C25.4998 45.7991 25.7489 45.423 26.066 45.0956C26.3831 44.7681 26.7617 44.512 27.1985 44.3272C27.6385 44.1424 28.1142 44.0516 28.6222 44.0516C29.1301 44.0516 29.5767 44.1424 30.0167 44.3272C30.4567 44.512 30.8321 44.7681 31.1492 45.0956C31.4663 45.423 31.7219 45.8056 31.916 46.2465C32.1101 46.6875 32.2072 47.1511 32.2072 47.6439C32.2072 48.1367 32.1101 48.5971 31.916 49.0251V49.0283Z" fill="white"/>
<path d="M47.5601 55.5094V44.392H50.7181V39.7557H47.5601V35.0254H42.0143V39.7557H40.1765V44.392H42.0143V55.5094H47.5601Z" fill="white"/>
<path d="M64.3529 45.6208C64.4759 46.1136 64.5373 46.7556 64.5373 47.5564V55.5094H70.0832V45.4976C70.0832 43.6334 69.5784 42.1549 68.5657 41.0591C67.5529 39.9632 66.0581 39.4153 64.0746 39.4153C63.0328 39.4153 62.1236 39.5742 61.347 39.8919C60.5705 40.2097 59.8037 40.8289 59.0498 41.7497V30.0195H53.5039V55.5062H59.0498V47.0927C59.0498 46.0488 59.2989 45.2447 59.8004 44.6806C60.3019 44.1165 61.0202 43.8376 61.9618 43.8376C62.6575 43.8376 63.2496 44.0516 63.7382 44.4828C64.0229 44.7487 64.23 45.128 64.3497 45.6176L64.3529 45.6208Z" fill="white"/>
<path d="M100.501 43.7922C101.349 42.6964 101.773 41.2698 101.773 39.5093C101.773 38.527 101.614 37.6062 101.297 36.747C100.98 35.8879 100.511 35.1292 99.8863 34.4743C99.2618 33.8194 98.4723 33.3039 97.5114 32.9245C96.5504 32.5452 95.4277 32.3571 94.1399 32.3571H84.7922V55.5094H90.7975V46.6032L96.5277 55.5094H104.005L96.7413 46.0196C98.3947 45.6305 99.6469 44.8881 100.495 43.7922H100.501ZM94.6608 41.9669C94.0266 42.4597 93.1174 42.7029 91.9332 42.7029H90.8007V36.9902H91.9332C93.1174 36.9902 94.0266 37.2366 94.6608 37.7262C95.295 38.219 95.6121 38.9225 95.6121 39.8465C95.6121 40.7705 95.295 41.4741 94.6608 41.9669Z" fill="white"/>
<path d="M123.804 47.6472C123.804 46.3989 123.568 45.2577 123.099 44.2234C122.629 43.1892 121.969 42.3008 121.122 41.5519C120.274 40.8062 119.274 40.2226 118.119 39.8011C116.964 39.3829 115.712 39.1722 114.366 39.1722C113.02 39.1722 111.735 39.3861 110.58 39.8173C109.425 40.2486 108.432 40.8354 107.594 41.5843C106.756 42.3333 106.102 43.2119 105.633 44.2267C105.164 45.2415 104.927 46.3308 104.927 47.498C104.927 48.7884 105.164 49.9588 105.633 51.0158C106.102 52.0695 106.752 52.9773 107.577 53.7327C108.406 54.4914 109.389 55.0749 110.535 55.4835C111.68 55.892 112.926 56.0962 114.272 56.0962C115.618 56.0962 116.912 55.892 118.087 55.4835C119.261 55.0749 120.267 54.4946 121.105 53.7489C121.943 53.0032 122.6 52.1116 123.082 51.0774C123.561 50.0431 123.801 48.9019 123.801 47.6536L123.804 47.6472ZM117.659 49.0154C117.465 49.4563 117.21 49.8389 116.893 50.1663C116.576 50.4938 116.197 50.7499 115.76 50.9347C115.32 51.1195 114.857 51.2103 114.366 51.2103C113.874 51.2103 113.411 51.1195 112.971 50.9347C112.531 50.7499 112.152 50.4938 111.839 50.1663C111.522 49.8389 111.266 49.4563 111.072 49.0154C110.878 48.5744 110.781 48.0881 110.781 47.5564C110.781 47.0668 110.878 46.6032 111.072 46.1752C111.266 45.744 111.522 45.3679 111.839 45.0405C112.156 44.713 112.531 44.4569 112.971 44.2721C113.411 44.0873 113.874 43.9965 114.366 43.9965C114.857 43.9965 115.32 44.0873 115.76 44.2721C116.2 44.4569 116.576 44.713 116.893 45.0405C117.21 45.3679 117.465 45.7505 117.659 46.1914C117.854 46.6324 117.951 47.096 117.951 47.5888C117.951 48.0816 117.854 48.5777 117.659 49.0154Z" fill="white"/>
<path d="M134.96 55.999C136.187 55.999 137.484 55.7007 138.853 55.1074V50.3771C137.953 51.0936 136.983 51.4535 135.941 51.4535C135.41 51.4535 134.908 51.3627 134.439 51.1779C133.97 50.9931 133.566 50.7337 133.229 50.3933C132.893 50.0561 132.627 49.6573 132.433 49.1969C132.239 48.7365 132.142 48.2308 132.142 47.6763C132.142 47.1219 132.239 46.587 132.433 46.1266C132.627 45.6662 132.899 45.2674 133.245 44.9302C133.592 44.593 133.996 44.3304 134.456 44.1456C134.915 43.9608 135.41 43.8701 135.941 43.8701C136.921 43.8701 137.892 44.1975 138.853 44.8524V40.1221C137.707 39.5483 136.462 39.2629 135.116 39.2629C133.889 39.2629 132.741 39.4737 131.67 39.8919C130.595 40.3102 129.673 40.8937 128.897 41.6427C128.12 42.3916 127.509 43.28 127.059 44.3142C126.609 45.3485 126.386 46.4897 126.386 47.7379C126.386 48.9862 126.622 50.1177 127.091 51.1325C127.56 52.1473 128.188 53.0162 128.974 53.7424C129.761 54.4687 130.67 55.0263 131.702 55.4154C132.734 55.8044 133.821 55.999 134.967 55.999H134.96Z" fill="white"/>
<path d="M161.745 39.7557H154.144L148.32 45.436V30.0228H142.774V55.5094H148.32V49.0899L154.419 55.5094H162.204L153.869 47.0344L161.745 39.7557Z" fill="white"/>
<path d="M177.618 41.5065C176.884 40.7478 175.984 40.1707 174.92 39.772C173.859 39.3732 172.662 39.1722 171.335 39.1722C170.008 39.1722 168.776 39.3732 167.705 39.772C166.634 40.1707 165.718 40.7381 164.961 41.4773C164.204 42.2133 163.621 43.1114 163.214 44.1651C162.806 45.2188 162.602 46.4022 162.602 47.712C162.602 49.0218 162.816 50.1274 163.246 51.1519C163.676 52.1765 164.285 53.0551 165.071 53.7943C165.857 54.5303 166.802 55.1009 167.905 55.4997C169.008 55.8985 170.225 56.0995 171.552 56.0995C175.881 56.0995 178.589 54.2968 179.673 50.6948H174.308C173.697 51.6772 172.788 52.17 171.581 52.17C169.332 52.17 168.209 50.9736 168.209 48.5777H179.887V47.9941C179.887 46.6226 179.692 45.3906 179.304 44.2948C178.916 43.1989 178.353 42.2749 177.618 41.5162V41.5065ZM168.365 45.3452C168.507 44.5282 168.85 43.8927 169.39 43.4421C169.931 42.9914 170.633 42.7677 171.49 42.7677C172.348 42.7677 173.001 43.0044 173.574 43.4745C174.147 43.9446 174.525 44.5704 174.71 45.3485H168.365V45.3452Z" fill="white"/>
<path d="M189.448 35.0254H183.899V39.7557H182.061V44.392H183.899V55.5094H189.448V44.392H192.603V39.7557H189.448V35.0254Z" fill="white"/>
<path d="M188.167 28.3433C188.642 28.5638 190.509 29.3711 190.904 29.3581C191.302 29.3452 191.519 29.0015 191.383 28.6254C191.273 28.3174 190.05 27.134 189.733 26.7223C188.934 25.6815 187.61 23.8303 188.002 22.4653C188.063 22.2449 188.529 21.564 188.707 21.5121C188.904 21.4538 189.183 21.658 189.39 21.6613C189.865 21.671 190.373 20.5589 190.781 20.2704L196.366 22.822C196.647 22.7668 196.822 22.4815 196.767 22.2027L193.192 17.3265C193.483 16.7591 194.272 16.3571 194.175 15.673C194.13 15.3455 193.907 15.2775 194.081 14.8884C194.738 13.4229 197.049 14.0908 198.178 14.5318C198.915 14.8203 201.099 16.2339 201.488 16.2922C202.853 16.4965 201.455 14.4539 201.19 14.039C198.657 10.0965 193.36 5.41805 188.387 7.67784C184.397 3.69323 179.288 0.473763 173.529 0.0684937C172.71 0.0101348 170.352 -0.0903721 169.698 0.172243C169.106 0.412162 169.633 2.47093 169.763 3.07397C171.05 9.10114 175.321 14.1265 180.395 17.3686C179.188 22.4102 184.096 26.4629 188.167 28.3433ZM188.794 27.2151C188.649 27.3902 185.756 25.6815 185.436 25.4578C183.216 23.9081 180.757 21.2203 181.411 18.2927L187.675 21.1328C187.484 21.564 187.131 21.7099 186.995 22.2351C186.504 24.1577 187.905 25.6913 188.791 27.2151H188.794ZM194.411 20.7891L190.707 19.0189C188.432 17.6864 185.52 16.1399 185.206 13.2187C188.199 12.9593 190.296 15.6146 192.072 17.641L194.411 20.7891ZM199.744 14.133C198.527 13.7277 197.382 12.9172 196.046 12.9366C194.868 12.9528 194.166 13.4327 193.376 14.24L189.425 8.50135C193.777 7.14288 197.505 10.8487 199.741 14.133H199.744ZM172.367 7.12343C171.95 6.86406 170.879 3.24257 170.756 2.58117L170.614 1.1611C172.464 1.1222 174.82 1.08329 176.593 1.67336C176.697 1.70903 176.978 1.78359 176.933 1.9068L172.691 7.02941C172.571 7.1364 172.565 7.24987 172.367 7.12667V7.12343ZM173.053 8.58564L173.121 8.21279L178.123 2.11105C182.582 3.73537 186.513 6.83812 189.523 10.4823C190.483 11.6462 191.648 13.2025 192.386 14.5091C192.833 15.3034 193.373 15.8189 192.496 16.5419C190.467 14.214 187.507 11.0724 184.106 12.3174C183.55 15.887 187.212 18.2019 189.878 19.7387L189.296 20.4552C189.215 20.5362 189.137 20.5006 189.044 20.4876C188.516 20.413 186.329 19.4696 185.704 19.194C180.625 16.9504 176.053 13.2965 173.053 8.58564Z" fill="white"/>
<path d="M200.261 23.4088L195.88 19.8619C196.68 21.6677 198.443 22.6501 199.857 23.9016L200.261 23.4088Z" fill="white"/>
<path d="M195.618 23.1494C195.023 22.7831 194.052 22.4426 193.376 22.1995L197.479 25.5194C197.757 25.6264 198.087 25.2665 197.822 24.9521C197.566 24.6505 195.987 23.3796 195.618 23.1527V23.1494Z" fill="white"/>
<path d="M197.272 22.7301L196.856 23.2395L200.125 25.9182L200.541 25.4088L197.272 22.7301Z" fill="white"/>
<path d="M201.378 24.148L200.792 23.9567L200.504 24.4106L200.989 24.8321L201.378 24.148Z" fill="white"/>
<path d="M198.527 25.5353L198.112 26.0458L198.69 26.5165L199.104 26.006L198.527 25.5353Z" fill="white"/>
<path d="M201.024 25.8048L200.61 26.3152L201.187 26.7859L201.602 26.2755L201.024 25.8048Z" fill="white"/>
<path d="M179.809 6.44582C178.405 6.58523 177.379 7.8367 177.515 9.2438C177.651 10.6509 178.903 11.6787 180.307 11.5425C181.712 11.4063 182.737 10.1516 182.602 8.74451C182.462 7.33741 181.213 6.30965 179.809 6.44582ZM180.207 10.505C179.369 10.5861 178.625 9.97329 178.544 9.13681C178.463 8.29709 179.075 7.55139 179.91 7.47034C180.744 7.38929 181.492 8.00205 181.573 8.83853C181.653 9.67825 181.042 10.4239 180.207 10.505Z" fill="white"/>
<path d="M103.245 64.367H101.155C100.98 64.367 100.841 64.5064 100.841 64.6815C100.841 64.8565 100.98 64.9959 101.155 64.9959H103.245C103.42 64.9959 103.559 64.8565 103.559 64.6815C103.559 64.5064 103.42 64.367 103.245 64.367Z" fill="white"/>
<path d="M65.6086 64.367H63.5184C63.3437 64.367 63.2045 64.5064 63.2045 64.6815C63.2045 64.8565 63.3437 64.9959 63.5184 64.9959H65.6086C65.7833 64.9959 65.9224 64.8565 65.9224 64.6815C65.9224 64.5064 65.7833 64.367 65.6086 64.367Z" fill="white"/>
<path d="M69.789 64.367H67.6988C67.5241 64.367 67.3849 64.5064 67.3849 64.6815C67.3849 64.8565 67.5241 64.9959 67.6988 64.9959H69.789C69.9637 64.9959 70.1028 64.8565 70.1028 64.6815C70.1028 64.5064 69.9637 64.367 69.789 64.367Z" fill="white"/>
<path d="M78.153 64.367H76.0628C75.8881 64.367 75.749 64.5064 75.749 64.6815C75.749 64.8565 75.8881 64.9959 76.0628 64.9959H78.153C78.3278 64.9959 78.4669 64.8565 78.4669 64.6815C78.4669 64.5064 78.3278 64.367 78.153 64.367Z" fill="white"/>
<path d="M99.0615 64.367H96.9713C96.7966 64.367 96.6574 64.5064 96.6574 64.6815C96.6574 64.8565 96.7966 64.9959 96.9713 64.9959H99.0615C99.2362 64.9959 99.3753 64.8565 99.3753 64.6815C99.3753 64.5064 99.2362 64.367 99.0615 64.367Z" fill="white"/>
<path d="M86.5171 64.367H84.4268C84.2521 64.367 84.113 64.5064 84.113 64.6815C84.113 64.8565 84.2521 64.9959 84.4268 64.9959H86.5171C86.6918 64.9959 86.8309 64.8565 86.8309 64.6815C86.8309 64.5064 86.6918 64.367 86.5171 64.367Z" fill="white"/>
<path d="M82.3334 64.367H80.2432C80.0685 64.367 79.9294 64.5064 79.9294 64.6815C79.9294 64.8565 80.0685 64.9959 80.2432 64.9959H82.3334C82.5082 64.9959 82.6473 64.8565 82.6473 64.6815C82.6473 64.5064 82.5082 64.367 82.3334 64.367Z" fill="white"/>
<path d="M73.9694 64.367H71.8792C71.7045 64.367 71.5653 64.5064 71.5653 64.6815C71.5653 64.8565 71.7045 64.9959 71.8792 64.9959H73.9694C74.1441 64.9959 74.2832 64.8565 74.2832 64.6815C74.2832 64.5064 74.1441 64.367 73.9694 64.367Z" fill="white"/>
<path d="M90.6975 64.367H88.6073C88.4325 64.367 88.2934 64.5064 88.2934 64.6815C88.2934 64.8565 88.4325 64.9959 88.6073 64.9959H90.6975C90.8722 64.9959 91.0113 64.8565 91.0113 64.6815C91.0113 64.5064 90.8722 64.367 90.6975 64.367Z" fill="white"/>
<path d="M61.4249 64.367H59.3348C59.16 64.367 59.0209 64.5064 59.0209 64.6815C59.0209 64.8565 59.16 64.9959 59.3348 64.9959H61.4249C61.5997 64.9959 61.7388 64.8565 61.7388 64.6815C61.7388 64.5064 61.5997 64.367 61.4249 64.367Z" fill="white"/>
<path d="M94.8811 64.367H92.7909C92.6162 64.367 92.4771 64.5064 92.4771 64.6815C92.4771 64.8565 92.6162 64.9959 92.7909 64.9959H94.8811C95.0558 64.9959 95.195 64.8565 95.195 64.6815C95.195 64.5064 95.0558 64.367 94.8811 64.367Z" fill="white"/>
<path d="M32.1524 64.367H30.0622C29.8875 64.367 29.7484 64.5064 29.7484 64.6815C29.7484 64.8565 29.8875 64.9959 30.0622 64.9959H32.1524C32.3272 64.9959 32.4663 64.8565 32.4663 64.6815C32.4663 64.5064 32.3272 64.367 32.1524 64.367Z" fill="white"/>
<path d="M11.244 64.367H9.15378C8.97906 64.367 8.83993 64.5064 8.83993 64.6815C8.83993 64.8565 8.97906 64.9959 9.15378 64.9959H11.244C11.4187 64.9959 11.5578 64.8565 11.5578 64.6815C11.5578 64.5064 11.4187 64.367 11.244 64.367Z" fill="white"/>
<path d="M2.87995 64.367H0.78651C0.611787 64.367 0.472656 64.5064 0.472656 64.6815C0.472656 64.8565 0.611787 64.9959 0.78651 64.9959H2.87671C3.05143 64.9959 3.19056 64.8565 3.19056 64.6815C3.19056 64.5064 3.05143 64.367 2.87671 64.367H2.87995Z" fill="white"/>
<path d="M57.2446 64.367H55.1544C54.9796 64.367 54.8405 64.5064 54.8405 64.6815C54.8405 64.8565 54.9796 64.9959 55.1544 64.9959H57.2446C57.4193 64.9959 57.5584 64.8565 57.5584 64.6815C57.5584 64.5064 57.4193 64.367 57.2446 64.367Z" fill="white"/>
<path d="M15.4244 64.367H13.3342C13.1595 64.367 13.0203 64.5064 13.0203 64.6815C13.0203 64.8565 13.1595 64.9959 13.3342 64.9959H15.4244C15.5991 64.9959 15.7382 64.8565 15.7382 64.6815C15.7382 64.5064 15.5991 64.367 15.4244 64.367Z" fill="white"/>
<path d="M207.758 30.9857C207.82 31.07 207.917 31.1186 208.014 31.1186C208.075 31.1186 208.14 31.0992 208.195 31.0603C208.338 30.9598 208.37 30.762 208.266 30.6226C207.852 30.0422 207.36 29.504 206.81 29.0242C206.681 28.9107 206.484 28.9237 206.367 29.0566C206.254 29.1863 206.267 29.3873 206.399 29.5008C206.914 29.9482 207.37 30.4475 207.755 30.9889L207.758 30.9857Z" fill="white"/>
<path d="M202.882 27.5231C203.546 27.75 204.17 28.0256 204.743 28.3433C204.791 28.3693 204.843 28.3823 204.895 28.3823C205.005 28.3823 205.112 28.3239 205.17 28.2201C205.254 28.0678 205.199 27.8765 205.047 27.7922C204.442 27.4582 203.785 27.1664 203.086 26.9265C202.924 26.8714 202.743 26.959 202.688 27.1211C202.633 27.2864 202.717 27.4647 202.882 27.5198V27.5231Z" fill="white"/>
<path d="M209.26 34.7012C209.286 34.8568 209.418 34.9671 209.57 34.9671C209.586 34.9671 209.603 34.9671 209.619 34.9638C209.79 34.9379 209.907 34.7758 209.881 34.604C209.768 33.8842 209.574 33.1806 209.308 32.5192C209.244 32.3571 209.059 32.2793 208.901 32.3442C208.739 32.409 208.661 32.5906 208.726 32.7527C208.975 33.3719 209.153 34.0269 209.26 34.7012Z" fill="white"/>
<path d="M19.6048 64.367H17.5146C17.3399 64.367 17.2007 64.5064 17.2007 64.6815C17.2007 64.8565 17.3399 64.9959 17.5146 64.9959H19.6048C19.7795 64.9959 19.9186 64.8565 19.9186 64.6815C19.9186 64.5064 19.7795 64.367 19.6048 64.367Z" fill="white"/>
<path d="M7.06035 64.367H4.97015C4.79542 64.367 4.65629 64.5064 4.65629 64.6815C4.65629 64.8565 4.79542 64.9959 4.97015 64.9959H7.06035C7.23507 64.9959 7.3742 64.8565 7.3742 64.6815C7.3742 64.5064 7.23507 64.367 7.06035 64.367Z" fill="white"/>
<path d="M44.6969 64.367H42.6067C42.432 64.367 42.2928 64.5064 42.2928 64.6815C42.2928 64.8565 42.432 64.9959 42.6067 64.9959H44.6969C44.8716 64.9959 45.0107 64.8565 45.0107 64.6815C45.0107 64.5064 44.8716 64.367 44.6969 64.367Z" fill="white"/>
<path d="M48.8805 64.367H46.7903C46.6156 64.367 46.4765 64.5064 46.4765 64.6815C46.4765 64.8565 46.6156 64.9959 46.7903 64.9959H48.8805C49.0553 64.9959 49.1944 64.8565 49.1944 64.6815C49.1944 64.5064 49.0553 64.367 48.8805 64.367Z" fill="white"/>
<path d="M53.0609 64.367H50.9707C50.796 64.367 50.6569 64.5064 50.6569 64.6815C50.6569 64.8565 50.796 64.9959 50.9707 64.9959H53.0609C53.2356 64.9959 53.3748 64.8565 53.3748 64.6815C53.3748 64.5064 53.2356 64.367 53.0609 64.367Z" fill="white"/>
<path d="M23.7884 64.367H21.6982C21.5235 64.367 21.3844 64.5064 21.3844 64.6815C21.3844 64.8565 21.5235 64.9959 21.6982 64.9959H23.7884C23.9631 64.9959 24.1023 64.8565 24.1023 64.6815C24.1023 64.5064 23.9631 64.367 23.7884 64.367Z" fill="white"/>
<path d="M40.5165 64.367H38.4263C38.2516 64.367 38.1124 64.5064 38.1124 64.6815C38.1124 64.8565 38.2516 64.9959 38.4263 64.9959H40.5165C40.6912 64.9959 40.8303 64.8565 40.8303 64.6815C40.8303 64.5064 40.6912 64.367 40.5165 64.367Z" fill="white"/>
<path d="M27.9688 64.367H25.8786C25.7039 64.367 25.5648 64.5064 25.5648 64.6815C25.5648 64.8565 25.7039 64.9959 25.8786 64.9959H27.9688C28.1435 64.9959 28.2827 64.8565 28.2827 64.6815C28.2827 64.5064 28.1435 64.367 27.9688 64.367Z" fill="white"/>
<path d="M36.3329 64.367H34.2427C34.0679 64.367 33.9288 64.5064 33.9288 64.6815C33.9288 64.8565 34.0679 64.9959 34.2427 64.9959H36.3329C36.5076 64.9959 36.6467 64.8565 36.6467 64.6815C36.6467 64.5064 36.5076 64.367 36.3329 64.367Z" fill="white"/>
<path d="M203.038 46.9793C202.504 47.5823 202.07 48.127 201.708 48.6393C201.608 48.7819 201.64 48.9764 201.782 49.0769C201.837 49.1159 201.902 49.1353 201.963 49.1353C202.06 49.1353 202.158 49.0899 202.219 49.0024C202.568 48.5096 202.989 47.9843 203.507 47.3975C203.62 47.2678 203.61 47.0701 203.481 46.9533C203.352 46.8399 203.154 46.8496 203.038 46.9793Z" fill="white"/>
<path d="M202.077 53.402C201.921 53.3242 201.734 53.389 201.656 53.5414C201.384 54.0893 201.116 54.7086 200.818 55.4932C200.802 55.5321 200.795 55.571 200.799 55.6099C200.727 55.3051 200.672 54.9939 200.634 54.6761C200.614 54.5043 200.456 54.3844 200.287 54.4006C200.116 54.42 199.993 54.5756 200.012 54.7475C200.1 55.4899 200.274 56.1967 200.533 56.8549C200.582 56.9781 200.701 57.0526 200.824 57.0526C200.863 57.0526 200.902 57.0462 200.941 57.03C201.103 56.9651 201.18 56.7835 201.116 56.6214C201.002 56.3394 200.909 56.0443 200.831 55.7428C200.863 55.8109 200.925 55.866 200.999 55.8952C201.161 55.9568 201.342 55.8757 201.404 55.7136C201.695 54.9485 201.954 54.3454 202.216 53.817C202.293 53.6614 202.232 53.4733 202.077 53.3955V53.402Z" fill="white"/>
<path d="M200.494 57.2796C200.333 57.218 200.151 57.2991 200.09 57.4612C199.792 58.2393 199.543 58.8261 199.278 59.3578C199.2 59.5134 199.262 59.7015 199.417 59.7793C199.462 59.802 199.511 59.8117 199.556 59.8117C199.673 59.8117 199.783 59.7469 199.838 59.6366C200.113 59.0855 200.371 58.4824 200.676 57.6849C200.737 57.5228 200.656 57.3412 200.494 57.2796Z" fill="white"/>
<path d="M198.21 61.0794C198.045 61.2869 197.87 61.4879 197.692 61.676C197.414 61.9613 197.107 62.2304 196.773 62.4703C196.634 62.5708 196.602 62.7686 196.706 62.908C196.767 62.9923 196.861 63.0377 196.961 63.0377C197.026 63.0377 197.091 63.0182 197.146 62.9761C197.505 62.7135 197.841 62.4249 198.145 62.1104C198.34 61.9094 198.53 61.6922 198.708 61.4652C198.815 61.3291 198.792 61.1313 198.657 61.0243C198.521 60.9173 198.323 60.94 198.217 61.0762L198.21 61.0794Z" fill="white"/>
<path d="M203.614 59.6204C203.051 59.2962 202.546 58.8683 202.115 58.343C202.005 58.2069 201.808 58.1907 201.675 58.3009C201.543 58.4111 201.523 58.6089 201.633 58.7418C202.112 59.3254 202.675 59.802 203.303 60.1651C203.351 60.1943 203.406 60.2073 203.458 60.2073C203.568 60.2073 203.672 60.1522 203.73 60.0484C203.817 59.8993 203.766 59.7047 203.614 59.6204Z" fill="white"/>
<path d="M186.882 64.367H184.792C184.617 64.367 184.478 64.5064 184.478 64.6815C184.478 64.8565 184.617 64.9959 184.792 64.9959H186.882C187.057 64.9959 187.196 64.8565 187.196 64.6815C187.196 64.5064 187.057 64.367 186.882 64.367Z" fill="white"/>
<path d="M195.013 63.443C194.418 63.6861 193.764 63.8839 193.069 64.033C192.9 64.0687 192.79 64.234 192.826 64.4059C192.858 64.555 192.988 64.6555 193.133 64.6555C193.156 64.6555 193.176 64.6555 193.198 64.649C193.933 64.4934 194.622 64.2859 195.25 64.0265C195.411 63.9617 195.486 63.7769 195.421 63.618C195.356 63.4592 195.172 63.3813 195.013 63.4462V63.443Z" fill="white"/>
<path d="M182.699 64.367H180.608C180.434 64.367 180.295 64.5064 180.295 64.6815C180.295 64.8565 180.434 64.9959 180.608 64.9959H182.699C182.873 64.9959 183.012 64.8565 183.012 64.6815C183.012 64.5064 182.873 64.367 182.699 64.367Z" fill="white"/>
<path d="M204.377 50.2117C204.102 50.39 203.843 50.591 203.61 50.8083C203.319 51.0774 203.044 51.3821 202.785 51.7128C202.678 51.849 202.704 52.0468 202.84 52.1538C202.898 52.1991 202.966 52.2218 203.034 52.2218C203.128 52.2218 203.219 52.1797 203.28 52.1019C203.516 51.7971 203.772 51.5183 204.037 51.2719C204.244 51.0774 204.471 50.9023 204.717 50.7434C204.863 50.6494 204.905 50.4549 204.811 50.309C204.717 50.1631 204.523 50.1209 204.377 50.2149V50.2117Z" fill="white"/>
<path d="M200.291 52.9384C200.291 52.9384 200.32 52.9416 200.336 52.9416C200.488 52.9416 200.624 52.8281 200.646 52.6725C200.74 52.0208 200.922 51.3951 201.206 50.7531C201.277 50.5943 201.206 50.4095 201.048 50.3381C200.892 50.2668 200.705 50.3381 200.634 50.497C200.326 51.1908 200.129 51.8717 200.025 52.5817C199.999 52.7535 200.119 52.9124 200.291 52.9384Z" fill="white"/>
<path d="M191.04 64.3151C190.642 64.3443 190.228 64.3637 189.81 64.367H188.976C188.801 64.367 188.662 64.5064 188.662 64.6814C188.662 64.8565 188.801 64.9959 188.976 64.9959H189.814C190.251 64.9927 190.678 64.9733 191.089 64.9441C191.26 64.9311 191.393 64.782 191.38 64.6069C191.367 64.4351 191.218 64.3119 191.043 64.3183L191.04 64.3151Z" fill="white"/>
<path d="M206.338 43.8862C206.209 43.7695 206.011 43.7793 205.895 43.9089C205.451 44.4018 204.992 44.8816 204.539 45.3614L204.471 45.4328C204.351 45.5592 204.358 45.757 204.481 45.8769C204.542 45.9353 204.62 45.9645 204.697 45.9645C204.782 45.9645 204.862 45.9321 204.924 45.8672L204.992 45.7959C205.451 45.3128 205.914 44.8265 206.361 44.3304C206.477 44.2007 206.467 44.003 206.338 43.8862Z" fill="white"/>
<path d="M210.78 58.2587C210.382 58.7775 209.887 59.2087 209.308 59.5394C209.159 59.6269 209.104 59.8182 209.192 59.9674C209.25 60.0679 209.357 60.1262 209.464 60.1262C209.515 60.1262 209.57 60.1133 209.619 60.0841C210.272 59.7112 210.832 59.2249 211.279 58.6381C211.385 58.5019 211.356 58.3041 211.22 58.1971C211.081 58.0934 210.887 58.1193 210.78 58.2555V58.2587Z" fill="white"/>
<path d="M211.868 52.3613C211.544 51.6836 211.101 51.0871 210.557 50.5943C210.428 50.4776 210.23 50.4873 210.114 50.617C209.997 50.7467 210.007 50.9444 210.137 51.0611C210.622 51.5021 211.013 52.0306 211.305 52.6368C211.36 52.7503 211.47 52.8152 211.586 52.8152C211.631 52.8152 211.677 52.8054 211.722 52.7827C211.877 52.7082 211.945 52.5201 211.868 52.3645V52.3613Z" fill="white"/>
<path d="M212.444 54.4784C212.427 54.3065 212.272 54.1769 212.104 54.1931C211.932 54.2093 211.803 54.3617 211.819 54.5335C211.835 54.6988 211.842 54.8674 211.842 55.036C211.842 55.5353 211.777 56.0249 211.648 56.4982C211.602 56.6668 211.699 56.8387 211.868 56.8841C211.897 56.8905 211.923 56.8938 211.952 56.8938C212.091 56.8938 212.217 56.803 212.256 56.6636C212.398 56.1384 212.473 55.5904 212.473 55.036C212.473 54.848 212.463 54.6632 212.447 54.4784H212.444Z" fill="white"/>
<path d="M209.276 39.1106C209.302 39.117 209.331 39.1203 209.357 39.1203C209.496 39.1203 209.622 39.0263 209.661 38.8868C209.842 38.1963 209.955 37.4765 209.991 36.7567C210.001 36.5817 209.868 36.4358 209.693 36.426C209.519 36.4163 209.373 36.5493 209.363 36.7243C209.328 37.4019 209.224 38.0763 209.053 38.728C209.007 38.8966 209.108 39.0684 209.276 39.1138V39.1106Z" fill="white"/>
<path d="M208.739 40.4723C208.583 40.3912 208.396 40.4496 208.315 40.6052C208.02 41.1693 207.661 41.7302 207.215 42.3235C207.111 42.4629 207.14 42.6575 207.276 42.7645C207.331 42.8066 207.399 42.8261 207.464 42.8261C207.561 42.8261 207.655 42.7839 207.716 42.6996C208.182 42.0804 208.558 41.4903 208.871 40.897C208.952 40.7446 208.894 40.5533 208.739 40.4723Z" fill="white"/>
<path d="M207.448 60.2008C207.176 60.2494 206.888 60.2851 206.594 60.3013C206.477 60.3078 206.361 60.311 206.244 60.311C205.982 60.3013 205.723 60.2916 205.468 60.2559C205.296 60.2267 205.138 60.3499 205.112 60.5218C205.086 60.6936 205.205 60.8525 205.377 60.8784C205.658 60.9173 205.946 60.94 206.234 60.94C206.364 60.9465 206.496 60.9368 206.629 60.927C206.946 60.9076 207.26 60.8719 207.558 60.8168C207.729 60.7876 207.842 60.6223 207.81 60.4504C207.781 60.2786 207.616 60.1651 207.445 60.1975L207.448 60.2008Z" fill="white"/>
<path d="M208.635 49.4887C207.943 49.2909 207.182 49.2617 206.422 49.3979C206.251 49.4303 206.137 49.5924 206.17 49.7643C206.199 49.9361 206.361 50.0463 206.535 50.0172C207.199 49.8972 207.865 49.9231 208.464 50.095C208.493 50.1047 208.522 50.1079 208.548 50.1079C208.684 50.1079 208.81 50.0172 208.849 49.881C208.897 49.7124 208.8 49.5406 208.632 49.4919L208.635 49.4887Z" fill="white"/>
<path d="M165.974 64.367H163.884C163.709 64.367 163.57 64.5064 163.57 64.6815C163.57 64.8565 163.709 64.9959 163.884 64.9959H165.974C166.149 64.9959 166.288 64.8565 166.288 64.6815C166.288 64.5064 166.149 64.367 165.974 64.367Z" fill="white"/>
<path d="M124.154 64.367H122.063C121.889 64.367 121.75 64.5064 121.75 64.6815C121.75 64.8565 121.889 64.9959 122.063 64.9959H124.154C124.328 64.9959 124.467 64.8565 124.467 64.6815C124.467 64.5064 124.328 64.367 124.154 64.367Z" fill="white"/>
<path d="M178.518 64.367H176.428C176.253 64.367 176.114 64.5064 176.114 64.6815C176.114 64.8565 176.253 64.9959 176.428 64.9959H178.518C178.693 64.9959 178.832 64.8565 178.832 64.6815C178.832 64.5064 178.693 64.367 178.518 64.367Z" fill="white"/>
<path d="M140.882 64.367H138.791C138.617 64.367 138.478 64.5064 138.478 64.6815C138.478 64.8565 138.617 64.9959 138.791 64.9959H140.882C141.056 64.9959 141.196 64.8565 141.196 64.6815C141.196 64.5064 141.056 64.367 140.882 64.367Z" fill="white"/>
<path d="M136.698 64.367H134.608C134.433 64.367 134.294 64.5064 134.294 64.6815C134.294 64.8565 134.433 64.9959 134.608 64.9959H136.698C136.873 64.9959 137.012 64.8565 137.012 64.6815C137.012 64.5064 136.873 64.367 136.698 64.367Z" fill="white"/>
<path d="M128.334 64.367H126.244C126.069 64.367 125.93 64.5064 125.93 64.6815C125.93 64.8565 126.069 64.9959 126.244 64.9959H128.334C128.509 64.9959 128.648 64.8565 128.648 64.6815C128.648 64.5064 128.509 64.367 128.334 64.367Z" fill="white"/>
<path d="M111.609 64.367H109.519C109.344 64.367 109.205 64.5064 109.205 64.6815C109.205 64.8565 109.344 64.9959 109.519 64.9959H111.609C111.784 64.9959 111.923 64.8565 111.923 64.6815C111.923 64.5064 111.784 64.367 111.609 64.367Z" fill="white"/>
<path d="M119.97 64.367H117.88C117.705 64.367 117.566 64.5064 117.566 64.6815C117.566 64.8565 117.705 64.9959 117.88 64.9959H119.97C120.145 64.9959 120.284 64.8565 120.284 64.6815C120.284 64.5064 120.145 64.367 119.97 64.367Z" fill="white"/>
<path d="M115.79 64.367H113.699C113.525 64.367 113.386 64.5064 113.386 64.6815C113.386 64.8565 113.525 64.9959 113.699 64.9959H115.79C115.964 64.9959 116.103 64.8565 116.103 64.6815C116.103 64.5064 115.964 64.367 115.79 64.367Z" fill="white"/>
<path d="M132.518 64.367H130.427C130.253 64.367 130.114 64.5064 130.114 64.6815C130.114 64.8565 130.253 64.9959 130.427 64.9959H132.518C132.692 64.9959 132.831 64.8565 132.831 64.6815C132.831 64.5064 132.692 64.367 132.518 64.367Z" fill="white"/>
<path d="M161.79 64.367H159.7C159.525 64.367 159.386 64.5064 159.386 64.6815C159.386 64.8565 159.525 64.9959 159.7 64.9959H161.79C161.965 64.9959 162.104 64.8565 162.104 64.6815C162.104 64.5064 161.965 64.367 161.79 64.367Z" fill="white"/>
<path d="M145.062 64.367H142.972C142.797 64.367 142.658 64.5064 142.658 64.6815C142.658 64.8565 142.797 64.9959 142.972 64.9959H145.062C145.237 64.9959 145.376 64.8565 145.376 64.6815C145.376 64.5064 145.237 64.367 145.062 64.367Z" fill="white"/>
<path d="M107.426 64.367H105.335C105.161 64.367 105.021 64.5064 105.021 64.6815C105.021 64.8565 105.161 64.9959 105.335 64.9959H107.426C107.6 64.9959 107.739 64.8565 107.739 64.6815C107.739 64.5064 107.6 64.367 107.426 64.367Z" fill="white"/>
<path d="M174.335 64.367H172.244C172.07 64.367 171.931 64.5064 171.931 64.6815C171.931 64.8565 172.07 64.9959 172.244 64.9959H174.335C174.509 64.9959 174.648 64.8565 174.648 64.6815C174.648 64.5064 174.509 64.367 174.335 64.367Z" fill="white"/>
<path d="M170.154 64.367H168.064C167.889 64.367 167.75 64.5064 167.75 64.6815C167.75 64.8565 167.889 64.9959 168.064 64.9959H170.154C170.329 64.9959 170.468 64.8565 170.468 64.6815C170.468 64.5064 170.329 64.367 170.154 64.367Z" fill="white"/>
<path d="M157.61 64.367H155.52C155.345 64.367 155.206 64.5064 155.206 64.6815C155.206 64.8565 155.345 64.9959 155.52 64.9959H157.61C157.784 64.9959 157.924 64.8565 157.924 64.6815C157.924 64.5064 157.784 64.367 157.61 64.367Z" fill="white"/>
<path d="M149.246 64.367H147.156C146.981 64.367 146.842 64.5064 146.842 64.6815C146.842 64.8565 146.981 64.9959 147.156 64.9959H149.246C149.42 64.9959 149.56 64.8565 149.56 64.6815C149.56 64.5064 149.42 64.367 149.246 64.367Z" fill="white"/>
<path d="M153.426 64.367H151.336C151.161 64.367 151.022 64.5064 151.022 64.6815C151.022 64.8565 151.161 64.9959 151.336 64.9959H153.426C153.601 64.9959 153.74 64.8565 153.74 64.6815C153.74 64.5064 153.601 64.367 153.426 64.367Z" fill="white"/>
</svg>
