<svg width="327" height="100" viewBox="0 0 327 100" fill="none" xmlns="http://www.w3.org/2000/svg">
<path d="M9.23909 73.5933H14.7099C18.7022 73.5933 21.7587 72.5558 23.8793 70.4758C25.9999 68.3957 27.0602 65.4678 27.0602 61.6868C27.0602 57.9059 25.9999 54.9779 23.8793 52.8979C21.7587 50.8179 18.7022 49.7804 14.7099 49.7804H0V85.4H9.23909V73.5883V73.5933ZM9.23909 57.2475H12.3055C15.7005 57.2475 17.398 58.7289 17.398 61.6868C17.398 64.6447 15.7005 66.1262 12.3055 66.1262H9.23909V57.2425V57.2475Z" fill="white"/>
<path d="M49.2669 63.5773C47.2857 61.4674 44.7867 60.4099 41.7701 60.4099C39.978 60.4099 38.3452 60.7491 36.8668 61.4275C35.3883 62.1058 34.114 63.0286 33.0487 64.1908C31.9784 65.358 31.1471 66.7198 30.5498 68.276C29.9524 69.8323 29.6537 71.4834 29.6537 73.2142C29.6537 75.0747 29.9624 76.7906 30.5746 78.3619C31.1869 79.9381 32.0431 81.3098 33.1433 82.472C34.2434 83.6392 35.5327 84.5421 37.0112 85.1905C38.4896 85.834 40.1074 86.1582 41.8696 86.1582C44.9809 86.1582 47.4499 85.0109 49.2719 82.7114V85.405H57.8539V61.1681H49.2719V63.5773H49.2669ZM49.1026 75.4339C48.8039 76.0973 48.4107 76.6809 47.9228 77.1797C47.435 77.6835 46.8526 78.0776 46.1806 78.3619C45.5036 78.6462 44.7917 78.7859 44.035 78.7859C43.2784 78.7859 42.5168 78.6462 41.8447 78.3619C41.1677 78.0776 40.5853 77.6835 40.1025 77.1797C39.6146 76.6759 39.2313 76.0873 38.9476 75.4089C38.6638 74.7306 38.5244 73.9973 38.5244 73.2142C38.5244 72.4311 38.6638 71.7577 38.9476 71.1093C39.2313 70.4658 39.6146 69.8872 40.1025 69.3834C40.5903 68.8796 41.1727 68.4855 41.8447 68.2012C42.5218 67.9169 43.2535 67.7772 44.035 67.7772C44.8166 67.7772 45.5036 67.9169 46.1806 68.2012C46.8576 68.4855 47.435 68.8796 47.9228 69.3834C48.4107 69.8872 48.8039 70.4758 49.1026 71.1541C49.4013 71.8325 49.5506 72.5458 49.5506 73.304C49.5506 74.0622 49.4013 74.7705 49.1026 75.4289V75.4339Z" fill="white"/>
<path d="M73.1711 85.405V68.301H78.0295V61.1681H73.1711V53.8905H64.6388V61.1681H61.8113V68.301H64.6388V85.405H73.1711Z" fill="white"/>
<path d="M99.0066 70.1914C99.1958 70.9496 99.2904 71.9373 99.2904 73.1693V85.405H107.823V70.0019C107.823 67.1338 107.046 64.8592 105.488 63.1733C103.93 61.4873 101.63 60.6443 98.5785 60.6443C96.9756 60.6443 95.5768 60.8887 94.3821 61.3776C93.1874 61.8664 92.0076 62.8191 90.8478 64.2357V46.189H82.3155V85.4H90.8478V72.456C90.8478 70.8499 91.2311 69.6128 92.0027 68.7449C92.7742 67.877 93.8793 67.448 95.3279 67.448C96.3982 67.448 97.3092 67.7772 98.0608 68.4406C98.4989 68.8497 98.8175 69.4333 99.0017 70.1865L99.0066 70.1914Z" fill="white"/>
<path d="M154.62 67.3782C155.925 65.6922 156.577 63.4975 156.577 60.789C156.577 59.2776 156.333 57.861 155.845 56.5392C155.357 55.2173 154.635 54.0501 153.675 53.0426C152.714 52.035 151.499 51.2419 150.021 50.6583C148.542 50.0747 146.815 49.7854 144.834 49.7854H130.452V85.405H139.691V71.7028L148.507 85.405H160.012L148.836 70.805C151.38 70.2064 153.306 69.0642 154.61 67.3782H154.62ZM145.635 64.5699C144.66 65.3281 143.261 65.7022 141.439 65.7022H139.696V56.9133H141.439C143.261 56.9133 144.66 57.2924 145.635 58.0456C146.611 58.8037 147.099 59.8862 147.099 61.3077C147.099 62.7293 146.611 63.8117 145.635 64.5699Z" fill="white"/>
<path d="M190.472 73.309C190.472 71.3886 190.108 69.6328 189.386 68.0416C188.665 66.4504 187.649 65.0837 186.345 63.9315C185.041 62.7842 183.503 61.8864 181.725 61.2379C179.948 60.5945 178.022 60.2702 175.951 60.2702C173.88 60.2702 171.904 60.5994 170.127 61.2629C168.35 61.9263 166.821 62.8291 165.532 63.9813C164.243 65.1336 163.237 66.4853 162.515 68.0466C161.794 69.6078 161.43 71.2838 161.43 73.0795C161.43 75.0648 161.794 76.8655 162.515 78.4916C163.237 80.1127 164.238 81.5093 165.507 82.6715C166.782 83.8387 168.295 84.7366 170.057 85.3651C171.819 85.9936 173.736 86.3078 175.807 86.3078C177.877 86.3078 179.869 85.9936 181.676 85.3651C183.483 84.7366 185.031 83.8437 186.32 82.6965C187.609 81.5492 188.62 80.1775 189.362 78.5863C190.098 76.9951 190.467 75.2394 190.467 73.319L190.472 73.309ZM181.019 75.4139C180.72 76.0923 180.327 76.6809 179.839 77.1847C179.351 77.6885 178.769 78.0825 178.096 78.3669C177.419 78.6512 176.708 78.7908 175.951 78.7908C175.194 78.7908 174.482 78.6512 173.805 78.3669C173.128 78.0825 172.546 77.6885 172.063 77.1847C171.575 76.6809 171.182 76.0923 170.883 75.4139C170.585 74.7356 170.435 73.9874 170.435 73.1693C170.435 72.4161 170.585 71.7028 170.883 71.0444C171.182 70.381 171.575 69.8024 172.063 69.2986C172.551 68.7948 173.128 68.4007 173.805 68.1164C174.482 67.8321 175.194 67.6924 175.951 67.6924C176.708 67.6924 177.419 67.8321 178.096 68.1164C178.773 68.4007 179.351 68.7948 179.839 69.2986C180.327 69.8024 180.72 70.391 181.019 71.0693C181.317 71.7477 181.467 72.461 181.467 73.2192C181.467 73.9774 181.317 74.7405 181.019 75.4139Z" fill="white"/>
<path d="M207.636 86.1582C209.522 86.1582 211.519 85.6993 213.624 84.7865V77.5089C212.24 78.6113 210.747 79.1649 209.144 79.1649C208.328 79.1649 207.556 79.0253 206.834 78.741C206.112 78.4566 205.49 78.0576 204.972 77.5339C204.455 77.0151 204.047 76.4016 203.748 75.6933C203.449 74.985 203.3 74.2068 203.3 73.3539C203.3 72.5009 203.449 71.6779 203.748 70.9696C204.047 70.2613 204.465 69.6478 204.997 69.129C205.53 68.6102 206.152 68.2062 206.859 67.9219C207.566 67.6376 208.328 67.4979 209.144 67.4979C210.652 67.4979 212.146 68.0017 213.624 69.0093V61.7317C211.862 60.8488 209.945 60.4099 207.875 60.4099C205.988 60.4099 204.221 60.7341 202.573 61.3776C200.92 62.021 199.502 62.9189 198.307 64.0711C197.112 65.2234 196.171 66.5901 195.48 68.1813C194.788 69.7725 194.444 71.5282 194.444 73.4486C194.444 75.369 194.808 77.1099 195.529 78.6711C196.251 80.2324 197.217 81.5692 198.426 82.6865C199.636 83.8038 201.035 84.6618 202.623 85.2603C204.211 85.8589 205.883 86.1582 207.646 86.1582H207.636Z" fill="white"/>
<path d="M248.843 61.1681H237.15L228.19 69.9071V46.194H219.657V85.405H228.19V75.5287L237.573 85.405H249.55L236.727 72.3662L248.843 61.1681Z" fill="white"/>
<path d="M273.265 63.8616C272.135 62.6944 270.751 61.8065 269.113 61.193C267.481 60.5795 265.639 60.2702 263.598 60.2702C261.557 60.2702 259.66 60.5795 258.013 61.193C256.365 61.8065 254.956 62.6795 253.791 63.8167C252.626 64.949 251.73 66.3307 251.103 67.9518C250.476 69.5729 250.162 71.3936 250.162 73.4087C250.162 75.4239 250.491 77.1248 251.153 78.701C251.815 80.2773 252.751 81.629 253.961 82.7663C255.17 83.8986 256.624 84.7765 258.321 85.39C260.019 86.0035 261.89 86.3128 263.931 86.3128C270.592 86.3128 274.758 83.5395 276.426 77.9977H268.173C267.232 79.5091 265.833 80.2673 263.976 80.2673C260.517 80.2673 258.789 78.4267 258.789 74.7405H276.755V73.8427C276.755 71.7328 276.456 69.8373 275.859 68.1513C275.261 66.4654 274.395 65.0438 273.265 63.8766V63.8616ZM259.028 69.7675C259.247 68.5105 259.775 67.5328 260.606 66.8395C261.438 66.1461 262.518 65.802 263.837 65.802C265.156 65.802 266.162 66.1661 267.043 66.8894C267.924 67.6126 268.506 68.5753 268.79 69.7725H259.028V69.7675Z" fill="white"/>
<path d="M291.465 53.8905H282.927V61.1681H280.1V68.301H282.927V85.405H291.465V68.301H296.318V61.1681H291.465V53.8905Z" fill="white"/>
<path d="M289.493 43.6102C290.225 43.9493 293.097 45.1914 293.705 45.1714C294.317 45.1515 294.65 44.6227 294.441 44.0441C294.272 43.5703 292.39 41.7496 291.903 41.1161C290.673 39.515 288.637 36.6668 289.239 34.5668C289.334 34.2277 290.051 33.1802 290.325 33.1004C290.628 33.0106 291.056 33.3248 291.375 33.3298C292.107 33.3448 292.888 31.6339 293.515 31.1899L302.107 35.1155C302.541 35.0307 302.809 34.5918 302.725 34.1628L297.224 26.6608C297.672 25.7879 298.887 25.1694 298.737 24.1169C298.668 23.6131 298.324 23.5083 298.593 22.9098C299.604 20.6552 303.158 21.6827 304.895 22.3611C306.03 22.805 309.39 24.9798 309.988 25.0696C312.088 25.3838 309.938 22.2414 309.53 21.6029C305.632 15.5375 297.483 8.3397 289.832 11.8164C283.694 5.68606 275.834 0.732938 266.973 0.109432C265.714 0.0196474 262.085 -0.134982 261.079 0.26905C260.168 0.638165 260.979 3.80557 261.179 4.73335C263.16 14.0061 269.731 21.7376 277.536 26.7256C275.679 34.482 283.231 40.7171 289.493 43.6102ZM290.459 41.8743C290.235 42.1437 285.785 39.515 285.292 39.1708C281.877 36.7865 278.094 32.6514 279.099 28.1472L288.737 32.5168C288.443 33.1802 287.9 33.4046 287.691 34.2127C286.935 37.1706 289.09 39.5299 290.454 41.8743H290.459ZM299.101 31.988L293.401 29.2645C289.901 27.2145 285.421 24.8352 284.938 20.3409C289.543 19.9419 292.769 24.0271 295.502 27.1446L299.101 31.988ZM307.304 21.7476C305.433 21.1241 303.671 19.8771 301.615 19.907C299.803 19.9319 298.722 20.6701 297.508 21.9122L291.43 13.0833C298.125 10.9933 303.86 16.6947 307.299 21.7476H307.304ZM265.186 10.9634C264.544 10.5644 262.896 4.99273 262.707 3.97517L262.488 1.7904C265.335 1.73055 268.959 1.67069 271.687 2.57851C271.846 2.63338 272.28 2.74811 272.21 2.93765L265.684 10.8188C265.499 10.9834 265.49 11.1579 265.186 10.9684V10.9634ZM266.241 13.213L266.346 12.6394L274.042 3.2519C280.901 5.75091 286.95 10.5245 291.579 16.131C293.057 17.9217 294.85 20.316 295.985 22.3262C296.672 23.5482 297.503 24.3413 296.154 25.4537C293.033 21.8723 288.478 17.0389 283.246 18.9543C282.39 24.4461 288.025 28.0076 292.127 30.3719L291.231 31.4743C291.106 31.599 290.987 31.5441 290.842 31.5241C290.031 31.4094 286.666 29.9579 285.705 29.5339C277.89 26.0822 270.856 20.4606 266.241 13.213Z" fill="white"/>
<path d="M308.101 36.0184L301.361 30.5614C302.59 33.3398 305.303 34.8512 307.479 36.7765L308.101 36.0184Z" fill="white"/>
<path d="M300.957 35.6193C300.042 35.0557 298.548 34.5319 297.508 34.1578L303.82 39.2656C304.248 39.4302 304.756 38.8765 304.347 38.3927C303.954 37.9288 301.525 35.9735 300.957 35.6243V35.6193Z" fill="white"/>
<path d="M303.502 34.9742L302.862 35.758L307.891 39.8792L308.531 39.0954L303.502 34.9742Z" fill="white"/>
<path d="M309.818 37.1556L308.917 36.8613L308.474 37.5597L309.221 38.2081L309.818 37.1556Z" fill="white"/>
<path d="M305.432 39.29L304.794 40.0754L305.682 40.7995L306.32 40.0142L305.432 39.29Z" fill="white"/>
<path d="M309.275 39.7046L308.637 40.4899L309.525 41.2141L310.163 40.4288L309.275 39.7046Z" fill="white"/>
<path d="M276.635 9.92091C274.475 10.1354 272.897 12.0608 273.106 14.2256C273.315 16.3904 275.241 17.9716 277.402 17.7621C279.562 17.5526 281.14 15.6222 280.931 13.4574C280.717 11.2926 278.796 9.71142 276.635 9.92091ZM277.247 16.1659C275.958 16.2906 274.813 15.3479 274.689 14.061C274.564 12.7691 275.505 11.6218 276.789 11.4971C278.074 11.3724 279.224 12.3152 279.348 13.6021C279.473 14.894 278.532 16.0412 277.247 16.1659Z" fill="white"/>
<path d="M158.842 99.0323H155.626C155.357 99.0323 155.143 99.2468 155.143 99.5162C155.143 99.7855 155.357 100 155.626 100H158.842C159.111 100 159.325 99.7855 159.325 99.5162C159.325 99.2468 159.111 99.0323 158.842 99.0323Z" fill="white"/>
<path d="M100.938 99.0323H97.7223C97.4535 99.0323 97.2395 99.2468 97.2395 99.5162C97.2395 99.7855 97.4535 100 97.7223 100H100.938C101.207 100 101.421 99.7855 101.421 99.5162C101.421 99.2468 101.207 99.0323 100.938 99.0323Z" fill="white"/>
<path d="M107.37 99.0323H104.154C103.885 99.0323 103.671 99.2468 103.671 99.5162C103.671 99.7855 103.885 100 104.154 100H107.37C107.638 100 107.852 99.7855 107.852 99.5162C107.852 99.2468 107.638 99.0323 107.37 99.0323Z" fill="white"/>
<path d="M120.238 99.0323H117.022C116.753 99.0323 116.539 99.2468 116.539 99.5162C116.539 99.7855 116.753 100 117.022 100H120.238C120.506 100 120.721 99.7855 120.721 99.5162C120.721 99.2468 120.506 99.0323 120.238 99.0323Z" fill="white"/>
<path d="M152.405 99.0323H149.189C148.921 99.0323 148.707 99.2468 148.707 99.5162C148.707 99.7855 148.921 100 149.189 100H152.405C152.674 100 152.888 99.7855 152.888 99.5162C152.888 99.2468 152.674 99.0323 152.405 99.0323Z" fill="white"/>
<path d="M133.106 99.0323H129.89C129.621 99.0323 129.407 99.2468 129.407 99.5162C129.407 99.7855 129.621 100 129.89 100H133.106C133.374 100 133.589 99.7855 133.589 99.5162C133.589 99.2468 133.374 99.0323 133.106 99.0323Z" fill="white"/>
<path d="M126.669 99.0323H123.453C123.185 99.0323 122.971 99.2468 122.971 99.5162C122.971 99.7855 123.185 100 123.453 100H126.669C126.938 100 127.152 99.7855 127.152 99.5162C127.152 99.2468 126.938 99.0323 126.669 99.0323Z" fill="white"/>
<path d="M113.801 99.0323H110.585C110.317 99.0323 110.103 99.2468 110.103 99.5162C110.103 99.7855 110.317 100 110.585 100H113.801C114.07 100 114.284 99.7855 114.284 99.5162C114.284 99.2468 114.07 99.0323 113.801 99.0323Z" fill="white"/>
<path d="M139.537 99.0323H136.321C136.053 99.0323 135.839 99.2468 135.839 99.5162C135.839 99.7855 136.053 100 136.321 100H139.537C139.806 100 140.02 99.7855 140.02 99.5162C140.02 99.2468 139.806 99.0323 139.537 99.0323Z" fill="white"/>
<path d="M94.5016 99.0323H91.2858C91.017 99.0323 90.803 99.2468 90.803 99.5162C90.803 99.7855 91.017 100 91.2858 100H94.5016C94.7704 100 94.9845 99.7855 94.9845 99.5162C94.9845 99.2468 94.7704 99.0323 94.5016 99.0323Z" fill="white"/>
<path d="M145.974 99.0323H142.758C142.489 99.0323 142.275 99.2468 142.275 99.5162C142.275 99.7855 142.489 100 142.758 100H145.974C146.243 100 146.457 99.7855 146.457 99.5162C146.457 99.2468 146.243 99.0323 145.974 99.0323Z" fill="white"/>
<path d="M49.466 99.0323H46.2502C45.9814 99.0323 45.7673 99.2468 45.7673 99.5162C45.7673 99.7855 45.9814 100 46.2502 100H49.466C49.7348 100 49.9488 99.7855 49.9488 99.5162C49.9488 99.2468 49.7348 99.0323 49.466 99.0323Z" fill="white"/>
<path d="M17.2984 99.0323H14.0826C13.8138 99.0323 13.5998 99.2468 13.5998 99.5162C13.5998 99.7855 13.8138 100 14.0826 100H17.2984C17.5672 100 17.7813 99.7855 17.7813 99.5162C17.7813 99.2468 17.5672 99.0323 17.2984 99.0323Z" fill="white"/>
<path d="M4.43038 99.0323H1.20964C0.940828 99.0323 0.726776 99.2468 0.726776 99.5162C0.726776 99.7855 0.940828 100 1.20964 100H4.4254C4.69421 100 4.90826 99.7855 4.90826 99.5162C4.90826 99.2468 4.69421 99.0323 4.4254 99.0323H4.43038Z" fill="white"/>
<path d="M88.0701 99.0323H84.8543C84.5855 99.0323 84.3714 99.2468 84.3714 99.5162C84.3714 99.7855 84.5855 100 84.8543 100H88.0701C88.3389 100 88.5529 99.7855 88.5529 99.5162C88.5529 99.2468 88.3389 99.0323 88.0701 99.0323Z" fill="white"/>
<path d="M23.7299 99.0323H20.5142C20.2454 99.0323 20.0313 99.2468 20.0313 99.5162C20.0313 99.7855 20.2454 100 20.5142 100H23.7299C23.9987 100 24.2128 99.7855 24.2128 99.5162C24.2128 99.2468 23.9987 99.0323 23.7299 99.0323Z" fill="white"/>
<path d="M319.635 47.6754C319.729 47.8051 319.879 47.8799 320.028 47.8799C320.123 47.8799 320.222 47.85 320.307 47.7901C320.526 47.6355 320.576 47.3312 320.416 47.1167C319.779 46.2239 319.022 45.3959 318.176 44.6576C317.977 44.4831 317.673 44.503 317.494 44.7075C317.32 44.907 317.34 45.2163 317.544 45.3909C318.336 46.0792 319.037 46.8474 319.63 47.6804L319.635 47.6754Z" fill="white"/>
<path d="M312.133 42.3482C313.154 42.6973 314.114 43.1213 314.995 43.6102C315.07 43.6501 315.15 43.67 315.229 43.67C315.399 43.67 315.563 43.5802 315.652 43.4206C315.782 43.1862 315.697 42.8919 315.463 42.7622C314.532 42.2484 313.522 41.7995 312.447 41.4304C312.198 41.3456 311.919 41.4803 311.834 41.7297C311.75 41.9841 311.879 42.2584 312.133 42.3432V42.3482Z" fill="white"/>
<path d="M321.945 53.3917C321.984 53.6311 322.189 53.8007 322.422 53.8007C322.447 53.8007 322.472 53.8007 322.497 53.7957C322.761 53.7558 322.94 53.5064 322.9 53.2421C322.726 52.1347 322.427 51.0523 322.019 50.0348C321.92 49.7854 321.636 49.6656 321.392 49.7654C321.143 49.8652 321.024 50.1445 321.123 50.3939C321.507 51.3466 321.78 52.3542 321.945 53.3917Z" fill="white"/>
<path d="M30.1614 99.0323H26.9457C26.6769 99.0323 26.4628 99.2468 26.4628 99.5162C26.4628 99.7855 26.6769 100 26.9457 100H30.1614C30.4303 100 30.6443 99.7855 30.6443 99.5162C30.6443 99.2468 30.4303 99.0323 30.1614 99.0323Z" fill="white"/>
<path d="M10.8619 99.0323H7.64614C7.37733 99.0323 7.16328 99.2468 7.16328 99.5162C7.16328 99.7855 7.37733 100 7.64614 100H10.8619C11.1307 100 11.3448 99.7855 11.3448 99.5162C11.3448 99.2468 11.1307 99.0323 10.8619 99.0323Z" fill="white"/>
<path d="M68.7655 99.0323H65.5498C65.281 99.0323 65.0669 99.2468 65.0669 99.5162C65.0669 99.7855 65.281 100 65.5498 100H68.7655C69.0344 100 69.2484 99.7855 69.2484 99.5162C69.2484 99.2468 69.0344 99.0323 68.7655 99.0323Z" fill="white"/>
<path d="M75.202 99.0323H71.9863C71.7175 99.0323 71.5034 99.2468 71.5034 99.5162C71.5034 99.7855 71.7175 100 71.9863 100H75.202C75.4709 100 75.6849 99.7855 75.6849 99.5162C75.6849 99.2468 75.4709 99.0323 75.202 99.0323Z" fill="white"/>
<path d="M81.6336 99.0323H78.4178C78.149 99.0323 77.9349 99.2468 77.9349 99.5162C77.9349 99.7855 78.149 100 78.4178 100H81.6336C81.9024 100 82.1164 99.7855 82.1164 99.5162C82.1164 99.2468 81.9024 99.0323 81.6336 99.0323Z" fill="white"/>
<path d="M36.598 99.0323H33.3822C33.1134 99.0323 32.8993 99.2468 32.8993 99.5162C32.8993 99.7855 33.1134 100 33.3822 100H36.598C36.8668 100 37.0808 99.7855 37.0808 99.5162C37.0808 99.2468 36.8668 99.0323 36.598 99.0323Z" fill="white"/>
<path d="M62.334 99.0323H59.1183C58.8495 99.0323 58.6354 99.2468 58.6354 99.5162C58.6354 99.7855 58.8495 100 59.1183 100H62.334C62.6028 100 62.8169 99.7855 62.8169 99.5162C62.8169 99.2468 62.6028 99.0323 62.334 99.0323Z" fill="white"/>
<path d="M43.0295 99.0323H39.8137C39.5449 99.0323 39.3308 99.2468 39.3308 99.5162C39.3308 99.7855 39.5449 100 39.8137 100H43.0295C43.2983 100 43.5123 99.7855 43.5123 99.5162C43.5123 99.2468 43.2983 99.0323 43.0295 99.0323Z" fill="white"/>
<path d="M55.8975 99.0323H52.6818C52.413 99.0323 52.1989 99.2468 52.1989 99.5162C52.1989 99.7855 52.413 100 52.6818 100H55.8975C56.1663 100 56.3804 99.7855 56.3804 99.5162C56.3804 99.2468 56.1663 99.0323 55.8975 99.0323Z" fill="white"/>
<path d="M312.372 72.2814C311.551 73.2092 310.884 74.0472 310.326 74.8353C310.172 75.0548 310.222 75.3541 310.441 75.5087C310.525 75.5686 310.625 75.5985 310.719 75.5985C310.869 75.5985 311.018 75.5286 311.113 75.394C311.65 74.6358 312.297 73.8277 313.094 72.9249C313.268 72.7254 313.253 72.4211 313.054 72.2415C312.855 72.067 312.551 72.0819 312.372 72.2814Z" fill="white"/>
<path d="M310.894 82.1627C310.655 82.043 310.366 82.1428 310.246 82.3772C309.828 83.2202 309.415 84.1729 308.957 85.38C308.932 85.4399 308.922 85.4997 308.927 85.5596C308.818 85.0907 308.733 84.6119 308.673 84.123C308.643 83.8587 308.4 83.6741 308.141 83.6991C307.877 83.729 307.688 83.9684 307.718 84.2328C307.852 85.375 308.121 86.4624 308.519 87.475C308.594 87.6645 308.778 87.7793 308.967 87.7793C309.027 87.7793 309.087 87.7693 309.146 87.7444C309.395 87.6446 309.515 87.3653 309.415 87.1159C309.241 86.6819 309.096 86.228 308.977 85.7641C309.027 85.8689 309.121 85.9536 309.236 85.9985C309.485 86.0933 309.764 85.9686 309.858 85.7192C310.306 84.542 310.704 83.6143 311.108 82.8012C311.227 82.5618 311.132 82.2725 310.894 82.1528V82.1627Z" fill="white"/>
<path d="M308.459 88.1284C308.21 88.0337 307.932 88.1584 307.837 88.4078C307.379 89.6049 306.996 90.5077 306.588 91.3258C306.468 91.5652 306.563 91.8545 306.802 91.9742C306.871 92.0091 306.946 92.0241 307.016 92.0241C307.195 92.0241 307.364 91.9243 307.449 91.7547C307.872 90.9068 308.27 89.979 308.738 88.7519C308.833 88.5025 308.708 88.2232 308.459 88.1284Z" fill="white"/>
<path d="M304.945 93.9744C304.691 94.2937 304.422 94.6029 304.148 94.8922C303.72 95.3312 303.247 95.7452 302.735 96.1143C302.521 96.2689 302.471 96.5732 302.63 96.7877C302.725 96.9174 302.869 96.9872 303.023 96.9872C303.123 96.9872 303.222 96.9573 303.307 96.8924C303.86 96.4884 304.377 96.0445 304.845 95.5606C305.144 95.2514 305.438 94.9172 305.711 94.568C305.876 94.3585 305.841 94.0542 305.632 93.8896C305.423 93.725 305.119 93.7599 304.955 93.9694L304.945 93.9744Z" fill="white"/>
<path d="M313.258 91.7298C312.392 91.231 311.615 90.5726 310.953 89.7645C310.784 89.555 310.48 89.5301 310.276 89.6997C310.072 89.8693 310.042 90.1736 310.212 90.3781C310.948 91.2759 311.814 92.0092 312.78 92.5678C312.855 92.6127 312.939 92.6327 313.019 92.6327C313.188 92.6327 313.348 92.5479 313.437 92.3882C313.572 92.1588 313.492 91.8595 313.258 91.7298Z" fill="white"/>
<path d="M287.517 99.0323H284.301C284.032 99.0323 283.818 99.2468 283.818 99.5162C283.818 99.7855 284.032 100 284.301 100H287.517C287.786 100 288 99.7855 288 99.5162C288 99.2468 287.786 99.0323 287.517 99.0323Z" fill="white"/>
<path d="M300.027 97.6107C299.111 97.9848 298.105 98.2891 297.035 98.5185C296.776 98.5734 296.607 98.8278 296.662 99.0922C296.711 99.3216 296.91 99.4762 297.134 99.4762C297.169 99.4762 297.199 99.4762 297.234 99.4663C298.364 99.2268 299.424 98.9076 300.39 98.5086C300.639 98.4088 300.753 98.1245 300.654 97.8801C300.554 97.6357 300.271 97.5159 300.027 97.6157V97.6107Z" fill="white"/>
<path d="M281.081 99.0323H277.865C277.596 99.0323 277.382 99.2468 277.382 99.5162C277.382 99.7855 277.596 100 277.865 100H281.081C281.349 100 281.563 99.7855 281.563 99.5162C281.563 99.2468 281.349 99.0323 281.081 99.0323Z" fill="white"/>
<path d="M314.433 77.2545C314.01 77.5289 313.612 77.8381 313.253 78.1723C312.805 78.5863 312.382 79.0552 311.984 79.564C311.819 79.7735 311.859 80.0777 312.068 80.2423C312.158 80.3122 312.262 80.3471 312.367 80.3471C312.511 80.3471 312.651 80.2823 312.745 80.1625C313.109 79.6937 313.502 79.2647 313.91 78.8856C314.229 78.5863 314.577 78.317 314.956 78.0726C315.18 77.9279 315.244 77.6286 315.1 77.4042C314.956 77.1797 314.657 77.1148 314.433 77.2595V77.2545Z" fill="white"/>
<path d="M308.146 81.4495C308.146 81.4495 308.19 81.4544 308.215 81.4544C308.449 81.4544 308.658 81.2799 308.693 81.0404C308.838 80.0378 309.116 79.0751 309.554 78.0875C309.664 77.8431 309.554 77.5588 309.311 77.449C309.072 77.3393 308.783 77.449 308.673 77.6934C308.2 78.7609 307.897 79.8084 307.737 80.9008C307.698 81.1651 307.882 81.4095 308.146 81.4495Z" fill="white"/>
<path d="M293.914 98.9525C293.301 98.9974 292.664 99.0273 292.022 99.0323H290.738C290.469 99.0323 290.255 99.2468 290.255 99.5161C290.255 99.7855 290.469 100 290.738 100H292.027C292.699 99.995 293.356 99.9651 293.988 99.9202C294.252 99.9002 294.456 99.6708 294.436 99.4014C294.416 99.1371 294.187 98.9475 293.919 98.9575L293.914 98.9525Z" fill="white"/>
<path d="M317.449 67.5228C317.25 67.3433 316.947 67.3582 316.768 67.5578C316.086 68.3159 315.379 69.0542 314.682 69.7924L314.577 69.9021C314.393 70.0967 314.403 70.4009 314.592 70.5855C314.687 70.6753 314.806 70.7202 314.926 70.7202C315.055 70.7202 315.18 70.6703 315.274 70.5705L315.379 70.4608C316.086 69.7176 316.797 68.9694 317.484 68.2062C317.664 68.0067 317.649 67.7024 317.449 67.5228Z" fill="white"/>
<path d="M324.284 89.6348C323.672 90.4329 322.91 91.0963 322.019 91.6051C321.79 91.7398 321.706 92.0341 321.84 92.2635C321.93 92.4182 322.094 92.508 322.258 92.508C322.338 92.508 322.422 92.488 322.497 92.4431C323.503 91.8695 324.364 91.1213 325.051 90.2184C325.215 90.0089 325.17 89.7047 324.961 89.5401C324.747 89.3804 324.448 89.4204 324.284 89.6298V89.6348Z" fill="white"/>
<path d="M325.957 80.5616C325.459 79.5191 324.777 78.6013 323.941 77.8431C323.742 77.6635 323.438 77.6785 323.259 77.878C323.08 78.0775 323.094 78.3818 323.294 78.5614C324.04 79.2397 324.643 80.0528 325.091 80.9856C325.175 81.1602 325.345 81.2599 325.524 81.2599C325.593 81.2599 325.663 81.245 325.733 81.21C325.972 81.0953 326.076 80.806 325.957 80.5666V80.5616Z" fill="white"/>
<path d="M326.843 83.8188C326.818 83.5544 326.579 83.3549 326.32 83.3798C326.056 83.4048 325.857 83.6392 325.882 83.9036C325.907 84.158 325.917 84.4173 325.917 84.6767C325.917 85.4449 325.817 86.1981 325.618 86.9263C325.549 87.1857 325.698 87.4501 325.957 87.5199C326.002 87.5299 326.041 87.5349 326.086 87.5349C326.3 87.5349 326.494 87.3952 326.554 87.1807C326.773 86.3726 326.888 85.5297 326.888 84.6767C326.888 84.3874 326.873 84.1031 326.848 83.8188H326.843Z" fill="white"/>
<path d="M321.969 60.1754C322.009 60.1854 322.054 60.1904 322.094 60.1904C322.308 60.1904 322.502 60.0458 322.562 59.8313C322.841 58.7688 323.015 57.6615 323.07 56.5541C323.085 56.2848 322.88 56.0603 322.612 56.0453C322.343 56.0304 322.119 56.2349 322.104 56.5042C322.049 57.5468 321.89 58.5843 321.626 59.5869C321.556 59.8462 321.711 60.1106 321.969 60.1804V60.1754Z" fill="white"/>
<path d="M321.143 62.2704C320.904 62.1457 320.616 62.2355 320.491 62.4749C320.038 63.3429 319.486 64.2058 318.799 65.1186C318.639 65.3331 318.684 65.6324 318.893 65.797C318.978 65.8618 319.082 65.8918 319.182 65.8918C319.331 65.8918 319.476 65.8269 319.57 65.6972C320.287 64.7445 320.864 63.8367 321.347 62.9239C321.472 62.6894 321.382 62.3951 321.143 62.2704Z" fill="white"/>
<path d="M319.157 92.6227C318.739 92.6975 318.296 92.7524 317.843 92.7773C317.664 92.7873 317.484 92.7923 317.305 92.7923C316.902 92.7773 316.504 92.7623 316.11 92.7075C315.847 92.6626 315.603 92.8521 315.563 93.1165C315.523 93.3809 315.707 93.6253 315.971 93.6652C316.404 93.725 316.847 93.76 317.29 93.76C317.489 93.7699 317.693 93.755 317.898 93.74C318.385 93.7101 318.868 93.6552 319.326 93.5704C319.59 93.5255 319.764 93.2711 319.714 93.0068C319.67 92.7424 319.416 92.5678 319.152 92.6177L319.157 92.6227Z" fill="white"/>
<path d="M320.984 76.1422C319.919 75.8379 318.749 75.793 317.579 76.0025C317.315 76.0524 317.141 76.3018 317.191 76.5662C317.235 76.8305 317.484 77.0001 317.753 76.9552C318.774 76.7707 319.799 76.8106 320.72 77.0749C320.765 77.0899 320.81 77.0949 320.849 77.0949C321.059 77.0949 321.253 76.9552 321.312 76.7457C321.387 76.4863 321.238 76.222 320.979 76.1472L320.984 76.1422Z" fill="white"/>
<path d="M255.349 99.0323H252.134C251.865 99.0323 251.651 99.2468 251.651 99.5162C251.651 99.7855 251.865 100 252.134 100H255.349C255.618 100 255.832 99.7855 255.832 99.5162C255.832 99.2468 255.618 99.0323 255.349 99.0323Z" fill="white"/>
<path d="M191.009 99.0323H187.794C187.525 99.0323 187.311 99.2468 187.311 99.5162C187.311 99.7855 187.525 100 187.794 100H191.009C191.278 100 191.492 99.7855 191.492 99.5162C191.492 99.2468 191.278 99.0323 191.009 99.0323Z" fill="white"/>
<path d="M274.649 99.0323H271.433C271.164 99.0323 270.95 99.2468 270.95 99.5162C270.95 99.7855 271.164 100 271.433 100H274.649C274.918 100 275.132 99.7855 275.132 99.5162C275.132 99.2468 274.918 99.0323 274.649 99.0323Z" fill="white"/>
<path d="M216.745 99.0323H213.53C213.261 99.0323 213.047 99.2468 213.047 99.5162C213.047 99.7855 213.261 100 213.53 100H216.745C217.014 100 217.228 99.7855 217.228 99.5162C217.228 99.2468 217.014 99.0323 216.745 99.0323Z" fill="white"/>
<path d="M210.309 99.0323H207.093C206.824 99.0323 206.61 99.2468 206.61 99.5162C206.61 99.7855 206.824 100 207.093 100H210.309C210.578 100 210.792 99.7855 210.792 99.5162C210.792 99.2468 210.578 99.0323 210.309 99.0323Z" fill="white"/>
<path d="M197.441 99.0323H194.225C193.956 99.0323 193.742 99.2468 193.742 99.5162C193.742 99.7855 193.956 100 194.225 100H197.441C197.71 100 197.924 99.7855 197.924 99.5162C197.924 99.2468 197.71 99.0323 197.441 99.0323Z" fill="white"/>
<path d="M171.71 99.0323H168.494C168.225 99.0323 168.011 99.2468 168.011 99.5162C168.011 99.7855 168.225 100 168.494 100H171.71C171.979 100 172.193 99.7855 172.193 99.5162C172.193 99.2468 171.979 99.0323 171.71 99.0323Z" fill="white"/>
<path d="M184.573 99.0323H181.357C181.088 99.0323 180.874 99.2468 180.874 99.5162C180.874 99.7855 181.088 100 181.357 100H184.573C184.842 100 185.056 99.7855 185.056 99.5162C185.056 99.2468 184.842 99.0323 184.573 99.0323Z" fill="white"/>
<path d="M178.141 99.0323H174.926C174.657 99.0323 174.443 99.2468 174.443 99.5162C174.443 99.7855 174.657 100 174.926 100H178.141C178.41 100 178.624 99.7855 178.624 99.5162C178.624 99.2468 178.41 99.0323 178.141 99.0323Z" fill="white"/>
<path d="M203.877 99.0323H200.662C200.393 99.0323 200.179 99.2468 200.179 99.5162C200.179 99.7855 200.393 100 200.662 100H203.877C204.146 100 204.36 99.7855 204.36 99.5162C204.36 99.2468 204.146 99.0323 203.877 99.0323Z" fill="white"/>
<path d="M248.913 99.0323H245.697C245.428 99.0323 245.214 99.2468 245.214 99.5162C245.214 99.7855 245.428 100 245.697 100H248.913C249.182 100 249.396 99.7855 249.396 99.5162C249.396 99.2468 249.182 99.0323 248.913 99.0323Z" fill="white"/>
<path d="M223.177 99.0323H219.961C219.692 99.0323 219.478 99.2468 219.478 99.5162C219.478 99.7855 219.692 100 219.961 100H223.177C223.446 100 223.66 99.7855 223.66 99.5162C223.66 99.2468 223.446 99.0323 223.177 99.0323Z" fill="white"/>
<path d="M165.273 99.0323H162.057C161.789 99.0323 161.575 99.2468 161.575 99.5162C161.575 99.7855 161.789 100 162.057 100H165.273C165.542 100 165.756 99.7855 165.756 99.5162C165.756 99.2468 165.542 99.0323 165.273 99.0323Z" fill="white"/>
<path d="M268.212 99.0323H264.997C264.728 99.0323 264.514 99.2468 264.514 99.5162C264.514 99.7855 264.728 100 264.997 100H268.212C268.481 100 268.695 99.7855 268.695 99.5162C268.695 99.2468 268.481 99.0323 268.212 99.0323Z" fill="white"/>
<path d="M261.781 99.0323H258.565C258.296 99.0323 258.082 99.2468 258.082 99.5162C258.082 99.7855 258.296 100 258.565 100H261.781C262.05 100 262.264 99.7855 262.264 99.5162C262.264 99.2468 262.05 99.0323 261.781 99.0323Z" fill="white"/>
<path d="M242.481 99.0323H239.266C238.997 99.0323 238.783 99.2468 238.783 99.5162C238.783 99.7855 238.997 100 239.266 100H242.481C242.75 100 242.964 99.7855 242.964 99.5162C242.964 99.2468 242.75 99.0323 242.481 99.0323Z" fill="white"/>
<path d="M229.613 99.0323H226.398C226.129 99.0323 225.915 99.2468 225.915 99.5162C225.915 99.7855 226.129 100 226.398 100H229.613C229.882 100 230.096 99.7855 230.096 99.5162C230.096 99.2468 229.882 99.0323 229.613 99.0323Z" fill="white"/>
<path d="M236.045 99.0323H232.829C232.56 99.0323 232.346 99.2468 232.346 99.5162C232.346 99.7855 232.56 100 232.829 100H236.045C236.314 100 236.528 99.7855 236.528 99.5162C236.528 99.2468 236.314 99.0323 236.045 99.0323Z" fill="white"/>
</svg>
