<svg width="219" height="67" viewBox="0 0 219 67" fill="none" xmlns="http://www.w3.org/2000/svg">
<path d="M6.18978 49.3013H9.85495C12.5296 49.3013 14.5773 48.6062 15.998 47.2127C17.4188 45.8192 18.1291 43.8576 18.1291 41.3245C18.1291 38.7915 17.4188 36.8298 15.998 35.4363C14.5773 34.0428 12.5296 33.3477 9.85495 33.3477H0V57.2113H6.18978V49.298V49.3013ZM6.18978 38.3503H8.24414C10.5186 38.3503 11.6559 39.3428 11.6559 41.3245C11.6559 43.3062 10.5186 44.2987 8.24414 44.2987H6.18978V38.347V38.3503Z" fill="white"/>
<path d="M33.0066 42.591C31.6793 41.1775 30.0051 40.469 27.9841 40.469C26.7835 40.469 25.6896 40.6963 24.6991 41.1507C23.7086 41.6052 22.8548 42.2235 22.1411 43.0021C21.4241 43.7841 20.8672 44.6964 20.467 45.739C20.0668 46.7816 19.8667 47.8877 19.8667 49.0473C19.8667 50.2938 20.0734 51.4434 20.4836 52.496C20.8938 53.552 21.4675 54.471 22.2045 55.2496C22.9415 56.0316 23.8053 56.6365 24.7958 57.0709C25.7863 57.502 26.8702 57.7192 28.0508 57.7192C30.1352 57.7192 31.7893 56.9506 33.0099 55.4101V57.2146H38.7595V40.977H33.0099V42.591H33.0066ZM32.8965 50.5344C32.6964 50.9789 32.433 51.3699 32.1061 51.704C31.7793 52.0416 31.3891 52.3056 30.9389 52.496C30.4853 52.6865 30.0084 52.7801 29.5015 52.7801C28.9946 52.7801 28.4843 52.6865 28.0341 52.496C27.5805 52.3056 27.1903 52.0416 26.8668 51.704C26.54 51.3665 26.2832 50.9722 26.0931 50.5177C25.903 50.0632 25.8096 49.572 25.8096 49.0473C25.8096 48.5227 25.903 48.0715 26.0931 47.6371C26.2832 47.206 26.54 46.8184 26.8668 46.4809C27.1937 46.1433 27.5839 45.8793 28.0341 45.6889C28.4877 45.4984 28.9779 45.4048 29.5015 45.4048C30.0251 45.4048 30.4853 45.4984 30.9389 45.6889C31.3924 45.8793 31.7793 46.1433 32.1061 46.4809C32.433 46.8184 32.6964 47.2127 32.8965 47.6672C33.0966 48.1217 33.1967 48.5995 33.1967 49.1075C33.1967 49.6154 33.0966 50.09 32.8965 50.5311V50.5344Z" fill="white"/>
<path d="M49.0213 57.2146V45.7557H52.2763V40.977H49.0213V36.1013H43.3051V40.977H41.4108V45.7557H43.3051V57.2146H49.0213Z" fill="white"/>
<path d="M66.33 47.0222C66.4567 47.5302 66.5201 48.1918 66.5201 49.0173V57.2146H72.2363V46.8952C72.2363 44.9737 71.716 43.4499 70.6722 42.3204C69.6283 41.1908 68.0875 40.6261 66.0432 40.6261C64.9693 40.6261 64.0322 40.7898 63.2318 41.1173C62.4314 41.4448 61.641 42.0831 60.8639 43.0322V30.9417H55.1477V57.2113H60.8639V48.5394C60.8639 47.4633 61.1207 46.6346 61.6376 46.0531C62.1546 45.4716 62.8949 45.1843 63.8654 45.1843C64.5824 45.1843 65.1927 45.4048 65.6963 45.8493C65.9898 46.1233 66.2033 46.5143 66.3267 47.0189L66.33 47.0222Z" fill="white"/>
<path d="M103.589 45.1375C104.462 44.0079 104.899 42.5376 104.899 40.723C104.899 39.7104 104.736 38.7614 104.409 37.8758C104.082 36.9902 103.599 36.2083 102.955 35.5332C102.311 34.8582 101.498 34.3269 100.507 33.9359C99.5166 33.5449 98.3594 33.3511 97.0321 33.3511H87.3972V57.2146H93.587V48.0348L99.4933 57.2146H107.201L99.7134 47.4333C101.418 47.0322 102.708 46.267 103.582 45.1375H103.589ZM97.569 43.2561C96.9153 43.764 95.9782 44.0146 94.7576 44.0146H93.5903V38.1264H94.7576C95.9782 38.1264 96.9153 38.3804 97.569 38.885C98.2227 39.393 98.5495 40.1181 98.5495 41.0705C98.5495 42.0229 98.2227 42.7481 97.569 43.2561Z" fill="white"/>
<path d="M127.607 49.1108C127.607 47.8242 127.364 46.6479 126.88 45.5819C126.397 44.5159 125.716 43.6003 124.843 42.8283C123.969 42.0597 122.938 41.4582 121.748 41.0238C120.557 40.5927 119.267 40.3755 117.879 40.3755C116.492 40.3755 115.168 40.596 113.977 41.0405C112.787 41.4849 111.763 42.0898 110.899 42.8617C110.035 43.6337 109.362 44.5393 108.878 45.5853C108.394 46.6312 108.151 47.7541 108.151 48.9571C108.151 50.2871 108.394 51.4935 108.878 52.5829C109.362 53.669 110.032 54.6047 110.882 55.3833C111.736 56.1653 112.75 56.7668 113.931 57.1879C115.111 57.6089 116.395 57.8195 117.783 57.8195C119.17 57.8195 120.504 57.6089 121.714 57.1879C122.925 56.7668 123.962 56.1686 124.826 55.4C125.69 54.6314 126.367 53.7124 126.864 52.6464C127.357 51.5804 127.604 50.4041 127.604 49.1175L127.607 49.1108ZM121.274 50.521C121.074 50.9755 120.811 51.3699 120.484 51.7074C120.157 52.0449 119.767 52.3089 119.317 52.4994C118.863 52.6899 118.386 52.7834 117.879 52.7834C117.372 52.7834 116.895 52.6899 116.442 52.4994C115.988 52.3089 115.598 52.0449 115.275 51.7074C114.948 51.3699 114.684 50.9755 114.484 50.521C114.284 50.0666 114.184 49.5653 114.184 49.0173C114.184 48.5126 114.284 48.0348 114.484 47.5937C114.684 47.1492 114.948 46.7616 115.275 46.424C115.601 46.0865 115.988 45.8225 116.442 45.632C116.895 45.4416 117.372 45.348 117.879 45.348C118.386 45.348 118.863 45.4416 119.317 45.632C119.77 45.8225 120.157 46.0865 120.484 46.424C120.811 46.7616 121.074 47.1559 121.274 47.6104C121.474 48.0649 121.574 48.5427 121.574 49.0507C121.574 49.5586 121.474 50.0699 121.274 50.521Z" fill="white"/>
<path d="M139.107 57.7192C140.37 57.7192 141.708 57.4118 143.119 56.8002V51.9246C142.191 52.6631 141.191 53.0341 140.117 53.0341C139.57 53.0341 139.053 52.9405 138.57 52.75C138.086 52.5595 137.669 52.2922 137.322 51.9413C136.975 51.5938 136.702 51.1827 136.502 50.7082C136.302 50.2337 136.202 49.7123 136.202 49.1409C136.202 48.5695 136.302 48.0181 136.502 47.5435C136.702 47.069 136.982 46.658 137.339 46.3104C137.696 45.9629 138.113 45.6922 138.586 45.5017C139.06 45.3112 139.57 45.2177 140.117 45.2177C141.128 45.2177 142.128 45.5552 143.119 46.2302V41.3546C141.938 40.7631 140.654 40.469 139.267 40.469C138.003 40.469 136.819 40.6862 135.715 41.1173C134.608 41.5484 133.657 42.1499 132.857 42.9219C132.056 43.6938 131.426 44.6095 130.962 45.6755C130.499 46.7415 130.269 47.9178 130.269 49.2044C130.269 50.491 130.512 51.6573 130.996 52.7032C131.479 53.7492 132.126 54.6448 132.937 55.3933C133.747 56.1419 134.684 56.7167 135.748 57.1177C136.812 57.5187 137.933 57.7192 139.113 57.7192H139.107Z" fill="white"/>
<path d="M166.714 40.977H158.88L152.877 46.8317V30.945H147.161V57.2146H152.877V50.5979L159.163 57.2146H167.187L158.596 48.4792L166.714 40.977Z" fill="white"/>
<path d="M183.075 42.7815C182.318 41.9995 181.391 41.4047 180.294 40.9937C179.2 40.5826 177.966 40.3755 176.599 40.3755C175.231 40.3755 173.961 40.5826 172.857 40.9937C171.753 41.4047 170.809 41.9895 170.029 42.7514C169.248 43.51 168.648 44.4357 168.228 45.5218C167.808 46.6078 167.598 47.8276 167.598 49.1777C167.598 50.5277 167.818 51.6673 168.261 52.7233C168.705 53.7793 169.332 54.6849 170.142 55.4468C170.953 56.2054 171.926 56.7935 173.064 57.2046C174.201 57.6156 175.455 57.8228 176.822 57.8228C181.284 57.8228 184.076 55.9648 185.193 52.2521H179.664C179.033 53.2646 178.096 53.7726 176.852 53.7726C174.534 53.7726 173.377 52.5395 173.377 50.0699H185.413V49.4684C185.413 48.0548 185.213 46.785 184.813 45.6554C184.413 44.5259 183.832 43.5735 183.075 42.7915V42.7815ZM173.537 46.7382C173.684 45.896 174.037 45.2411 174.594 44.7766C175.151 44.3121 175.875 44.0815 176.759 44.0815C177.643 44.0815 178.316 44.3254 178.907 44.81C179.497 45.2945 179.887 45.9395 180.077 46.7415H173.537V46.7382Z" fill="white"/>
<path d="M195.268 36.1013H189.549V40.977H187.654V45.7557H189.549V57.2146H195.268V45.7557H198.52V40.977H195.268V36.1013Z" fill="white"/>
<path d="M193.947 29.2141C194.438 29.4414 196.362 30.2735 196.769 30.2601C197.179 30.2467 197.402 29.8925 197.262 29.5049C197.149 29.1874 195.888 27.9676 195.562 27.5432C194.738 26.4705 193.374 24.5624 193.777 23.1555C193.841 22.9283 194.321 22.2265 194.504 22.173C194.708 22.1129 194.995 22.3234 195.208 22.3267C195.698 22.3368 196.222 21.1905 196.642 20.8931L202.398 23.5231C202.689 23.4663 202.869 23.1722 202.812 22.8848L199.127 17.8588C199.427 17.274 200.241 16.8596 200.141 16.1545C200.094 15.817 199.864 15.7468 200.044 15.3458C200.721 13.8353 203.102 14.5237 204.266 14.9782C205.026 15.2756 207.277 16.7326 207.678 16.7928C209.085 17.0033 207.644 14.898 207.371 14.4703C204.76 10.4067 199.3 5.58451 194.174 7.91372C190.062 3.80669 184.796 0.488318 178.86 0.0705979C178.016 0.0104462 175.585 -0.0931485 174.911 0.177534C174.301 0.424825 174.844 2.54685 174.978 3.16841C176.305 9.38075 180.707 14.5605 185.937 17.9023C184.693 23.0987 189.752 27.2759 193.947 29.2141ZM194.594 28.0512C194.444 28.2316 191.463 26.4705 191.133 26.24C188.845 24.6426 186.31 21.8723 186.984 18.8547L193.441 21.782C193.244 22.2265 192.88 22.3769 192.74 22.9182C192.233 24.8999 193.677 26.4806 194.591 28.0512H194.594ZM200.384 21.4278L196.565 19.6032C194.221 18.2297 191.219 16.6357 190.896 13.6248C193.981 13.3575 196.142 16.0944 197.973 18.183L200.384 21.4278ZM205.88 14.5672C204.626 14.1495 203.446 13.314 202.068 13.3341C200.854 13.3508 200.131 13.8454 199.317 14.6775L195.245 8.76253C199.73 7.36233 203.572 11.182 205.877 14.5672H205.88ZM177.663 7.34228C177.232 7.07493 176.128 3.34219 176.002 2.66047L175.855 1.19677C177.763 1.15667 180.191 1.11657 182.018 1.72477C182.125 1.76153 182.415 1.83839 182.368 1.96538L177.996 7.24537C177.873 7.35564 177.866 7.47261 177.663 7.34562V7.34228ZM178.37 8.84941L178.44 8.46511L183.596 2.17591C188.191 3.85013 192.243 7.0482 195.345 10.8043C196.335 12.004 197.536 13.6081 198.296 14.9548C198.757 15.7735 199.313 16.3049 198.41 17.0501C196.319 14.6507 193.267 11.4125 189.762 12.6958C189.188 16.3751 192.964 18.7611 195.712 20.3451L195.111 21.0836C195.028 21.1672 194.948 21.1304 194.851 21.117C194.308 21.0402 192.053 20.0677 191.409 19.7837C186.174 17.4712 181.461 13.705 178.37 8.84941Z" fill="white"/>
<path d="M206.414 24.128L201.898 20.4721C202.722 22.3334 204.539 23.346 205.997 24.6359L206.414 24.128Z" fill="white"/>
<path d="M201.628 23.8606C201.014 23.483 200.014 23.1321 199.317 22.8815L203.546 26.3034C203.832 26.4137 204.173 26.0428 203.899 25.7186C203.636 25.4079 202.008 24.0979 201.628 23.864V23.8606Z" fill="white"/>
<path d="M203.333 23.4284L202.904 23.9535L206.273 26.7145L206.702 26.1894L203.333 23.4284Z" fill="white"/>
<path d="M207.564 24.8899L206.961 24.6927L206.664 25.1606L207.164 25.595L207.564 24.8899Z" fill="white"/>
<path d="M204.626 26.3198L204.199 26.846L204.793 27.3311L205.221 26.805L204.626 26.3198Z" fill="white"/>
<path d="M207.2 26.5976L206.773 27.1237L207.368 27.6089L207.795 27.0827L207.2 26.5976Z" fill="white"/>
<path d="M185.333 6.64385C183.886 6.78754 182.828 8.07747 182.969 9.52779C183.109 10.9781 184.399 12.0375 185.847 11.8971C187.294 11.7567 188.351 10.4635 188.211 9.01316C188.068 7.56283 186.78 6.50349 185.333 6.64385ZM185.743 10.8277C184.88 10.9113 184.112 10.2797 184.029 9.41751C183.946 8.552 184.576 7.78339 185.436 7.69984C186.297 7.6163 187.067 8.24789 187.151 9.11007C187.234 9.97559 186.604 10.7442 185.743 10.8277Z" fill="white"/>
<path d="M106.417 66.3445H104.262C104.082 66.3445 103.939 66.4882 103.939 66.6686C103.939 66.8491 104.082 66.9928 104.262 66.9928H106.417C106.597 66.9928 106.74 66.8491 106.74 66.6686C106.74 66.4882 106.597 66.3445 106.417 66.3445Z" fill="white"/>
<path d="M67.624 66.3445H65.4696C65.2895 66.3445 65.1461 66.4882 65.1461 66.6686C65.1461 66.8491 65.2895 66.9928 65.4696 66.9928H67.624C67.8041 66.9928 67.9475 66.8491 67.9475 66.6686C67.9475 66.4882 67.8041 66.3445 67.624 66.3445Z" fill="white"/>
<path d="M71.9328 66.3445H69.7784C69.5983 66.3445 69.4549 66.4882 69.4549 66.6686C69.4549 66.8491 69.5983 66.9928 69.7784 66.9928H71.9328C72.1129 66.9928 72.2563 66.8491 72.2563 66.6686C72.2563 66.4882 72.1129 66.3445 71.9328 66.3445Z" fill="white"/>
<path d="M80.5538 66.3445H78.3994C78.2193 66.3445 78.0759 66.4882 78.0759 66.6686C78.0759 66.8491 78.2193 66.9928 78.3994 66.9928H80.5538C80.7339 66.9928 80.8773 66.8491 80.8773 66.6686C80.8773 66.4882 80.7339 66.3445 80.5538 66.3445Z" fill="white"/>
<path d="M102.105 66.3445H99.9502C99.7701 66.3445 99.6267 66.4882 99.6267 66.6686C99.6267 66.8491 99.7701 66.9928 99.9502 66.9928H102.105C102.285 66.9928 102.428 66.8491 102.428 66.6686C102.428 66.4882 102.285 66.3445 102.105 66.3445Z" fill="white"/>
<path d="M89.1748 66.3445H87.0204C86.8403 66.3445 86.6969 66.4882 86.6969 66.6686C86.6969 66.8491 86.8403 66.9928 87.0204 66.9928H89.1748C89.3549 66.9928 89.4983 66.8491 89.4983 66.6686C89.4983 66.4882 89.3549 66.3445 89.1748 66.3445Z" fill="white"/>
<path d="M84.8626 66.3445H82.7082C82.5281 66.3445 82.3847 66.4882 82.3847 66.6686C82.3847 66.8491 82.5281 66.9928 82.7082 66.9928H84.8626C85.0427 66.9928 85.1861 66.8491 85.1861 66.6686C85.1861 66.4882 85.0427 66.3445 84.8626 66.3445Z" fill="white"/>
<path d="M76.2416 66.3445H74.0872C73.9071 66.3445 73.7637 66.4882 73.7637 66.6686C73.7637 66.8491 73.9071 66.9928 74.0872 66.9928H76.2416C76.4217 66.9928 76.5651 66.8491 76.5651 66.6686C76.5651 66.4882 76.4217 66.3445 76.2416 66.3445Z" fill="white"/>
<path d="M93.4836 66.3445H91.3292C91.1491 66.3445 91.0057 66.4882 91.0057 66.6686C91.0057 66.8491 91.1491 66.9928 91.3292 66.9928H93.4836C93.6637 66.9928 93.8071 66.8491 93.8071 66.6686C93.8071 66.4882 93.6637 66.3445 93.4836 66.3445Z" fill="white"/>
<path d="M63.3118 66.3445H61.1574C60.9773 66.3445 60.8339 66.4882 60.8339 66.6686C60.8339 66.8491 60.9773 66.9928 61.1574 66.9928H63.3118C63.4919 66.9928 63.6353 66.8491 63.6353 66.6686C63.6353 66.4882 63.4919 66.3445 63.3118 66.3445Z" fill="white"/>
<path d="M97.7958 66.3445H95.6414C95.4613 66.3445 95.3179 66.4882 95.3179 66.6686C95.3179 66.8491 95.4613 66.9928 95.6414 66.9928H97.7958C97.9759 66.9928 98.1193 66.8491 98.1193 66.6686C98.1193 66.4882 97.9759 66.3445 97.7958 66.3445Z" fill="white"/>
<path d="M33.14 66.3445H30.9856C30.8055 66.3445 30.6621 66.4882 30.6621 66.6686C30.6621 66.8491 30.8055 66.9928 30.9856 66.9928H33.14C33.3201 66.9928 33.4635 66.8491 33.4635 66.6686C33.4635 66.4882 33.3201 66.3445 33.14 66.3445Z" fill="white"/>
<path d="M11.5892 66.3445H9.43474C9.25465 66.3445 9.11124 66.4882 9.11124 66.6686C9.11124 66.8491 9.25465 66.9928 9.43474 66.9928H11.5892C11.7692 66.9928 11.9127 66.8491 11.9127 66.6686C11.9127 66.4882 11.7692 66.3445 11.5892 66.3445Z" fill="white"/>
<path d="M2.96815 66.3445H0.810404C0.630313 66.3445 0.486908 66.4882 0.486908 66.6686C0.486908 66.8491 0.630313 66.9928 0.810404 66.9928H2.96482C3.14491 66.9928 3.28832 66.8491 3.28832 66.6686C3.28832 66.4882 3.14491 66.3445 2.96482 66.3445H2.96815Z" fill="white"/>
<path d="M59.003 66.3445H56.8486C56.6685 66.3445 56.5251 66.4882 56.5251 66.6686C56.5251 66.8491 56.6685 66.9928 56.8486 66.9928H59.003C59.1831 66.9928 59.3265 66.8491 59.3265 66.6686C59.3265 66.4882 59.1831 66.3445 59.003 66.3445Z" fill="white"/>
<path d="M15.898 66.3445H13.7436C13.5635 66.3445 13.4201 66.4882 13.4201 66.6686C13.4201 66.8491 13.5635 66.9928 13.7436 66.9928H15.898C16.0781 66.9928 16.2215 66.8491 16.2215 66.6686C16.2215 66.4882 16.0781 66.3445 15.898 66.3445Z" fill="white"/>
<path d="M214.141 31.9377C214.204 32.0245 214.304 32.0747 214.404 32.0747C214.468 32.0747 214.534 32.0546 214.591 32.0145C214.738 31.9109 214.771 31.7071 214.664 31.5634C214.238 30.9652 213.731 30.4105 213.164 29.9159C213.03 29.7989 212.827 29.8123 212.707 29.9493C212.59 30.083 212.603 30.2902 212.74 30.4071C213.27 30.8683 213.741 31.3829 214.138 31.941L214.141 31.9377Z" fill="white"/>
<path d="M209.115 28.3687C209.799 28.6026 210.442 28.8866 211.033 29.2141C211.083 29.2409 211.136 29.2542 211.189 29.2542C211.303 29.2542 211.413 29.1941 211.473 29.0871C211.56 28.9301 211.503 28.7329 211.346 28.646C210.723 28.3018 210.046 28.0011 209.325 27.7538C209.158 27.697 208.972 27.7872 208.915 27.9543C208.858 28.1247 208.945 28.3085 209.115 28.3653V28.3687Z" fill="white"/>
<path d="M215.688 35.7673C215.715 35.9277 215.852 36.0413 216.008 36.0413C216.025 36.0413 216.042 36.0413 216.059 36.038C216.235 36.0113 216.355 35.8442 216.329 35.6671C216.212 34.9252 216.012 34.2 215.738 33.5183C215.672 33.3512 215.482 33.271 215.318 33.3379C215.151 33.4047 215.071 33.5918 215.138 33.7589C215.395 34.3972 215.578 35.0722 215.688 35.7673Z" fill="white"/>
<path d="M20.2068 66.3445H18.0524C17.8723 66.3445 17.7289 66.4882 17.7289 66.6686C17.7289 66.8491 17.8723 66.9928 18.0524 66.9928H20.2068C20.3869 66.9928 20.5303 66.8491 20.5303 66.6686C20.5303 66.4882 20.3869 66.3445 20.2068 66.3445Z" fill="white"/>
<path d="M7.27699 66.3445H5.12257C4.94248 66.3445 4.79908 66.4882 4.79908 66.6686C4.79908 66.8491 4.94248 66.9928 5.12257 66.9928H7.27699C7.45708 66.9928 7.60048 66.8491 7.60048 66.6686C7.60048 66.4882 7.45708 66.3445 7.27699 66.3445Z" fill="white"/>
<path d="M46.0698 66.3445H43.9154C43.7353 66.3445 43.5919 66.4882 43.5919 66.6686C43.5919 66.8491 43.7353 66.9928 43.9154 66.9928H46.0698C46.2499 66.9928 46.3933 66.8491 46.3933 66.6686C46.3933 66.4882 46.2499 66.3445 46.0698 66.3445Z" fill="white"/>
<path d="M50.382 66.3445H48.2276C48.0475 66.3445 47.9041 66.4882 47.9041 66.6686C47.9041 66.8491 48.0475 66.9928 48.2276 66.9928H50.382C50.5621 66.9928 50.7055 66.8491 50.7055 66.6686C50.7055 66.4882 50.5621 66.3445 50.382 66.3445Z" fill="white"/>
<path d="M54.6908 66.3445H52.5364C52.3563 66.3445 52.2129 66.4882 52.2129 66.6686C52.2129 66.8491 52.3563 66.9928 52.5364 66.9928H54.6908C54.8709 66.9928 55.0143 66.8491 55.0143 66.6686C55.0143 66.4882 54.8709 66.3445 54.6908 66.3445Z" fill="white"/>
<path d="M24.519 66.3445H22.3646C22.1845 66.3445 22.0411 66.4882 22.0411 66.6686C22.0411 66.8491 22.1845 66.9928 22.3646 66.9928H24.519C24.6991 66.9928 24.8425 66.8491 24.8425 66.6686C24.8425 66.4882 24.6991 66.3445 24.519 66.3445Z" fill="white"/>
<path d="M41.761 66.3445H39.6066C39.4265 66.3445 39.2831 66.4882 39.2831 66.6686C39.2831 66.8491 39.4265 66.9928 39.6066 66.9928H41.761C41.9411 66.9928 42.0845 66.8491 42.0845 66.6686C42.0845 66.4882 41.9411 66.3445 41.761 66.3445Z" fill="white"/>
<path d="M28.8278 66.3445H26.6734C26.4933 66.3445 26.3499 66.4882 26.3499 66.6686C26.3499 66.8491 26.4933 66.9928 26.6734 66.9928H28.8278C29.0079 66.9928 29.1513 66.8491 29.1513 66.6686C29.1513 66.4882 29.0079 66.3445 28.8278 66.3445Z" fill="white"/>
<path d="M37.4488 66.3445H35.2944C35.1143 66.3445 34.9709 66.4882 34.9709 66.6686C34.9709 66.8491 35.1143 66.9928 35.2944 66.9928H37.4488C37.6289 66.9928 37.7723 66.8491 37.7723 66.6686C37.7723 66.4882 37.6289 66.3445 37.4488 66.3445Z" fill="white"/>
<path d="M209.275 48.4226C208.725 49.0442 208.278 49.6056 207.904 50.1336C207.801 50.2806 207.834 50.4811 207.981 50.5847C208.038 50.6248 208.105 50.6449 208.168 50.6449C208.268 50.6449 208.368 50.5981 208.431 50.5078C208.792 49.9999 209.225 49.4585 209.759 48.8537C209.875 48.72 209.865 48.5162 209.732 48.3959C209.599 48.2789 209.395 48.2889 209.275 48.4226Z" fill="white"/>
<path d="M208.285 55.0426C208.125 54.9624 207.931 55.0292 207.851 55.1863C207.571 55.7511 207.294 56.3893 206.987 57.198C206.971 57.2381 206.964 57.2782 206.967 57.3183C206.894 57.0042 206.837 56.6834 206.797 56.3559C206.777 56.1788 206.614 56.0552 206.44 56.0719C206.264 56.0919 206.137 56.2523 206.157 56.4294C206.247 57.1947 206.427 57.9232 206.694 58.6016C206.744 58.7286 206.867 58.8054 206.994 58.8054C207.034 58.8054 207.074 58.7988 207.114 58.782C207.281 58.7152 207.361 58.5281 207.294 58.361C207.177 58.0702 207.081 57.7661 207.001 57.4554C207.034 57.5255 207.097 57.5824 207.174 57.6124C207.341 57.6759 207.528 57.5924 207.591 57.4253C207.891 56.6366 208.158 56.0151 208.428 55.4704C208.508 55.3099 208.445 55.1161 208.285 55.0359V55.0426Z" fill="white"/>
<path d="M206.654 59.0394C206.487 58.9759 206.3 59.0594 206.237 59.2265C205.93 60.0285 205.673 60.6334 205.4 61.1814C205.32 61.3418 205.383 61.5357 205.543 61.6159C205.59 61.6393 205.64 61.6493 205.687 61.6493C205.807 61.6493 205.92 61.5824 205.977 61.4688C206.26 60.9007 206.527 60.2792 206.841 59.4571C206.904 59.29 206.821 59.1029 206.654 59.0394Z" fill="white"/>
<path d="M204.299 62.9559C204.129 63.1698 203.949 63.377 203.766 63.5708C203.479 63.8649 203.162 64.1422 202.819 64.3895C202.675 64.4931 202.642 64.697 202.749 64.8407C202.812 64.9276 202.909 64.9743 203.012 64.9743C203.079 64.9743 203.145 64.9543 203.202 64.9108C203.572 64.6402 203.919 64.3427 204.233 64.0186C204.433 63.8114 204.629 63.5875 204.813 63.3536C204.923 63.2132 204.9 63.0094 204.759 62.8991C204.619 62.7888 204.416 62.8122 204.306 62.9526L204.299 62.9559Z" fill="white"/>
<path d="M209.869 61.4521C209.288 61.1179 208.768 60.6768 208.325 60.1355C208.211 59.9951 208.008 59.9784 207.871 60.092C207.734 60.2056 207.714 60.4095 207.828 60.5465C208.321 61.148 208.902 61.6393 209.549 62.0135C209.599 62.0436 209.655 62.057 209.709 62.057C209.822 62.057 209.929 62.0002 209.989 61.8932C210.079 61.7395 210.025 61.539 209.869 61.4521Z" fill="white"/>
<path d="M192.623 66.3445H190.469C190.289 66.3445 190.146 66.4882 190.146 66.6686C190.146 66.8491 190.289 66.9928 190.469 66.9928H192.623C192.804 66.9928 192.947 66.8491 192.947 66.6686C192.947 66.4882 192.804 66.3445 192.623 66.3445Z" fill="white"/>
<path d="M201.004 65.3921C200.391 65.6427 199.717 65.8465 199 66.0003C198.827 66.037 198.713 66.2075 198.75 66.3846C198.783 66.5383 198.917 66.6419 199.067 66.6419C199.09 66.6419 199.11 66.6419 199.133 66.6352C199.89 66.4748 200.601 66.2609 201.248 65.9936C201.415 65.9267 201.491 65.7363 201.425 65.5725C201.358 65.4088 201.168 65.3286 201.004 65.3954V65.3921Z" fill="white"/>
<path d="M188.311 66.3445H186.157C185.977 66.3445 185.833 66.4882 185.833 66.6686C185.833 66.8491 185.977 66.9928 186.157 66.9928H188.311C188.491 66.9928 188.635 66.8491 188.635 66.6686C188.635 66.4882 188.491 66.3445 188.311 66.3445Z" fill="white"/>
<path d="M210.656 51.7543C210.372 51.9381 210.106 52.1453 209.865 52.3692C209.565 52.6466 209.282 52.9607 209.015 53.3016C208.905 53.4419 208.932 53.6458 209.072 53.756C209.132 53.8028 209.202 53.8262 209.272 53.8262C209.368 53.8262 209.462 53.7828 209.525 53.7026C209.769 53.3884 210.032 53.101 210.306 52.8471C210.519 52.6466 210.753 52.4661 211.006 52.3024C211.156 52.2055 211.199 52.005 211.103 51.8546C211.006 51.7042 210.806 51.6608 210.656 51.7577V51.7543Z" fill="white"/>
<path d="M206.444 54.5647C206.444 54.5647 206.474 54.5681 206.49 54.5681C206.647 54.5681 206.787 54.4511 206.811 54.2907C206.907 53.619 207.094 52.9741 207.387 52.3124C207.461 52.1486 207.387 51.9582 207.224 51.8846C207.064 51.8111 206.871 51.8846 206.797 52.0484C206.48 52.7635 206.277 53.4653 206.17 54.1971C206.144 54.3743 206.267 54.538 206.444 54.5647Z" fill="white"/>
<path d="M196.909 66.291C196.499 66.3211 196.072 66.3411 195.642 66.3445H194.781C194.601 66.3445 194.458 66.4882 194.458 66.6686C194.458 66.8491 194.601 66.9928 194.781 66.9928H195.645C196.095 66.9894 196.535 66.9694 196.959 66.9393C197.136 66.9259 197.272 66.7722 197.259 66.5918C197.246 66.4146 197.092 66.2877 196.912 66.2943L196.909 66.291Z" fill="white"/>
<path d="M212.677 45.2345C212.543 45.1142 212.34 45.1243 212.22 45.2579C211.763 45.7659 211.289 46.2605 210.823 46.755L210.753 46.8286C210.629 46.9589 210.636 47.1627 210.763 47.2864C210.826 47.3465 210.906 47.3766 210.986 47.3766C211.073 47.3766 211.156 47.3432 211.219 47.2764L211.289 47.2028C211.763 46.7049 212.24 46.2037 212.7 45.6924C212.82 45.5587 212.81 45.3548 212.677 45.2345Z" fill="white"/>
<path d="M217.256 60.0486C216.846 60.5833 216.335 61.0277 215.738 61.3686C215.585 61.4588 215.528 61.656 215.618 61.8097C215.678 61.9133 215.788 61.9734 215.898 61.9734C215.952 61.9734 216.008 61.9601 216.059 61.93C216.732 61.5457 217.309 61.0444 217.769 60.4396C217.879 60.2992 217.849 60.0954 217.709 59.9851C217.566 59.8781 217.366 59.9049 217.256 60.0452V60.0486Z" fill="white"/>
<path d="M218.376 53.9699C218.043 53.2715 217.586 52.6566 217.026 52.1486C216.892 52.0283 216.689 52.0384 216.569 52.172C216.449 52.3057 216.459 52.5096 216.592 52.6299C217.092 53.0843 217.496 53.6291 217.796 54.254C217.853 54.3709 217.966 54.4378 218.086 54.4378C218.133 54.4378 218.18 54.4277 218.226 54.4043C218.386 54.3275 218.456 54.1337 218.376 53.9733V53.9699Z" fill="white"/>
<path d="M218.97 56.1521C218.953 55.975 218.793 55.8413 218.62 55.858C218.443 55.8747 218.31 56.0318 218.326 56.2089C218.343 56.3793 218.35 56.5531 218.35 56.7269C218.35 57.2415 218.283 57.7461 218.15 58.234C218.103 58.4078 218.203 58.5849 218.376 58.6317C218.406 58.6384 218.433 58.6417 218.463 58.6417C218.606 58.6417 218.737 58.5481 218.777 58.4044C218.923 57.8631 219 57.2983 219 56.7269C219 56.533 218.99 56.3426 218.973 56.1521H218.97Z" fill="white"/>
<path d="M215.705 40.3121C215.732 40.3188 215.762 40.3221 215.788 40.3221C215.932 40.3221 216.062 40.2252 216.102 40.0815C216.289 39.3697 216.405 38.6279 216.442 37.886C216.452 37.7055 216.315 37.5552 216.135 37.5451C215.955 37.5351 215.805 37.6721 215.795 37.8526C215.758 38.551 215.652 39.2461 215.475 39.9178C215.428 40.0916 215.532 40.2687 215.705 40.3155V40.3121Z" fill="white"/>
<path d="M215.151 41.7157C214.991 41.6321 214.798 41.6923 214.715 41.8527C214.411 42.4341 214.041 43.0123 213.581 43.6238C213.474 43.7675 213.504 43.968 213.644 44.0783C213.701 44.1217 213.771 44.1418 213.837 44.1418C213.937 44.1418 214.034 44.0983 214.098 44.0115C214.578 43.3732 214.965 42.765 215.288 42.1534C215.372 41.9964 215.312 41.7992 215.151 41.7157Z" fill="white"/>
<path d="M213.821 62.0503C213.541 62.1004 213.244 62.1372 212.94 62.1539C212.82 62.1606 212.7 62.1639 212.58 62.1639C212.31 62.1539 212.043 62.1439 211.78 62.1071C211.603 62.077 211.44 62.204 211.413 62.3811C211.386 62.5582 211.51 62.722 211.686 62.7487C211.976 62.7888 212.273 62.8122 212.57 62.8122C212.704 62.8189 212.84 62.8089 212.977 62.7989C213.304 62.7788 213.627 62.742 213.934 62.6852C214.111 62.6552 214.228 62.4847 214.194 62.3076C214.164 62.1305 213.994 62.0135 213.817 62.047L213.821 62.0503Z" fill="white"/>
<path d="M215.045 51.0091C214.331 50.8053 213.547 50.7752 212.764 50.9155C212.587 50.949 212.47 51.116 212.503 51.2932C212.533 51.4703 212.7 51.5839 212.88 51.5538C213.564 51.4302 214.251 51.4569 214.868 51.634C214.898 51.644 214.928 51.6474 214.955 51.6474C215.095 51.6474 215.225 51.5538 215.265 51.4135C215.315 51.2397 215.215 51.0626 215.041 51.0124L215.045 51.0091Z" fill="white"/>
<path d="M171.073 66.3445H168.918C168.738 66.3445 168.595 66.4882 168.595 66.6686C168.595 66.8491 168.738 66.9928 168.918 66.9928H171.073C171.253 66.9928 171.396 66.8491 171.396 66.6686C171.396 66.4882 171.253 66.3445 171.073 66.3445Z" fill="white"/>
<path d="M127.968 66.3445H125.813C125.633 66.3445 125.49 66.4882 125.49 66.6686C125.49 66.8491 125.633 66.9928 125.813 66.9928H127.968C128.148 66.9928 128.291 66.8491 128.291 66.6686C128.291 66.4882 128.148 66.3445 127.968 66.3445Z" fill="white"/>
<path d="M184.002 66.3445H181.848C181.668 66.3445 181.524 66.4882 181.524 66.6686C181.524 66.8491 181.668 66.9928 181.848 66.9928H184.002C184.182 66.9928 184.326 66.8491 184.326 66.6686C184.326 66.4882 184.182 66.3445 184.002 66.3445Z" fill="white"/>
<path d="M145.21 66.3445H143.055C142.875 66.3445 142.732 66.4882 142.732 66.6686C142.732 66.8491 142.875 66.9928 143.055 66.9928H145.21C145.39 66.9928 145.533 66.8491 145.533 66.6686C145.533 66.4882 145.39 66.3445 145.21 66.3445Z" fill="white"/>
<path d="M140.897 66.3445H138.743C138.563 66.3445 138.42 66.4882 138.42 66.6686C138.42 66.8491 138.563 66.9928 138.743 66.9928H140.897C141.078 66.9928 141.221 66.8491 141.221 66.6686C141.221 66.4882 141.078 66.3445 140.897 66.3445Z" fill="white"/>
<path d="M132.276 66.3445H130.122C129.942 66.3445 129.799 66.4882 129.799 66.6686C129.799 66.8491 129.942 66.9928 130.122 66.9928H132.276C132.457 66.9928 132.6 66.8491 132.6 66.6686C132.6 66.4882 132.457 66.3445 132.276 66.3445Z" fill="white"/>
<path d="M115.038 66.3445H112.883C112.703 66.3445 112.56 66.4882 112.56 66.6686C112.56 66.8491 112.703 66.9928 112.883 66.9928H115.038C115.218 66.9928 115.361 66.8491 115.361 66.6686C115.361 66.4882 115.218 66.3445 115.038 66.3445Z" fill="white"/>
<path d="M123.655 66.3445H121.501C121.321 66.3445 121.178 66.4882 121.178 66.6686C121.178 66.8491 121.321 66.9928 121.501 66.9928H123.655C123.836 66.9928 123.979 66.8491 123.979 66.6686C123.979 66.4882 123.836 66.3445 123.655 66.3445Z" fill="white"/>
<path d="M119.347 66.3445H117.192C117.012 66.3445 116.869 66.4882 116.869 66.6686C116.869 66.8491 117.012 66.9928 117.192 66.9928H119.347C119.527 66.9928 119.67 66.8491 119.67 66.6686C119.67 66.4882 119.527 66.3445 119.347 66.3445Z" fill="white"/>
<path d="M136.589 66.3445H134.434C134.254 66.3445 134.111 66.4882 134.111 66.6686C134.111 66.8491 134.254 66.9928 134.434 66.9928H136.589C136.769 66.9928 136.912 66.8491 136.912 66.6686C136.912 66.4882 136.769 66.3445 136.589 66.3445Z" fill="white"/>
<path d="M166.76 66.3445H164.606C164.426 66.3445 164.283 66.4882 164.283 66.6686C164.283 66.8491 164.426 66.9928 164.606 66.9928H166.76C166.941 66.9928 167.084 66.8491 167.084 66.6686C167.084 66.4882 166.941 66.3445 166.76 66.3445Z" fill="white"/>
<path d="M149.518 66.3445H147.364C147.184 66.3445 147.041 66.4882 147.041 66.6686C147.041 66.8491 147.184 66.9928 147.364 66.9928H149.518C149.699 66.9928 149.842 66.8491 149.842 66.6686C149.842 66.4882 149.699 66.3445 149.518 66.3445Z" fill="white"/>
<path d="M110.726 66.3445H108.571C108.391 66.3445 108.248 66.4882 108.248 66.6686C108.248 66.8491 108.391 66.9928 108.571 66.9928H110.726C110.906 66.9928 111.049 66.8491 111.049 66.6686C111.049 66.4882 110.906 66.3445 110.726 66.3445Z" fill="white"/>
<path d="M179.69 66.3445H177.536C177.356 66.3445 177.212 66.4882 177.212 66.6686C177.212 66.8491 177.356 66.9928 177.536 66.9928H179.69C179.87 66.9928 180.014 66.8491 180.014 66.6686C180.014 66.4882 179.87 66.3445 179.69 66.3445Z" fill="white"/>
<path d="M175.381 66.3445H173.227C173.047 66.3445 172.904 66.4882 172.904 66.6686C172.904 66.8491 173.047 66.9928 173.227 66.9928H175.381C175.562 66.9928 175.705 66.8491 175.705 66.6686C175.705 66.4882 175.562 66.3445 175.381 66.3445Z" fill="white"/>
<path d="M162.452 66.3445H160.297C160.117 66.3445 159.974 66.4882 159.974 66.6686C159.974 66.8491 160.117 66.9928 160.297 66.9928H162.452C162.632 66.9928 162.775 66.8491 162.775 66.6686C162.775 66.4882 162.632 66.3445 162.452 66.3445Z" fill="white"/>
<path d="M153.831 66.3445H151.676C151.496 66.3445 151.353 66.4882 151.353 66.6686C151.353 66.8491 151.496 66.9928 151.676 66.9928H153.831C154.011 66.9928 154.154 66.8491 154.154 66.6686C154.154 66.4882 154.011 66.3445 153.831 66.3445Z" fill="white"/>
<path d="M158.139 66.3445H155.985C155.805 66.3445 155.662 66.4882 155.662 66.6686C155.662 66.8491 155.805 66.9928 155.985 66.9928H158.139C158.32 66.9928 158.463 66.8491 158.463 66.6686C158.463 66.4882 158.32 66.3445 158.139 66.3445Z" fill="white"/>
</svg>
