<svg width="143" height="123" viewBox="0 0 143 123" fill="none" xmlns="http://www.w3.org/2000/svg">
<path d="M71.4658 50.416L94.9229 74.8027L94.9297 74.8096L95.0117 74.9219C95.0801 75.0331 95.108 75.1431 95.0957 75.2607C95.0812 75.3986 95.0093 75.5323 94.9492 75.6543C94.9339 75.6856 94.9048 75.7248 94.8779 75.7588C94.8471 75.7977 94.8065 75.8468 94.7578 75.9033C94.6602 76.0168 94.5271 76.1655 94.3711 76.3369C94.0588 76.6801 93.6509 77.1177 93.2402 77.5508C92.8297 77.9838 92.4151 78.4139 92.0898 78.7432C91.9274 78.9076 91.7862 79.0475 91.6787 79.1504C91.6251 79.2017 91.5789 79.2448 91.542 79.2773C91.5221 79.2949 91.4979 79.3112 91.4766 79.3271L91.4756 79.3291L91.3691 79.4414L91.2598 79.332L74.2344 62.208V122.15H68.7168V62.2158L52.1338 79.4541L52.0996 79.4893L52.0518 79.498C52.0067 79.5059 51.9659 79.495 51.9424 79.4873C51.9158 79.4786 51.889 79.4664 51.8643 79.4531C51.8143 79.4263 51.7562 79.3877 51.6934 79.3418C51.5667 79.2493 51.4058 79.1156 51.2236 78.9561C50.8584 78.6361 50.3986 78.2018 49.9434 77.7539C49.4878 77.3057 49.0342 76.8421 48.6816 76.4639C48.5056 76.275 48.3541 76.106 48.2393 75.9707C48.1844 75.9061 48.1341 75.8456 48.0938 75.792L48.0049 75.6553C47.9447 75.5331 47.8729 75.3989 47.8584 75.2607C47.842 75.1039 47.8969 74.9602 48.0244 74.8096L48.0303 74.8027L71.249 50.417L71.3574 50.3037L71.4658 50.416ZM48.9795 0.853516H57.1318V0.925781L57.1748 0.857422C58.3768 1.24865 59.591 1.47711 60.8193 1.70703C62.0448 1.93642 63.2847 2.1672 64.5225 2.56348C73.1035 5.31451 80.4469 12.1229 85.1191 20.0283C101.969 11.9244 122.129 22.2463 125.811 41.3828C134.623 44.9615 140.398 53.5406 142.07 63.1943L142.073 63.2129L142.072 63.2314C141.985 64.4327 142.044 65.7201 142.097 67.0137C142.149 68.3032 142.194 69.599 142.072 70.7988C141.537 76.0623 138.439 82.0201 134.185 86.6602C129.932 91.298 124.495 94.6512 119.257 94.6514H79.1543V88.8525H117.298C120.152 88.8525 123.398 87.5795 126.309 85.6689C129.218 83.7594 131.773 81.2251 133.255 78.7256C140.882 65.8594 134.311 49.6062 120.726 45.79L120.626 45.7627L120.617 45.6592C119.001 27.414 101.046 17.872 85.876 26.5557L85.1562 26.9824C85.0256 27.063 84.825 27.2166 84.5859 27.4062C84.3504 27.5931 84.0809 27.8121 83.8203 28.0117C83.5605 28.2108 83.302 28.3967 83.0869 28.5195C82.9802 28.5805 82.8768 28.631 82.7842 28.6572C82.7002 28.681 82.58 28.698 82.4824 28.6279L82.4424 28.5996L82.4277 28.5527C75.6367 7.77088 51.4447 0.133449 34.6104 13.208C25.1998 20.5183 20.4131 33.499 22.7012 45.6494L22.7275 45.7891L22.5889 45.8232C8.74033 49.1383 2.04803 65.8125 9.70215 78.7256C11.1852 81.227 13.7416 83.7617 16.6504 85.6709C19.5606 87.581 22.8049 88.8525 25.6592 88.8525H63.8027V94.6514H23.7012C23.0516 94.6514 22.221 94.4864 21.3135 94.2236C20.4037 93.9602 19.4064 93.5952 18.4199 93.1855C16.694 92.4689 14.9917 91.6143 13.8359 90.9287L13.376 90.6455C-4.70363 79.1017 -2.81518 50.4859 16.4814 41.7598C15.4408 24.6708 25.8571 8.31834 41.1748 2.83105C43.1356 2.13027 46.9458 1.03898 48.9658 0.854492L48.9795 0.852539V0.853516Z" fill="#6366F1" stroke="#6366F1" stroke-width="0.3"/>
</svg>
