<svg width="29" height="29" viewBox="0 0 29 29" fill="none" xmlns="http://www.w3.org/2000/svg">
<path d="M29 14.5C29 22.5081 22.5081 29 14.5 29C6.49189 29 0 22.5081 0 14.5C0 6.49189 6.49189 0 14.5 0C22.5081 0 29 6.49189 29 14.5ZM26.9448 14.5C26.9448 7.62871 21.3741 2.05803 14.5028 2.05803C7.63151 2.05803 2.05943 7.62871 2.05943 14.5C2.05943 21.3713 7.63011 26.942 14.5014 26.942C21.3727 26.942 26.9434 21.3713 26.9434 14.5H26.9448ZM13.6698 17.2244C14.3544 17.9958 15.8636 17.0452 16.5762 16.642C19.2209 15.1482 21.5561 12.9474 20.4221 9.63073C19.0753 5.68968 13.5564 4.99807 11.1512 8.41832C10.5855 9.22333 9.71613 11.4746 11.3178 11.6034C12.421 11.693 12.3468 10.5743 12.6478 9.91494C13.6838 7.64831 17.3126 7.94931 18.2815 10.2285C19.1215 12.2054 17.7074 13.4192 16.2136 14.4608C15.69 14.8262 14.0324 15.5794 13.7664 15.8636C13.5004 16.1478 13.3716 16.8912 13.667 17.223L13.6698 17.2244ZM14.5056 19.6871C13.9302 19.6871 13.4654 20.1533 13.4654 20.7273C13.4654 21.3013 13.9316 21.7675 14.5056 21.7675C15.0796 21.7675 15.5458 21.3013 15.5458 20.7273C15.5458 20.1533 15.0796 19.6871 14.5056 19.6871Z" fill="white" fill-opacity="0.8"/>
</svg>
