<svg width="107" height="109" viewBox="0 0 107 109" fill="none" xmlns="http://www.w3.org/2000/svg">
<path opacity="0.3" d="M35.0908 81.8828L64.3818 81.9473L64.4561 81.9482L64.5186 81.9893C65.326 82.5233 65.6647 83.3256 65.498 84.0547C65.3306 84.7872 64.6734 85.3603 63.6719 85.4756L63.6572 85.4775H35.6807V85.4766C34.6195 85.497 33.9737 84.6978 33.8291 83.8799C33.7563 83.4683 33.8044 83.0309 34 82.6631C34.1987 82.2896 34.5449 81.9993 35.0361 81.8887L35.0635 81.8828H35.0908ZM74.1494 66.1221L95.9307 84.9111L103.159 76.874L81.377 58.084L74.1494 66.1221ZM35.4688 72.4287H63.6572L63.6719 72.4307C64.9101 72.5733 65.5579 73.4017 65.541 74.2734C65.5242 75.1383 64.8527 75.955 63.668 76.0732L63.6553 76.0742H63.6426L35.0967 76.0137V75.7754L35.043 76.0068C34.9773 75.9917 34.897 75.9566 34.8281 75.9238C34.7529 75.888 34.6684 75.8433 34.5869 75.7969C34.5057 75.7506 34.4242 75.7011 34.3555 75.6543C34.2952 75.6132 34.2188 75.557 34.1709 75.499C33.7492 74.9871 33.6906 74.2028 33.9053 73.5742C34.1223 72.939 34.6509 72.3825 35.4688 72.4287ZM49.9609 15.5205C37.2119 15.5207 26.8838 25.6418 26.8838 38.1162C26.8839 50.5905 37.212 60.7117 49.9609 60.7119C62.7101 60.7119 73.038 50.5906 73.0381 38.1162C73.0381 25.6417 62.7101 15.5205 49.9609 15.5205ZM75.5186 13.0234C75.5186 13.1558 75.6059 13.3843 75.8037 13.6826C75.9936 13.9689 76.2597 14.2818 76.5557 14.5723C76.8516 14.8627 77.1707 15.1246 77.4639 15.3115C77.7681 15.5056 78.0057 15.5937 78.1484 15.5938H84.8672L75.5186 7.00879V13.0234ZM106.25 78.4297L106.177 78.5029C105.958 78.7218 105.815 78.9889 105.666 79.2969C105.522 79.5953 105.368 79.9413 105.132 80.252L105.133 80.2529C104.651 80.8891 103.221 82.5253 101.776 84.0732C101.053 84.8486 100.322 85.6061 99.6992 86.208C99.3883 86.5087 99.1025 86.7727 98.8574 86.9814C98.6164 87.1867 98.4013 87.3504 98.2344 87.4395C95.6949 88.7907 93.3371 87.6573 91.5264 86.0127V96.8213C91.5263 96.9421 91.4816 97.0653 91.4307 97.1709C91.3768 97.2826 91.302 97.4027 91.2158 97.5244C91.0432 97.7683 90.8101 98.0375 90.5605 98.2871C90.3111 98.5366 90.0391 98.7738 89.7852 98.9502C89.6583 99.0383 89.5307 99.1148 89.4102 99.1699C89.2936 99.2232 89.1637 99.2656 89.0361 99.2656H81.2852V106.015C81.2852 106.25 81.1596 106.487 81.0156 106.688C80.8652 106.899 80.6634 107.113 80.4512 107.311C80.0282 107.704 79.5307 108.062 79.2324 108.221L79.1777 108.25H3.08105L3.02539 108.22C1.73752 107.519 0.902101 106.504 0.750977 105.006L0.75 104.993V104.98L0.87207 59.3135V59.2207L0.932617 59.1514C1.13391 58.9174 1.32561 58.6791 1.55957 58.5098C1.80947 58.3289 2.10042 58.2282 2.50098 58.2246C2.86912 58.221 3.34256 58.39 3.7168 58.6221C3.90719 58.7402 4.08646 58.8828 4.2207 59.0439C4.35314 59.2029 4.45898 59.4014 4.45898 59.624V104.617H77.5752V99.2656H13.4932C13.2593 99.2656 12.9884 99.1513 12.7402 99.0098C12.482 98.8624 12.2087 98.6623 11.96 98.4443C11.7115 98.2266 11.4804 97.9843 11.3086 97.751C11.1462 97.5304 11.002 97.272 11.002 97.0303V13.376H4.46191V53.3525C4.46191 53.5669 4.32071 53.7423 4.19141 53.8623C4.05158 53.992 3.86807 54.1107 3.67676 54.209C3.30214 54.4014 2.83044 54.5519 2.49805 54.543C2.00968 54.5295 1.58168 54.4168 1.26758 54.1455C0.94816 53.8695 0.785778 53.4637 0.758789 52.9512L0.757812 52.9375L1.00879 52.9385L0.758789 52.9375L0.861328 11.8652V11.8496L0.863281 11.834C0.890714 11.6185 1.02091 11.3837 1.1709 11.1729C1.32695 10.9534 1.52894 10.7261 1.74219 10.5215C1.95545 10.3169 2.18612 10.1282 2.40039 9.98926C2.50728 9.91996 2.61459 9.8606 2.7168 9.81738C2.81588 9.77552 2.92787 9.74121 3.03809 9.74121H10.7891V3.4082L10.7949 3.29883C10.8227 3.04101 10.9424 2.77114 11.0996 2.52051C11.2829 2.22842 11.5346 1.93496 11.8164 1.6748C12.0982 1.41462 12.4165 1.1814 12.7373 1.01465C13.0515 0.851327 13.388 0.742626 13.7031 0.751953V0.750977L13.71 0.751953L13.7119 0.750977L13.7109 0.751953L74.2109 0.851562H74.2891L74.3535 0.896484C76.1967 2.1879 77.8516 3.80812 79.4932 5.31152C83.0244 8.54587 86.5067 11.8795 89.9033 15.252L91.3535 16.6992L91.4258 16.7725V16.875L91.5264 35.3848V35.3994L91.5254 35.415C91.4823 35.7759 91.401 36.052 91.2832 36.2705C91.1634 36.4925 91.0124 36.6429 90.8496 36.7598C90.6966 36.8696 90.5203 36.9566 90.3779 37.0361C90.2278 37.1199 90.0862 37.2089 89.9502 37.3379L89.8145 37.1943L89.542 37.2412C89.5556 37.2801 89.5768 37.2998 89.5801 37.3027C89.5778 37.3012 89.5722 37.2981 89.5625 37.293C89.528 37.2746 89.4726 37.2525 89.3926 37.2246C89.25 37.175 89.012 37.1028 88.8047 37.0244C88.5897 36.9431 88.3534 36.8358 88.168 36.6836C87.9777 36.5273 87.8213 36.3067 87.8213 36.0098V19.2285H77.7227C77.1128 19.2284 76.441 18.9785 75.79 18.5957C75.1348 18.2103 74.4792 17.677 73.8965 17.0791C73.3137 16.4811 72.7974 15.8121 72.4258 15.1514C72.0567 14.4952 71.8174 13.825 71.8174 13.2305V4.3916C68.211 4.38637 64.5798 4.39978 60.9727 4.3916C45.5511 4.36036 30.1284 4.41369 14.7051 4.3916V95.6309C28.7025 95.6269 42.7082 95.6371 56.7051 95.6309H87.8213V82.7236L72.5459 69.5283L72.5381 69.5225L72.5322 69.5156C70.978 67.9519 70.5509 65.8299 71.5439 63.8164V63.8154C71.652 63.5972 71.8621 63.3226 72.0938 63.042C72.3291 62.757 72.6084 62.4419 72.8662 62.1436C73.1274 61.8413 73.3668 61.5556 73.5361 61.3184C73.6209 61.1995 73.6831 61.1005 73.7207 61.0225C73.7262 61.011 73.7285 60.9995 73.7324 60.9902L68.8105 56.8389C68.7863 56.8333 68.7659 56.8338 68.7412 56.8398C68.6915 56.852 68.645 56.8743 68.5469 56.918L68.5479 56.9189C68.5453 56.9204 68.5357 56.9258 68.5176 56.9385C68.4944 56.9546 68.4646 56.9775 68.4277 57.0068C68.354 57.0656 68.2596 57.145 68.1504 57.2412C67.9322 57.4335 67.6607 57.6843 67.377 57.9463C66.958 58.3331 66.5049 58.7536 66.1729 59.0361L65.8867 59.2666C52.4162 69.1149 32.8083 64.1395 25.7627 49.4521L25.4375 48.7451C17.0695 29.8521 32.8459 9.35792 53.6162 12.0684C60.7595 13.0014 66.8456 16.8856 71.4033 22.1562L71.4297 22.1865L71.4453 22.2236C71.7923 23.0569 72.3286 23.8975 72.8945 24.7783C73.4555 25.6514 74.0448 26.5627 74.4688 27.5117C76.9775 33.138 77.3692 39.2615 75.7227 45.166C75.2464 46.876 74.5825 48.5487 73.7539 50.126L73.3887 50.7959C73.226 51.0847 72.6703 51.8783 72.1719 52.6016C71.9192 52.9682 71.6778 53.3209 71.5 53.5938C71.4108 53.7306 71.3402 53.845 71.292 53.9287C71.2727 53.9623 71.2587 53.9885 71.249 54.0078C71.2618 54.0995 71.3318 54.2006 71.4717 54.3271C72.1667 54.8498 72.8218 55.415 73.4668 55.9795C74.1179 56.5493 74.7578 57.1168 75.4268 57.6504H75.4258C75.6942 57.8638 75.9566 58.0901 76.2129 58.3223C77.0458 57.4174 77.806 56.532 78.7051 55.918C79.6844 55.2491 80.832 54.898 82.4346 55.1113C83.6509 55.2735 84.6239 56.0682 85.5078 56.8662C86.3039 57.585 87.025 58.2992 87.8242 58.7119V42.0693C87.8242 41.9582 87.8752 41.866 87.917 41.8066C87.9625 41.742 88.0219 41.6808 88.084 41.625C88.209 41.5125 88.3734 41.3981 88.543 41.2959C88.7138 41.1929 88.8982 41.0966 89.0684 41.0234C89.2321 40.9531 89.4048 40.8938 89.5439 40.8799H89.5449C89.6268 40.8721 89.7238 40.8721 89.8057 40.8799H89.8076C90.7176 40.9718 91.4013 41.6256 91.5156 42.5029L91.5312 42.6807V42.6895L91.6309 62.125C93.5027 63.8241 95.4952 65.4553 97.4873 67.0957C99.506 68.758 101.523 70.4301 103.399 72.1846C104.516 73.2286 105.64 74.2037 106.233 75.7266L106.25 75.7705V78.4297Z" fill="#6B7280" stroke="#6B7280" stroke-width="0.5"/>
</svg>
