<svg width="32" height="27" viewBox="0 0 32 27" fill="none" xmlns="http://www.w3.org/2000/svg">
<path d="M9.79152 4.80447L8.95761 2.82753C7.76831 3.32993 6.55188 2.22297 6.96154 0.974876C7.29656 -0.0451904 8.66485 -0.32904 9.4017 0.431929C9.91311 0.960131 9.95434 1.93122 9.42727 2.46153L11.9692 4.79236L19.8919 4.80816L20.1001 4.75497L22.5006 2.53894C22.545 2.44731 22.3091 2.1266 22.2611 1.98915C21.5128 -0.150515 24.8609 -0.75929 25.0812 1.24977C25.2174 2.4926 24.1147 3.19827 23 2.86229L22.1588 4.805H24.1679C24.9497 4.805 26.2819 5.56439 26.856 6.09469C28.1762 7.31382 28.6292 8.92423 28.4732 10.7032H29.282C30.2073 10.7032 31.3809 11.7859 31.718 12.6159C32.1152 13.5933 32.1037 16.3275 31.6142 17.2696C31.0036 18.444 29.7689 19.0406 28.4732 18.9711C28.4163 20.0786 28.6005 21.2704 28.3537 22.3526C27.8793 24.4301 25.9052 26.0558 23.8052 26.1885C21.7826 26.3159 19.6305 26.0874 17.5942 26.1874C16.9492 26.831 16.239 27.2217 15.3038 26.8641C13.207 26.0626 14.2497 22.7091 16.5641 23.4332C17.0228 23.5764 17.2795 23.8708 17.5926 24.1857L23.7499 24.1847C25.4428 23.9993 26.5851 22.5411 26.5449 20.8438C26.3988 17.2865 26.7302 13.5838 26.5449 10.0433C26.4448 8.13009 25.3729 6.88041 23.4373 6.75455H8.51351C7.21046 6.6645 5.46018 8.13535 5.46018 9.46613V18.9717H2.92921C1.74618 18.9717 0.488526 17.8684 0.162893 16.7604C-0.0427157 16.061 -0.0505435 13.7444 0.121667 13.0314C0.375285 11.9823 1.60528 10.7037 2.72047 10.7037H3.47715C3.2872 8.60879 4.11068 6.60183 5.91366 5.50014C6.31131 5.25684 7.33831 4.80552 7.7824 4.80552H9.79152V4.80447ZM24.9512 18.9706L25.0295 18.8916V17.733L24.9512 17.654H6.97354V18.9706C8.14718 18.958 9.32394 18.9864 10.4981 18.9727C10.722 18.9701 10.9156 18.8553 11.1624 18.9827C11.2459 19.0259 11.5825 19.5315 11.6952 19.6563C14.281 22.5079 18.6911 22.1219 20.8281 18.9711H24.9507L24.9512 18.9706ZM20.7122 10.4262C19.3972 10.4262 18.3305 11.502 18.3305 12.8297C18.3305 14.1573 19.3967 15.2332 20.7122 15.2332C22.0278 15.2332 23.094 14.1573 23.094 12.8297C23.094 11.502 22.0278 10.4262 20.7122 10.4262ZM20.7133 13.9056C20.1236 13.9056 19.6456 13.4232 19.6456 12.8281C19.6456 12.233 20.1236 11.7506 20.7133 11.7506C21.303 11.7506 21.781 12.233 21.781 12.8281C21.781 13.4232 21.303 13.9056 20.7133 13.9056ZM11.2746 10.4272C9.95956 10.4272 8.89394 11.5031 8.89394 12.8297C8.89394 14.1562 9.96008 15.2321 11.2746 15.2321C12.5892 15.2321 13.6553 14.1562 13.6553 12.8297C13.6553 11.5031 12.5892 10.4272 11.2746 10.4272ZM11.2757 13.9087C10.6854 13.9087 10.2069 13.4258 10.2069 12.8302C10.2069 12.2346 10.6854 11.7517 11.2757 11.7517C11.8659 11.7517 12.3444 12.2346 12.3444 12.8302C12.3444 13.4258 11.8659 13.9087 11.2757 13.9087Z" fill="white" fill-opacity="0.8"/>
</svg>
