<svg width="31" height="31" viewBox="0 0 31 31" fill="none" xmlns="http://www.w3.org/2000/svg">
<path d="M27.089 14.5141C27.2821 14.7034 27.2891 15.1457 27.3117 15.4124C27.5448 18.1744 27.6109 24.2423 27.2856 26.9303C27.0438 28.93 25.2626 30.6457 23.2239 30.8281C17.1495 31.3754 10.2437 30.4031 4.08067 30.8213C1.915 30.4908 0.349448 28.7493 0.161582 26.6102C-0.35157 20.7386 0.556448 14.1424 0.170279 8.19327C0.650381 5.31594 2.47686 4.16122 5.29311 3.96848C7.86061 3.79295 12.1554 3.75853 14.7003 3.96848C15.3822 4.02527 16.0902 4.08894 16.0902 4.92185C16.0902 5.67732 15.5092 5.80123 14.8656 5.86834C11.564 6.20736 7.25352 5.39682 4.09285 5.88039C2.84041 6.07141 2.00545 7.35003 1.89934 8.52884C1.38619 14.2818 2.29769 20.773 1.9063 26.6051C2.0298 27.672 2.80388 28.6202 3.81453 29.0195L23.0499 29.109C24.5024 29.0126 25.4226 27.7839 25.5618 26.4313C25.9323 22.7985 25.2852 18.6029 25.5687 14.9082C25.6174 14.2043 26.6994 14.1303 27.0873 14.5141H27.089ZM20.3589 0.289216C20.0354 0.748694 19.6092 3.54342 19.2126 4.48991C18.4124 6.4001 17.2069 7.56858 15.2987 8.36191C13.9732 8.9126 12.3659 9.00208 11.2022 9.47189C9.05738 10.3358 13.34 10.9484 13.9106 11.1205C16.4816 11.8932 18.1758 12.9567 19.2143 15.5105C19.7414 16.808 19.8179 18.2674 20.258 19.4668C20.3467 19.7095 20.465 19.9883 20.7799 19.99C21.086 19.9556 21.2391 19.7714 21.3452 19.5064C21.6392 18.7785 21.7175 17.4241 21.9975 16.5379C22.9769 13.4351 24.5459 12.0567 27.6544 11.1205C28.1362 10.9759 32.0205 10.4442 30.7437 9.52179C28.8494 9.13631 26.6455 8.76116 24.9877 7.73379C22.3298 6.0869 21.8357 2.83441 21.2026 0.034524C20.846 -0.0394743 20.5729 -0.01194 20.3589 0.290937V0.289216ZM12.0737 17.9249C11.6179 17.0386 11.7066 16.0113 11.0387 15.3384C10.1411 17.5343 10.2646 18.88 7.74058 19.8162C7.36137 19.9573 5.79756 20.1087 5.90889 20.582C7.61708 21.42 9.15827 21.2049 10.1133 23.1358C10.3533 23.6211 10.7273 25.7618 11.2109 25.6603C11.404 25.6207 11.8336 23.6331 12.0424 23.2115C12.8425 21.5973 14.455 21.0673 16.1493 20.8229L16.1702 20.1569C14.5038 20.0949 12.8565 19.4445 12.0737 17.9249ZM27.3761 3.27324C27.0386 3.77918 26.5237 4.08378 25.9131 4.15089C26.7603 4.75837 27.6161 4.9425 27.6544 6.21424C28.1362 5.8976 28.0423 5.34347 28.5137 4.91497C28.912 4.55358 29.366 4.57251 29.74 4.23522C28.752 3.87211 27.9988 3.6656 27.9988 2.42828C27.4822 2.30782 27.6057 2.9325 27.3761 3.27496V3.27324Z" fill="white"/>
</svg>
