<svg width="102" height="113" viewBox="0 0 102 113" fill="none" xmlns="http://www.w3.org/2000/svg">
<path d="M69.7501 59.732C69.3727 60.2678 71.6085 60.8901 72.0033 61.085C88.9997 69.4752 101.071 85.7509 101.961 105.368C102.103 108.49 102.057 112.157 98.2723 112.89C94.538 113.612 92.8802 110.656 92.5945 107.365C91.4646 94.3493 88.1076 85.0069 78.2417 76.1914C53.6676 54.2315 13.6872 69.6103 9.70205 102.523C9.41631 104.885 9.76095 109 8.55035 110.855C6.2273 114.416 0.665076 113.187 0.117579 109.104C-0.429918 105.02 1.04462 97.011 2.27049 92.9853C6.83805 78.0006 18.0519 65.9411 32.3109 60.0575L29.6977 57.8542C12.0077 41.8553 16.0648 13.075 37.6746 2.96194C55.5108 -5.38627 76.6909 4.66701 82.0939 23.6575C85.9416 37.1785 81.1777 51.8156 69.7501 59.7342V59.732ZM74.1955 32.9867C74.1955 19.9927 63.8214 9.45671 51.0217 9.45671C38.2221 9.45671 27.848 19.9905 27.848 32.9867C27.848 45.9829 38.2221 56.5167 51.0217 56.5167C63.8214 56.5167 74.1955 45.9829 74.1955 32.9867Z" fill="#E8E8E8"/>
</svg>
