<svg width="17" height="21" viewBox="0 0 17 21" fill="none" xmlns="http://www.w3.org/2000/svg">
<path d="M7.24031 10.4536C6.79963 11.4272 6.49558 12.7616 5.98693 13.675C5.78876 14.0309 5.56699 14.1464 5.21286 14.3181C4.25994 14.779 3.11029 15.0598 2.13233 15.4913L2.08655 15.6721C3.0595 16.1428 4.18554 16.4223 5.1635 16.8643C5.49187 17.0127 5.77803 17.1584 5.96618 17.4793C6.45695 18.3191 6.77387 19.6766 7.20812 20.6096C7.2489 20.6979 7.19453 20.7771 7.34834 20.7525C7.51932 20.7252 7.5508 20.5718 7.61089 20.4478C8.03656 19.5723 8.29482 18.4858 8.72907 17.6201C8.8979 17.2838 9.00235 17.1395 9.34861 16.9651C10.2751 16.4972 11.4791 16.2226 12.4427 15.7918C12.6938 15.651 12.6731 15.5495 12.4313 15.4227C11.542 14.9562 10.3065 14.7103 9.38724 14.2704C9.02024 14.0946 8.91007 13.9293 8.72978 13.5833C8.25189 12.6635 7.98433 11.5085 7.51932 10.5656C7.46424 10.448 7.36694 10.4389 7.24174 10.4536H7.24031ZM4.10613 0.177021C4.42091 0.731791 4.62909 1.6466 4.91454 2.25741C4.97392 2.38419 5.0941 2.63636 5.18854 2.72462C5.50689 3.02512 7.83696 3.68846 7.88418 3.83416C7.89705 3.87339 7.91208 4.01978 7.83338 4.00998C7.12513 4.29367 6.35751 4.4947 5.66714 4.81762C5.25936 5.00814 5.15849 5.02846 4.94745 5.44383C4.60477 6.11698 4.36868 7.00938 4.09039 7.72245L3.84358 7.6496C3.47515 7.0409 3.17682 5.43823 2.66245 5.02355C2.27184 4.70834 0.122049 4.12906 0.0133076 3.90421C-0.0453548 3.78233 0.0984402 3.79493 0.157104 3.76902C0.687218 3.53366 2.48932 2.9873 2.77119 2.68259C3.1246 2.30084 3.70765 0.143398 3.8772 0.0173143C3.97307 -0.0534329 4.0675 0.111177 4.10542 0.177721L4.10613 0.177021ZM10.7258 7.38763C11.1092 7.15087 12.2417 6.93583 12.4935 6.66685C12.706 6.4392 13.1581 4.87926 13.2855 4.84984C13.4128 4.83162 13.4243 4.9416 13.4672 5.02075C13.6911 5.43543 13.9014 6.39437 14.2098 6.67525C14.556 6.99046 15.4403 7.11375 15.8738 7.35751C15.9611 7.40584 16.0391 7.42335 16.0391 7.54524C16.0391 7.644 14.4158 8.10841 14.1819 8.31995C13.9301 8.5476 13.6496 9.63473 13.4672 10.0018C13.4207 10.0942 13.4193 10.1713 13.2848 10.1734C13.181 10.1748 12.7146 8.5497 12.4663 8.31155C12.1988 8.05587 10.6714 7.66992 10.602 7.57956C10.5326 7.4892 10.665 7.42475 10.7258 7.38693V7.38763Z" fill="white"/>
</svg>
