<svg width="31" height="28" viewBox="0 0 31 28" fill="none" xmlns="http://www.w3.org/2000/svg">
<path d="M19.7476 28C20.4566 28 21.1969 27.9716 21.9127 27.9446C22.6359 27.9169 23.3836 27.8885 24.1083 27.8885C24.6068 27.8885 25.0495 27.9019 25.4617 27.9289C28.3522 27.6122 30.6281 25.3175 30.8885 22.4569C30.7591 19.8111 30.8357 17.0523 30.9094 14.3841C30.9897 11.4882 31.0731 8.49433 30.8908 5.66064C30.7963 4.1985 30.1609 2.82995 29.1007 1.80727C28.0516 0.79508 26.6625 0.186417 25.1886 0.0928342C24.2519 0.0329412 23.054 0 21.8152 0C20.5764 0 19.3607 0.0329412 18.3994 0.0920856C16.6227 0.202139 15.215 0.850481 14.2143 2.02064C13.0291 3.40567 12.4912 5.47348 12.6987 7.84299C12.7598 8.54 13.326 8.85144 13.8602 8.85144C14.3579 8.85144 14.974 8.56171 15.0714 7.74567C15.1176 7.35711 15.1056 6.98877 15.0945 6.63241C15.0699 5.85679 15.0439 5.05422 15.625 4.1416C16.2745 3.12118 17.3429 2.55968 18.8012 2.47134C19.6955 2.41743 20.7981 2.38749 21.9052 2.38749C23.0123 2.38749 24.0547 2.41818 24.865 2.47508C26.9385 2.62257 28.3031 3.90054 28.5151 5.89422L28.5173 5.91444V22.1125L28.5151 22.1327C28.2919 24.1706 26.9348 25.4179 24.792 25.5549C23.9595 25.608 22.9387 25.6357 21.8398 25.6357C20.7409 25.6357 19.668 25.6073 18.8019 25.5549C17.2596 25.462 16.1592 24.8466 15.532 23.7266C15.0469 22.8604 15.0714 22.1088 15.0952 21.3826C15.1079 21.0112 15.1205 20.6279 15.0625 20.2274C14.9501 19.451 14.3467 19.1755 13.8639 19.1755C13.3289 19.1755 12.7612 19.4877 12.7002 20.184C12.5261 22.1582 12.8996 23.9969 13.7508 25.361C14.6905 26.8673 16.1889 27.7567 18.0825 27.9319C18.575 27.9775 19.1204 27.9993 19.7506 27.9993L19.7476 28ZM7.51293 21.5705C7.96231 21.5705 8.40798 21.283 8.62152 20.8555C8.73609 20.6257 8.87448 20.166 8.50768 19.6689C8.06945 19.0752 7.38421 18.4665 6.72129 17.8773C6.05316 17.2836 5.36197 16.6697 4.87612 16.0349C4.8724 16.0319 4.86942 16.0281 4.8657 16.0251C4.80395 15.969 4.6172 15.7975 4.69458 15.4861L4.76526 15.2024H23.6611C23.7616 15.1597 23.9825 15.0549 24.0346 15.0242C24.3642 14.8086 24.5644 14.4297 24.5644 14.0135C24.5644 13.5972 24.3642 13.2184 24.0294 12.9998C23.9818 12.9713 23.7616 12.8673 23.6611 12.8246H4.76526L4.69458 12.5409C4.6172 12.2294 4.80395 12.058 4.8657 12.0018C4.86942 11.9988 4.8724 11.9958 4.87612 11.9921C5.36197 11.3572 6.05316 10.7433 6.72129 10.1496C7.38421 9.56043 8.06945 8.95177 8.50768 8.35808C8.87448 7.86096 8.73684 7.40128 8.62152 7.17144C8.40798 6.74396 7.96231 6.45647 7.51293 6.45647C7.28302 6.45647 7.06056 6.52834 6.85075 6.67059L0.246084 13.294C-0.0820293 13.7133 -0.0820293 14.3122 0.246084 14.7322L6.85075 21.3556C7.05982 21.4979 7.28228 21.5697 7.51218 21.5697L7.51293 21.5705Z" fill="white" fill-opacity="0.8"/>
</svg>
