<svg width="20" height="23" viewBox="0 0 20 23" fill="none" xmlns="http://www.w3.org/2000/svg">
<path d="M0 15.3287V14.9918C0.0381262 14.4236 0.216775 13.8704 0.531044 13.4001C0.628212 13.2547 0.74564 13.1264 0.847165 12.985C1.2098 12.4798 1.43213 11.9133 1.52265 11.2896C1.72592 9.88764 1.76557 8.42215 2.00849 7.0288C2.81568 2.3985 7.10586 -0.813845 11.6515 0.181501C14.8969 0.892221 17.3827 3.63341 17.9824 6.98194C18.2282 8.35428 18.2813 9.81179 18.4663 11.1999C18.5511 11.8372 18.7388 12.3812 19.0984 12.9063C19.2829 13.1757 19.489 13.3949 19.6426 13.6926C20.6932 15.7279 19.3082 18.2972 17.0446 18.2829H2.97712C1.3549 18.3031 0.0871457 16.9726 0 15.3287ZM9.72012 1.77621C6.5868 1.90656 4.09759 4.45245 3.64879 7.59783C3.4647 8.88802 3.39596 10.1997 3.22112 11.4918C3.10315 12.3631 2.81448 13.1632 2.32788 13.8835C2.12178 14.1887 1.84531 14.446 1.75141 14.8163C1.5561 15.5871 2.0464 16.4147 2.82472 16.5084H17.175C17.97 16.4072 18.4648 15.5572 18.2355 14.7735C18.1355 14.4319 17.888 14.201 17.6937 13.9171C17.1932 13.1857 16.8994 12.3805 16.7787 11.4917C16.6009 10.1827 16.536 8.83341 16.3398 7.53063C15.8346 4.17513 13.0598 1.63721 9.7199 1.77621H9.72012ZM14.2163 20.1049C14.5821 19.0608 13.3009 18.4171 12.7293 19.2449C12.6122 19.4146 12.5516 19.6559 12.4421 19.8472C11.3715 21.7161 8.51218 21.6784 7.51044 19.7614C7.40847 19.5663 7.36033 19.3441 7.21861 19.1752C6.82852 18.7104 6.10652 18.7904 5.81915 19.3269C5.6148 19.7084 5.73865 20.0282 5.9026 20.3869C6.63331 21.9863 8.24703 22.9766 9.95117 22.9996C9.99452 23.0002 10.0384 23.0001 10.0818 22.9996C11.8211 22.9809 13.6155 21.8201 14.2164 20.105L14.2163 20.1049Z" fill="white"/>
</svg>
