<svg width="31" height="42" viewBox="0 0 31 42" fill="none" xmlns="http://www.w3.org/2000/svg">
<path d="M13.9945 21.1518C13.1427 23.1219 12.5551 25.8219 11.572 27.6701C11.189 28.3902 10.7604 28.624 10.076 28.9713C8.23423 29.9039 6.01227 30.4722 4.12215 31.3453L4.03366 31.711C5.9141 32.6634 8.09043 33.2289 9.98055 34.1233C10.6152 34.4237 11.1683 34.7185 11.5319 35.3677C12.4804 37.0671 13.093 39.8138 13.9322 41.7017C14.0111 41.8803 13.906 42.0405 14.2032 41.9909C14.5337 41.9356 14.5945 41.6252 14.7107 41.3743C15.5334 39.6027 16.0325 37.4044 16.8718 35.6526C17.1981 34.9722 17.4 34.6803 18.0692 34.3274C19.8598 33.3806 22.1868 32.825 24.0493 31.9533C24.5346 31.6684 24.4945 31.4629 24.0272 31.2064C22.3085 30.2624 19.9206 29.765 18.1439 28.8749C17.4346 28.5191 17.2216 28.1846 16.8732 27.4845C15.9496 25.6235 15.4324 23.2863 14.5337 21.3786C14.4272 21.1405 14.2392 21.1221 13.9972 21.1518H13.9945ZM7.93695 0.358185C8.54533 1.48071 8.94769 3.33175 9.49938 4.56766C9.61414 4.82419 9.84643 5.33443 10.0289 5.51302C10.6442 6.12105 15.1476 7.46326 15.2389 7.75807C15.2638 7.83744 15.2928 8.13366 15.1407 8.11382C13.7718 8.68784 12.2882 9.09461 10.954 9.748C10.1658 10.1335 9.97087 10.1746 9.56298 11.0151C8.90068 12.3771 8.4444 14.1828 7.90653 15.6257L7.42951 15.4783C6.71743 14.2466 6.14086 11.0038 5.14671 10.1647C4.39177 9.5269 0.236828 8.35476 0.0266609 7.8998C-0.0867195 7.65319 0.191198 7.6787 0.304579 7.62626C1.32914 7.15003 4.8121 6.04452 5.35688 5.42798C6.03992 4.65553 7.1668 0.290153 7.4945 0.0350338C7.67978 -0.108117 7.86229 0.224956 7.93557 0.359603L7.93695 0.358185ZM20.7309 14.9482C21.472 14.4691 23.6608 14.034 24.1475 13.4898C24.5581 13.0291 25.432 9.87273 25.6781 9.8132C25.9242 9.77635 25.9463 9.99887 26.0293 10.159C26.4621 10.9981 26.8686 12.9384 27.4645 13.5068C28.1337 14.1446 29.8427 14.394 30.6806 14.8872C30.8493 14.985 31 15.0205 31 15.2671C31 15.4669 27.8627 16.4066 27.4106 16.8347C26.9239 17.2953 26.3819 19.495 26.0293 20.2377C25.9394 20.4248 25.9366 20.5807 25.6767 20.5849C25.4762 20.5877 24.5747 17.2995 24.0949 16.8176C23.5778 16.3003 20.6258 15.5194 20.4917 15.3365C20.3575 15.1537 20.6133 15.0233 20.7309 14.9468V14.9482Z" fill="white"/>
</svg>
