<svg width="29" height="28" viewBox="0 0 29 28" fill="none" xmlns="http://www.w3.org/2000/svg">
<path d="M13.9472 27.9978C11.9927 27.4409 11.3393 25.4043 9.98256 24.1386C6.38611 24.0578 2.59422 23.8918 0.946553 20.3133C-0.202266 17.8202 -0.0647713 10.5158 0.132948 7.5979C0.445436 2.9907 3.53168 0.409178 8.22581 0.147095C11.9018 -0.0582039 16.888 -0.0396397 20.5731 0.147095C24.1854 0.330553 27.0433 1.53504 28.4057 4.91155L29 7.33145V16.904C28.7 18.4744 28.3784 19.7564 27.3944 21.0723C25.4354 23.6909 22.1832 24.0895 19.0402 24.1386C17.8391 25.508 17.0357 27.525 15.0778 28H13.946L13.9472 27.9978ZM8.94283 2.14111C4.36233 2.4021 2.44308 3.96477 2.17037 8.46824C2.01242 11.0836 1.87379 17.6477 3.01806 19.8459C4.27369 22.2593 7.3963 21.8181 9.70076 22.0169C11.9552 22.2112 12.3086 23.9541 13.6108 25.33C14.4153 26.1807 14.721 26.1873 15.5289 25.33C16.7243 24.0611 17.1709 22.2418 19.2254 22.0289C21.8571 21.7559 24.3002 22.0857 25.924 19.5467C27.3069 17.3834 27.1148 11.326 26.9694 8.68664C26.7069 3.92328 24.7649 2.33331 19.8947 2.10617C16.5528 1.95001 12.2791 1.95219 8.94397 2.1422L8.94283 2.14111ZM13.4915 11.8426C12.4143 13.07 14.1665 14.8565 15.4676 13.687C17.0584 12.2564 14.5892 10.5922 13.4915 11.8426ZM9.14055 14.079C11.0734 14.1413 11.12 10.9569 8.70761 11.4866C7.41334 11.7705 7.51448 14.0255 9.14055 14.079ZM20.4322 11.4877C18.1686 10.9831 17.9891 13.8945 19.7901 14.0703C20.8765 14.1762 21.7696 12.916 21.1537 12.0424C21.0764 11.9332 20.5901 11.5226 20.4322 11.4877Z" fill="#6B7280"/>
</svg>
