<svg width="80" height="112" viewBox="0 0 80 112" fill="none" xmlns="http://www.w3.org/2000/svg">
<path opacity="0.3" d="M80 0V112H0V0H80ZM3.40694 3.51964V108.606H76.0883V3.51964H3.40694ZM49.4637 103.452H71.2934V100.561H49.4637V103.452ZM8.70662 42.9899V45.881H71.4196V42.9899H8.70662ZM8.70662 49.0236V51.9147H71.4196V49.0236H8.70662ZM8.70662 55.0572V57.9484H71.4196V55.0572H8.70662ZM8.70662 63.982H71.4196V61.0909H8.70662V63.982ZM8.70662 70.0157H71.4196V67.1246H8.70662V70.0157ZM8.70662 76.0494H71.4196V73.1582H8.70662V76.0494ZM8.70662 94.1504H35.7098V91.2593H8.70662V94.1504ZM8.70662 82.0831H71.4196V79.1919H8.70662V82.0831ZM8.70662 88.1167H71.4196V85.2256H8.70662V88.1167ZM20.5678 36.9562V39.8474H71.4196V36.9562H20.5678ZM51.4827 8.2963V11.1874H71.4196V8.2963H51.4827ZM51.4827 13.5758V16.4669H71.4196V13.5758H51.4827ZM25.9483 20.4793C23.6744 24.1611 18.3445 24.8172 15.0827 21.994C14.8076 21.7564 14.1073 20.8514 14.0063 20.796C13.6467 20.6025 12.67 21.4246 12.3647 21.681C10.1325 23.5565 8.70032 26.342 8.70662 29.2872H31.5457C31.5861 25.6431 29.2442 21.9739 25.9483 20.478V20.4793ZM19.918 9.70164C16.4177 9.70164 13.5786 12.5287 13.5786 16.0169C13.5786 19.5051 16.4164 22.3321 19.918 22.3321C23.4196 22.3321 26.2574 19.5051 26.2574 16.0169C26.2574 12.5287 23.4196 9.70164 19.918 9.70164Z" fill="#6B7280"/>
</svg>
