<svg width="23" height="26" viewBox="0 0 23 26" fill="none" xmlns="http://www.w3.org/2000/svg">
<path d="M0 2.98908L11.5814 2.98031C11.8096 2.5428 11.9567 2.0702 12.2287 1.65526C13.2514 0.0957946 15.2883 -0.415671 16.9307 0.352154C18.023 0.862992 18.6631 1.8596 19.0769 2.98908H23V4.98981H19.0769C18.7358 5.8667 18.3443 6.63139 17.6044 7.20428C15.4282 8.88911 12.3752 7.72891 11.651 5.05124L11.582 4.99859L0.000600506 4.98981V2.98908H0ZM17.255 3.98819C17.255 2.88002 16.3944 1.98245 15.3333 1.98245C14.2722 1.98245 13.4117 2.88065 13.4117 3.98819C13.4117 5.09574 14.2722 5.99394 15.3333 5.99394C16.3944 5.99394 17.255 5.09574 17.255 3.98819ZM0 11.9936L3.9147 11.9849C4.14289 11.5473 4.29002 11.0747 4.56205 10.6598C5.58471 9.09971 7.62163 8.58825 9.26401 9.3567C10.3563 9.86754 10.9965 10.8641 11.4102 11.9936H23V13.9944H11.4102C11.0691 14.8712 10.6776 15.6359 9.93778 16.2088C7.76155 17.8937 4.70857 16.7335 3.98436 14.0558L3.9153 14.0031L0.000600506 13.9944V11.9936H0ZM9.58889 12.9921C9.58889 11.8839 8.72836 10.9864 7.66727 10.9864C6.60617 10.9864 5.74565 11.8846 5.74565 12.9921C5.74565 14.0997 6.60617 14.9979 7.66727 14.9979C8.72836 14.9979 9.58889 14.0997 9.58889 12.9921ZM0 20.9975L11.5814 20.9888C11.8096 20.5513 11.9567 20.0787 12.2287 19.6637C13.2508 18.1043 15.2883 17.5922 16.9307 18.3606C18.023 18.8715 18.6631 19.8674 19.0769 20.9975H23V22.9983H19.0769C18.6223 24.2782 17.8302 25.3594 16.5446 25.7944L15.7531 26H14.9148C13.772 25.7969 12.7271 25.1896 12.1104 24.1441C11.8984 23.7849 11.7819 23.3487 11.5826 23.0071L0.00120101 22.9983V20.9975H0ZM17.255 21.9967C17.255 20.8885 16.3944 19.9909 15.3333 19.9909C14.2722 19.9909 13.4117 20.8891 13.4117 21.9967C13.4117 23.1042 14.2722 24.0024 15.3333 24.0024C16.3944 24.0024 17.255 23.1042 17.255 21.9967Z" fill="#6366F1"/>
</svg>
