<svg width="103" height="116" viewBox="0 0 103 116" fill="none" xmlns="http://www.w3.org/2000/svg">
<path opacity="0.3" d="M78.7631 1.98968C80.2353 3.53172 80.4417 5.55166 81.0643 7.48717C85.7446 7.4362 91.0173 6.76235 92.7182 12.2853C93.2741 25.6937 92.777 39.2089 92.9708 52.6539L102.919 90.3064C103.41 93.7457 101.642 96.68 98.388 97.7872C97.6733 98.0309 93.1836 99.0282 93.0248 99.2575C92.8373 100.873 93.1502 102.393 92.6452 103.974C91.8193 106.566 89.364 108.327 86.688 108.513C77.4306 109.16 67.4442 108 58.1106 108.523C49.0326 110.361 39.753 114.055 30.7307 115.787C29.0567 116.108 27.7243 116.134 26.144 115.384C23.2695 114.018 22.6628 111.371 21.9402 108.529C17.263 108.58 11.9729 109.246 10.2862 103.731C9.73038 90.3223 10.2275 76.8072 10.0337 63.3621L0.0870572 25.7081C-0.419567 22.5093 1.32106 19.387 4.36874 18.2958C5.13583 18.0218 9.81297 16.9959 9.98131 16.7569C10.1195 14.506 9.78597 12.7728 10.9771 10.7465C12.1349 8.77592 14.0438 7.66081 16.3165 7.49992C25.5691 6.84838 35.5793 8.00172 44.9114 7.50788L73.2013 0.0414254C75.2087 -0.184783 77.3639 0.522516 78.7646 1.98968H78.7631ZM76.9128 7.50948C76.2951 3.19081 74.2717 3.85988 70.9699 4.65479L60.5548 7.50948H76.9128ZM16.0449 11.5302C15.2032 11.672 14.3456 12.443 14.1296 13.273C13.9771 43.1054 13.8914 73.0365 14.1725 102.858C14.6045 103.82 15.3747 104.511 16.4769 104.529H86.5276C87.8743 104.486 88.9479 103.406 88.9892 102.06C88.8733 72.4312 89.1878 42.7549 88.832 13.1551C88.435 12.2296 87.5647 11.5095 86.5276 11.484L16.0449 11.5287V11.5302ZM10.0512 20.8908C7.49584 21.7877 3.16174 21.5328 4.08764 25.5185L10.0512 47.6534V20.8908ZM92.9533 95.1253C95.0338 94.3335 99.1535 94.4992 99.0884 91.4072L92.9533 68.3626V95.1253ZM42.4497 108.507H26.0916C26.3823 111.825 28.4151 112.679 31.3993 111.521L42.4497 108.507ZM78.1119 71.3814H28.2293C26.1298 71.3957 25.9249 74.4766 28.0721 74.7379L77.7943 74.7426C78.15 74.7379 78.6662 74.5977 78.9282 74.3651C79.9065 73.4969 79.5174 71.5343 78.1103 71.3814H78.1119ZM77.7943 92.089C61.1027 92.1798 44.3809 91.9488 27.7084 92.2053C25.9948 92.6529 26.2187 95.3419 28.0737 95.4471L77.7943 95.4518C79.3872 95.5092 80.0828 93.4335 78.9266 92.4681C78.6439 92.2324 78.1675 92.0922 77.7943 92.089ZM77.7943 61.0252C61.1011 61.1144 44.3809 60.8882 27.7052 61.1399C26.0218 61.7803 26.2044 64.1602 28.0721 64.3833L78.1103 64.3865C79.5143 64.1969 79.9256 62.2885 78.9282 61.4027C78.6662 61.1702 78.15 61.03 77.7943 61.0252ZM28.0737 85.0925L77.6339 85.0956C80.132 85.059 80.0368 81.8268 77.6339 81.7376L27.9561 81.7806C26.0011 82.2776 26.1425 84.7197 28.0737 85.0925ZM60.4849 54.0159L78.1087 54.0287C79.9319 53.8152 80.0177 50.9876 78.0944 50.6897L60.5135 50.7168C58.803 50.9605 58.8523 53.7563 60.4849 54.0159ZM60.6453 43.6597L77.9499 43.6741C80.0781 43.4176 79.9224 40.6155 78.0944 40.3351L60.3515 40.359C58.7443 40.923 58.919 43.3953 60.6453 43.6597ZM60.793 33.3163C66.1102 33.9185 72.5152 32.8639 77.9483 33.3195C79.9875 33.0758 80.0638 30.2322 77.7863 29.971L60.5119 30.0076C58.7856 30.3581 58.7077 33.0805 60.793 33.3163ZM60.7898 22.9649C66.674 22.8789 72.6042 23.1226 78.4613 22.8406C79.9748 21.9629 79.8462 19.841 77.9499 19.6116L60.3515 19.6482C58.7951 20.4033 58.865 22.7339 60.7898 22.9633V22.9649ZM23.6808 47.7044C23.3822 48.4659 22.7628 50.3855 23.3981 50.9143C24.8878 52.1553 31.9805 52.1872 34.1182 52.2668C39.0066 52.4484 47.0316 52.7431 51.6611 51.3986C53.3763 50.9 53.2143 50.4651 52.8268 48.794C51.3212 42.2834 42.3481 39.7951 36.5402 40.2141C31.8217 40.555 25.5437 42.9445 23.6792 47.7044H23.6808ZM32.5221 35.8667C40.1628 45.0632 50.8019 30.2721 43.4963 24.1469C35.7635 17.6649 25.5993 27.5337 32.5221 35.8667Z" fill="#6B7280"/>
</svg>
