<svg width="21" height="21" viewBox="0 0 21 21" fill="none" xmlns="http://www.w3.org/2000/svg">
<path d="M19.62 21H18.8459C17.2235 20.132 16.0771 18.4823 14.7225 17.2464L17.2425 14.7269C18.5721 16.4034 23.3123 19.1353 19.6208 21H19.62ZM8.77893 0C3.93073 0 0 3.92983 0 8.77692C0 13.624 3.93073 17.5538 8.77893 17.5538C13.6271 17.5538 17.5579 13.624 17.5579 8.77692C17.5579 3.92983 13.628 0 8.77893 0ZM8.77806 15.7314C4.93545 15.7314 1.82023 12.6169 1.82023 8.77519C1.82023 4.93345 4.93545 1.81895 8.77806 1.81895C12.6207 1.81895 15.7359 4.93345 15.7359 8.77519C15.7359 12.6169 12.6207 15.7314 8.77806 15.7314Z" fill="#6B7280"/>
</svg>
