<svg width="29" height="29" viewBox="0 0 29 29" fill="none" xmlns="http://www.w3.org/2000/svg">
<path d="M13.2393 28.9996H15.7599C17.0454 28.8955 18.1389 27.8738 18.293 26.5823C18.3398 26.1905 18.2495 25.8772 18.4731 25.5156C18.8263 24.9443 19.6676 24.6649 20.2621 25.0268C20.4071 25.1149 20.5241 25.2632 20.653 25.3723C21.6033 26.177 22.9665 26.2304 23.9722 25.492C24.5817 24.8837 25.2864 24.2795 25.8566 23.6368C26.7976 22.5758 26.8132 20.9483 25.9067 19.8613C25.7034 19.6175 25.4291 19.4117 25.2334 19.1747C24.9691 18.8546 25.2016 18.3487 25.6085 18.3167C25.9229 18.2919 26.25 18.3394 26.5702 18.3013C27.8785 18.1456 28.9309 17.0056 28.9871 15.6897C28.9537 14.9014 29.0295 14.0794 28.9863 13.295C28.9164 12.0272 27.9318 10.9318 26.6809 10.7278C26.0388 10.6232 25.3727 10.8921 25.0613 10.1097C24.7704 9.37899 25.3457 9.09564 25.7509 8.64092C26.7958 7.46855 26.7639 5.71049 25.7156 4.55301C25.3466 4.14563 24.842 3.63804 24.4339 3.27078C23.2799 2.23236 21.5245 2.21266 20.362 3.24966C19.8915 3.66937 19.6088 4.25265 18.8561 3.92082C18.1096 3.59169 18.3805 2.95044 18.2765 2.31897C18.0672 1.04823 16.9672 0.0765659 15.6826 0.012072C14.9103 -0.0266243 14.1062 0.0428306 13.3305 0.012072C12.1009 0.0694786 11.0527 0.938374 10.762 2.13186C10.6518 2.58417 10.7253 2.952 10.6907 3.39226C10.659 3.79609 10.1605 4.02798 9.84021 3.77469C9.59907 3.58404 9.3813 3.28552 9.13279 3.07985C8.04326 2.17864 6.40968 2.21393 5.35826 3.15767C4.72211 3.72862 4.12181 4.42104 3.51896 5.02941C2.78576 6.01312 2.83138 7.43567 3.64506 8.35772C3.74877 8.47522 3.87543 8.57005 3.96426 8.70428C4.34439 9.27821 4.09149 10.1239 3.54644 10.4972C3.13996 10.7756 2.77967 10.6538 2.3304 10.7258C1.05796 10.9295 0.0756817 12.0361 0.0120678 13.3228C-0.0266113 14.1049 0.0428123 14.9187 0.0120678 15.7042C0.0830498 16.9911 1.06164 18.0801 2.3321 18.2851C2.92177 18.3802 3.50196 18.1394 3.86693 18.7614C4.07081 19.1088 4.06571 19.5092 3.80105 19.8195C3.57988 20.0786 3.39131 20.222 3.222 20.5435C2.67681 21.5788 2.91086 22.6783 3.68005 23.5102C4.30288 24.1838 5.02177 24.792 5.64857 25.4652C6.55476 26.2574 7.91646 26.2857 8.85595 25.5284C9.26739 25.1967 9.43684 24.8365 10.0747 25.0608C10.8881 25.3465 10.6169 26.056 10.7225 26.6938C10.9242 27.9135 11.977 28.9047 13.2168 28.9868L13.2393 29V28.9996ZM15.5504 1.53285C15.8469 1.55099 16.1102 1.62513 16.3407 1.81889C17.0127 2.38417 16.6699 3.06866 16.875 3.79212C17.3166 5.35131 19.329 6.06443 20.6444 5.0905C21.0469 4.79255 21.3223 4.31572 21.7994 4.12097C22.3858 3.88142 22.9827 4.01934 23.4427 4.43266C23.7981 4.75187 24.2496 5.20347 24.5685 5.55897C24.9193 5.9499 25.0748 6.43141 24.958 6.95529C24.8102 7.61866 24.2786 7.8626 23.9108 8.35857C22.9321 9.67878 23.6608 11.7063 25.2306 12.1361C25.6337 12.2465 25.9617 12.1953 26.3592 12.2252C26.9196 12.2673 27.3968 12.7568 27.4567 13.3091C27.4104 14.0853 27.5193 14.9354 27.4567 15.7031C27.4325 15.9997 27.2547 16.3056 27.0322 16.4968C26.526 16.9323 26.0107 16.737 25.4108 16.8014C23.9824 16.9552 23.1554 18.569 23.8384 19.8334C24.1418 20.3948 24.8345 20.7091 25.0029 21.3461C25.1212 21.7934 25.0215 22.2646 24.7234 22.6167C24.255 23.1696 23.6161 23.6636 23.1303 24.2106C22.71 24.5788 22.0754 24.5808 21.6507 24.2182C21.4114 24.0138 21.2553 23.8313 20.9666 23.6703C19.4135 22.8043 17.2705 23.7332 16.8599 25.4602C16.7039 26.1163 16.9495 26.6819 16.3472 27.1858C16.1609 27.3416 15.9233 27.4397 15.6819 27.4694C14.9597 27.4649 14.1924 27.524 13.4731 27.4836C13.1643 27.4663 12.8818 27.3814 12.6444 27.1793C12.0058 26.6361 12.3134 25.9922 12.1448 25.2989C11.7421 23.6433 9.5985 22.9031 8.26839 23.9913C8.06806 24.1552 7.9149 24.3803 7.66937 24.4829C7.33684 24.6218 6.94368 24.5658 6.66825 24.3318L4.6721 22.3336C4.45264 22.0718 4.39752 21.6897 4.51554 21.3703C4.62563 21.0724 4.93195 20.881 5.11386 20.623C6.05335 19.2912 5.32979 17.3029 3.76832 16.8764C3.34965 16.762 3.01868 16.8236 2.61135 16.7871C2.08104 16.7398 1.58544 16.2325 1.54222 15.7034C1.58855 14.9272 1.4796 14.0771 1.54222 13.3094C1.58274 12.8128 2.01133 12.3518 2.49305 12.2489C2.705 12.2037 2.93283 12.2306 3.14917 12.211C5.28898 12.0177 6.45048 9.33476 5.08184 7.65679C4.87938 7.40859 4.66728 7.28414 4.56882 6.95161C4.45349 6.56209 4.54303 6.16875 4.80599 5.86386C5.28006 5.31417 5.90388 4.82218 6.39268 4.27774C6.7473 3.9771 7.22477 3.87844 7.67404 4.00091C8.2385 4.1547 8.53646 4.71474 8.98615 5.04004C10.0836 5.83381 11.7372 5.26343 12.1241 3.97653C12.3555 3.207 11.9396 2.4145 12.666 1.81266C12.9096 1.61095 13.1898 1.54263 13.5004 1.52817C14.1234 1.49926 14.93 1.49515 15.5502 1.53299L15.5504 1.53285ZM9.16198 14.5065C9.16198 17.4556 11.5517 19.8463 14.4994 19.8463C17.4471 19.8463 19.8368 17.4555 19.8368 14.5065C19.8368 11.5575 17.4471 9.16665 14.4994 9.16665C11.5517 9.16665 9.16198 11.5575 9.16198 14.5065ZM10.6866 14.5055C10.6866 12.3987 12.3937 10.6907 14.4997 10.6907C16.6056 10.6907 18.3127 12.3986 18.3127 14.5055C18.3127 16.6124 16.6056 18.3202 14.4997 18.3202C12.3937 18.3202 10.6866 16.6124 10.6866 14.5055Z" fill="white" fill-opacity="0.8"/>
</svg>
