<svg width="27" height="27" viewBox="0 0 27 27" fill="none" xmlns="http://www.w3.org/2000/svg">
<path d="M25.2257 27H24.2305C22.1445 25.884 20.6706 23.763 18.929 22.1739L22.169 18.9346C23.8784 21.0901 29.9729 24.6025 25.2268 27H25.2257ZM11.2872 0C5.0538 0 0 5.05265 0 11.2846C0 17.5166 5.0538 22.5692 11.2872 22.5692C17.5206 22.5692 22.5744 17.5166 22.5744 11.2846C22.5744 5.05265 17.5217 0 11.2872 0ZM11.2861 20.2261C6.34558 20.2261 2.3403 16.2218 2.3403 11.2824C2.3403 6.34301 6.34558 2.33865 11.2861 2.33865C16.2266 2.33865 20.2319 6.34301 20.2319 11.2824C20.2319 16.2218 16.2266 20.2261 11.2861 20.2261Z" fill="#6B7280"/>
</svg>
